SplineFontDB: 3.2
FontName: B612Mono-Italic
FullName: B612 Mono Italic
FamilyName: B612 Mono
Weight: Book
Copyright: Copyright 2012 The B612 Project Authors (https://github.com/polarsys/b612)
Version: 1.008
ItalicAngle: -10
UnderlinePosition: -300
UnderlineWidth: 100
Ascent: 1600
Descent: 400
InvalidEm: 0
sfntRevision: 0x0001020c
LayerCount: 2
Layer: 0 1 "Back" 1
Layer: 1 1 "Fore" 0
XUID: [1021 203 -901246744 8712674]
StyleMap: 0x0001
FSType: 0
OS2Version: 3
OS2_WeightWidthSlopeOnly: 0
OS2_UseTypoMetrics: 0
CreationTime: 1511794980
ModificationTime: 1695107191
PfmFamily: 17
TTFWeight: 400
TTFWidth: 5
LineGap: 0
VLineGap: 0
Panose: 2 11 6 9 5 0 0 2 0 4
OS2TypoAscent: 1930
OS2TypoAOffset: 0
OS2TypoDescent: -500
OS2TypoDOffset: 0
OS2TypoLinegap: 0
OS2WinAscent: 1966
OS2WinAOffset: 0
OS2WinDescent: 712
OS2WinDOffset: 0
HheadAscent: 1930
HheadAOffset: 0
HheadDescent: -500
HheadDOffset: 0
OS2SubXSize: 1300
OS2SubYSize: 1399
OS2SubXOff: 0
OS2SubYOff: 279
OS2SupXSize: 1300
OS2SupYSize: 1399
OS2SupXOff: 0
OS2SupYOff: 960
OS2StrikeYSize: 100
OS2StrikeYPos: 500
OS2CapHeight: 1500
OS2XHeight: 1100
OS2FamilyClass: 2053
OS2Vendor: '    '
OS2CodePages: 20000011.81d40000
OS2UnicodeRanges: 800000af.5000e0fb.00000000.00000000
DEI: 91125
TtTable: prep
PUSHW_1
 511
SCANCTRL
PUSHB_1
 4
SCANTYPE
EndTTInstrs
TtTable: fpgm
PUSHW_1
 0
FDEF
MPPEM
PUSHW_1
 9
LT
IF
PUSHB_2
 1
 1
INSTCTRL
EIF
PUSHW_1
 511
SCANCTRL
PUSHW_1
 68
SCVTCI
PUSHW_2
 9
 3
SDS
SDB
ENDF
PUSHW_1
 1
FDEF
DUP
DUP
RCVT
ROUND[Black]
WCVTP
PUSHB_1
 1
ADD
ENDF
PUSHW_1
 2
FDEF
PUSHW_1
 1
LOOPCALL
POP
ENDF
PUSHW_1
 3
FDEF
DUP
GC[cur]
PUSHB_1
 3
CINDEX
GC[cur]
GT
IF
SWAP
EIF
DUP
ROLL
DUP
ROLL
MD[grid]
ABS
ROLL
DUP
GC[cur]
DUP
ROUND[Grey]
SUB
ABS
PUSHB_1
 4
CINDEX
GC[cur]
DUP
ROUND[Grey]
SUB
ABS
GT
IF
SWAP
NEG
ROLL
EIF
MDAP[rnd]
DUP
PUSHB_1
 0
GTEQ
IF
ROUND[Black]
DUP
PUSHB_1
 0
EQ
IF
POP
PUSHB_1
 64
EIF
ELSE
ROUND[Black]
DUP
PUSHB_1
 0
EQ
IF
POP
PUSHB_1
 64
NEG
EIF
EIF
MSIRP[no-rp0]
ENDF
PUSHW_1
 4
FDEF
DUP
GC[cur]
PUSHB_1
 4

StartChar: .notdef
Encoding: 65536 -1 0
Width: 1300
GlyphClass: 1
Flags: W
LayerCount: 2
Fore
SplineSet
272 1500 m 1,0,-1
 1292 1500 l 1,1,-1
 1027 0 l 1,2,-1
 8 0 l 1,3,-1
 272 1500 l 1,0,-1
125 100 m 1,4,-1
 945 100 l 1,5,-1
 1174 1400 l 1,6,-1
 354 1400 l 1,7,-1
 125 100 l 1,4,-1
EndSplineSet
Validated: 1
EndChar

StartChar: exclam
Encoding: 33 33 2
Width: 1300
GlyphClass: 1
Flags: W
LayerCount: 2
Fore
SplineSet
664 1500 m 1,0,-1
 479 450 l 1,1,-1
 275 429 l 1,2,-1
 464 1500 l 1,3,-1
 664 1500 l 1,0,-1
196 106 m 0,4,5
 196 136 196 136 209 160 c 128,-1,6
 222 184 222 184 243 200 c 128,-1,7
 264 216 264 216 289.5 223.5 c 128,-1,8
 315 231 315 231 339 227 c 256,9,10
 363 223 363 223 381 211 c 128,-1,11
 399 199 399 199 411.5 181.5 c 128,-1,12
 424 164 424 164 430.5 144.5 c 128,-1,13
 437 125 437 125 438 106 c 0,14,15
 439 76 439 76 427.5 51.5 c 128,-1,16
 416 27 416 27 396.5 10.5 c 128,-1,17
 377 -6 377 -6 351 -13.5 c 128,-1,18
 325 -21 325 -21 297 -17 c 0,19,20
 250 -11 250 -11 223 22 c 128,-1,21
 196 55 196 55 196 106 c 0,4,5
EndSplineSet
Validated: 1
EndChar

StartChar: quotedbl
Encoding: 34 34 3
Width: 1300
GlyphClass: 1
Flags: W
LayerCount: 2
Fore
SplineSet
589 1500 m 1,0,-1
 571 1400 l 2,1,2
 565 1362 565 1362 548 1306 c 128,-1,3
 531 1250 531 1250 513 1196 c 0,4,5
 492 1134 492 1134 469 1067 c 1,6,-1
 382 1067 l 1,7,8
 381 1134 381 1134 382 1196 c 0,9,10
 384 1250 384 1250 387 1306 c 128,-1,11
 390 1362 390 1362 396 1400 c 2,12,-1
 414 1500 l 1,13,-1
 589 1500 l 1,0,-1
890 1500 m 1,14,-1
 872 1400 l 2,15,16
 866 1362 866 1362 849 1306 c 128,-1,17
 832 1250 832 1250 814 1196 c 0,18,19
 793 1134 793 1134 770 1067 c 1,20,-1
 683 1067 l 1,21,22
 682 1134 682 1134 683 1196 c 0,23,24
 685 1250 685 1250 688 1306 c 128,-1,25
 691 1362 691 1362 697 1400 c 2,26,-1
 715 1500 l 1,27,-1
 890 1500 l 1,14,-1
EndSplineSet
Validated: 33
EndChar

StartChar: numbersign
Encoding: 35 35 4
Width: 1300
GlyphClass: 1
Flags: W
LayerCount: 2
Fore
SplineSet
1038 950 m 1,0,-1
 917 550 l 1,1,-1
 1189 550 l 1,2,-1
 1143 400 l 1,3,-1
 874 400 l 1,4,-1
 753 0 l 1,5,-1
 549 -20 l 1,6,-1
 677 400 l 1,7,-1
 404 400 l 1,8,-1
 285 0 l 1,9,-1
 82 -20 l 1,10,-1
 207 400 l 1,11,-1
 39 400 l 1,12,-1
 39 550 l 1,13,-1
 250 550 l 1,14,-1
 372 950 l 1,15,-1
 110 950 l 1,16,-1
 156 1100 l 1,17,-1
 415 1100 l 1,18,-1
 472 1285 l 1,19,-1
 510 1500 l 1,20,-1
 739 1520 l 1,21,-1
 612 1100 l 1,22,-1
 885 1100 l 1,23,-1
 1004 1500 l 1,24,-1
 1208 1520 l 1,25,-1
 1083 1100 l 1,26,-1
 1260 1100 l 1,27,-1
 1260 950 l 1,28,-1
 1038 950 l 1,0,-1
840 950 m 1,29,-1
 569 950 l 1,30,-1
 449 550 l 1,31,-1
 720 550 l 1,32,-1
 840 950 l 1,29,-1
EndSplineSet
Validated: 1
EndChar

StartChar: dollar
Encoding: 36 36 5
Width: 1300
GlyphClass: 1
Flags: W
LayerCount: 2
Fore
SplineSet
1090 1252 m 1,0,1
 1036 1295 1036 1295 984.5 1319 c 128,-1,2
 933 1343 933 1343 875 1348 c 1,3,-1
 785 836 l 1,4,5
 839 807 839 807 890.5 773 c 128,-1,6
 942 739 942 739 982.5 692 c 128,-1,7
 1023 645 1023 645 1048 581.5 c 128,-1,8
 1073 518 1073 518 1073 432 c 0,9,10
 1073 340 1073 340 1038.5 264.5 c 128,-1,11
 1004 189 1004 189 944.5 132.5 c 128,-1,12
 885 76 885 76 805.5 39.5 c 128,-1,13
 726 3 726 3 635 -10 c 1,14,-1
 602 -199 l 1,15,-1
 456 -199 l 1,16,-1
 488 -17 l 1,17,-1
 477 -17 l 1,18,19
 359 -9 359 -9 264.5 33 c 128,-1,20
 170 75 170 75 100 134 c 1,21,-1
 218 284 l 1,22,23
 242 262 242 262 271 240 c 128,-1,24
 300 218 300 218 334 199 c 128,-1,25
 368 180 368 180 407.5 166.5 c 128,-1,26
 447 153 447 153 492 148 c 0,27,28
 498 147 498 147 504 146.5 c 128,-1,29
 510 146 510 146 517 146 c 1,30,-1
 616 707 l 1,31,32
 559 738 559 738 503 773.5 c 128,-1,33
 447 809 447 809 402.5 856.5 c 128,-1,34
 358 904 358 904 330.5 967 c 128,-1,35
 303 1030 303 1030 303 1116 c 0,36,37
 303 1207 303 1207 340 1277.5 c 128,-1,38
 377 1348 377 1348 439.5 1397.5 c 128,-1,39
 502 1447 502 1447 584.5 1476 c 128,-1,40
 667 1505 667 1505 758 1513 c 1,41,-1
 791 1701 l 1,42,-1
 941 1721 l 1,43,-1
 904 1512 l 1,44,45
 953 1505 953 1505 997 1490.5 c 128,-1,46
 1041 1476 1041 1476 1079 1457 c 128,-1,47
 1117 1438 1117 1438 1148.5 1415.5 c 128,-1,48
 1180 1393 1180 1393 1206 1371 c 1,49,-1
 1090 1252 l 1,0,1
679 896 m 1,50,-1
 758 1342 l 1,51,52
 706 1332 706 1332 659.5 1311 c 128,-1,53
 613 1290 613 1290 578.5 1259 c 128,-1,54
 544 1228 544 1228 524 1188 c 128,-1,55
 504 1148 504 1148 506 1101 c 0,56,57
 507 1063 507 1063 520.5 1033.5 c 128,-1,58
 534 1004 534 1004 557 979 c 128,-1,59
 580 954 580 954 611 933 c 128,-1,60
 642 912 642 912 677 893 c 1,61,-1
 679 896 l 1,50,-1
869 433 m 0,62,63
 869 470 869 470 857.5 500.5 c 128,-1,64
 846 531 846 531 826 556.5 c 128,-1,65
 806 582 806 582 779 604 c 128,-1,66
 752 626 752 626 721 646 c 1,67,-1
 635 157 l 1,68,69
 680 168 680 168 722.5 190 c 128,-1,70
 765 212 765 212 797.5 246 c 128,-1,71
 830 280 830 280 849.5 326.5 c 128,-1,72
 869 373 869 373 869 433 c 0,62,63
EndSplineSet
Validated: 33
EndChar

StartChar: percent
Encoding: 37 37 6
Width: 1300
GlyphClass: 1
Flags: W
LayerCount: 2
Fore
SplineSet
272 0 m 1,0,-1
 86 0 l 1,1,-1
 1027 1500 l 1,2,-1
 1213 1500 l 1,3,-1
 272 0 l 1,0,-1
327 800 m 0,4,5
 257 800 257 800 212.5 827.5 c 128,-1,6
 168 855 168 855 145.5 903.5 c 128,-1,7
 123 952 123 952 120.5 1018.5 c 128,-1,8
 118 1085 118 1085 132 1162 c 0,9,10
 145 1238 145 1238 170 1303.5 c 128,-1,11
 195 1369 195 1369 234 1416 c 128,-1,12
 273 1463 273 1463 327 1490 c 128,-1,13
 381 1517 381 1517 454 1517 c 0,14,15
 524 1517 524 1517 568 1490 c 128,-1,16
 612 1463 612 1463 634.5 1416 c 128,-1,17
 657 1369 657 1369 659.5 1303.5 c 128,-1,18
 662 1238 662 1238 649 1162 c 0,19,20
 635 1085 635 1085 610 1018.5 c 128,-1,21
 585 952 585 952 546 903.5 c 128,-1,22
 507 855 507 855 453 827.5 c 128,-1,23
 399 800 399 800 327 800 c 0,4,5
509 1210 m 2,24,25
 515 1245 515 1245 517.5 1277 c 128,-1,26
 520 1309 520 1309 513.5 1333 c 128,-1,27
 507 1357 507 1357 487.5 1371.5 c 128,-1,28
 468 1386 468 1386 430 1386 c 0,29,30
 393 1386 393 1386 369.5 1373 c 128,-1,31
 346 1360 346 1360 331.5 1338 c 128,-1,32
 317 1316 317 1316 309 1286.5 c 128,-1,33
 301 1257 301 1257 295 1224 c 2,34,-1
 277 1123 l 2,35,36
 271 1087 271 1087 268 1054.5 c 128,-1,37
 265 1022 265 1022 272 997.5 c 128,-1,38
 279 973 279 973 299 958.5 c 128,-1,39
 319 944 319 944 357 944 c 0,40,41
 393 944 393 944 416.5 957 c 128,-1,42
 440 970 440 970 454.5 992 c 128,-1,43
 469 1014 469 1014 476.5 1043.5 c 128,-1,44
 484 1073 484 1073 490 1105 c 2,45,-1
 509 1210 l 2,24,25
846 -17 m 0,46,47
 776 -17 776 -17 731.5 10.5 c 128,-1,48
 687 38 687 38 664.5 86.5 c 128,-1,49
 642 135 642 135 639.5 201.5 c 128,-1,50
 637 268 637 268 651 345 c 0,51,52
 664 421 664 421 689 486.5 c 128,-1,53
 714 552 714 552 753 599 c 128,-1,54
 792 646 792 646 846 673 c 128,-1,55
 900 700 900 700 973 700 c 0,56,57
 1043 700 1043 700 1087 673 c 128,-1,58
 1131 646 1131 646 1153.5 599 c 128,-1,59
 1176 552 1176 552 1178.5 486.5 c 128,-1,60
 1181 421 1181 421 1168 345 c 0,61,62
 1154 268 1154 268 1129 201.5 c 128,-1,63
 1104 135 1104 135 1065 86.5 c 128,-1,64
 1026 38 1026 38 972 10.5 c 128,-1,65
 918 -17 918 -17 846 -17 c 0,46,47
1028 393 m 2,66,67
 1034 428 1034 428 1036.5 460 c 128,-1,68
 1039 492 1039 492 1032.5 516 c 128,-1,69
 1026 540 1026 540 1006.5 554.5 c 128,-1,70
 987 569 987 569 949 569 c 0,71,72
 912 569 912 569 888.5 556 c 128,-1,73
 865 543 865 543 850.5 521 c 128,-1,74
 836 499 836 499 828 469.5 c 128,-1,75
 820 440 820 440 814 407 c 2,76,-1
 796 306 l 2,77,78
 790 270 790 270 787 237.5 c 128,-1,79
 784 205 784 205 791 180.5 c 128,-1,80
 798 156 798 156 818 141.5 c 128,-1,81
 838 127 838 127 876 127 c 0,82,83
 912 127 912 127 935.5 140 c 128,-1,84
 959 153 959 153 973.5 175 c 128,-1,85
 988 197 988 197 995.5 226.5 c 128,-1,86
 1003 256 1003 256 1009 288 c 2,87,-1
 1028 393 l 2,66,67
EndSplineSet
Validated: 33
EndChar

StartChar: ampersand
Encoding: 38 38 7
Width: 1300
GlyphClass: 1
Flags: W
LayerCount: 2
Fore
SplineSet
1221 721 m 1,0,1
 1207 642 1207 642 1185.5 562.5 c 128,-1,2
 1164 483 1164 483 1129.5 408 c 128,-1,3
 1095 333 1095 333 1045 265 c 128,-1,4
 995 197 995 197 925 141 c 1,5,-1
 1017 141 l 1,6,-1
 1109 -20 l 1,7,-1
 887 -20 l 1,8,-1
 828 77 l 1,9,10
 743 27 743 27 651.5 5 c 128,-1,11
 560 -17 560 -17 464 -17 c 0,12,13
 361 -17 361 -17 284.5 20.5 c 128,-1,14
 208 58 208 58 161 122 c 128,-1,15
 114 186 114 186 97 270 c 128,-1,16
 80 354 80 354 96 447 c 0,17,18
 113 542 113 542 151.5 615.5 c 128,-1,19
 190 689 190 689 239 742.5 c 128,-1,20
 288 796 288 796 341.5 830 c 128,-1,21
 395 864 395 864 442 881 c 1,22,23
 428 909 428 909 415 945.5 c 128,-1,24
 402 982 402 982 393 1021 c 128,-1,25
 384 1060 384 1060 381.5 1100 c 128,-1,26
 379 1140 379 1140 385 1176 c 0,27,28
 398 1248 398 1248 428.5 1310 c 128,-1,29
 459 1372 459 1372 510 1418 c 128,-1,30
 561 1464 561 1464 633.5 1490.5 c 128,-1,31
 706 1517 706 1517 802 1517 c 0,32,33
 868 1517 868 1517 917.5 1499.5 c 128,-1,34
 967 1482 967 1482 1003.5 1455.5 c 128,-1,35
 1040 1429 1040 1429 1066 1397.5 c 128,-1,36
 1092 1366 1092 1366 1110 1338 c 1,37,-1
 1006 1200 l 1,38,39
 995 1226 995 1226 977 1254 c 128,-1,40
 959 1282 959 1282 930.5 1305.5 c 128,-1,41
 902 1329 902 1329 861.5 1344 c 128,-1,42
 821 1359 821 1359 766 1359 c 0,43,44
 718 1359 718 1359 682.5 1340 c 128,-1,45
 647 1321 647 1321 622 1293 c 128,-1,46
 597 1265 597 1265 582.5 1233 c 128,-1,47
 568 1201 568 1201 564 1175 c 0,48,49
 562 1161 562 1161 561.5 1145.5 c 128,-1,50
 561 1130 561 1130 563 1112 c 0,51,52
 564 1097 564 1097 571.5 1074 c 128,-1,53
 579 1051 579 1051 594 1013.5 c 128,-1,54
 609 976 609 976 633.5 920.5 c 128,-1,55
 658 865 658 865 693 785.5 c 128,-1,56
 728 706 728 706 776 599 c 128,-1,57
 824 492 824 492 886 352 c 1,58,59
 916 386 916 386 937 423 c 128,-1,60
 958 460 958 460 973.5 502 c 128,-1,61
 989 544 989 544 1000.5 592.5 c 128,-1,62
 1012 641 1012 641 1023 700 c 1,63,-1
 1221 721 l 1,0,1
466 700 m 1,64,65
 398 671 398 671 351 612 c 128,-1,66
 304 553 304 553 287 457 c 0,67,68
 274 385 274 385 290.5 331 c 128,-1,69
 307 277 307 277 341.5 241 c 128,-1,70
 376 205 376 205 423 187.5 c 128,-1,71
 470 170 470 170 520 170 c 0,72,73
 563 170 563 170 596.5 175 c 128,-1,74
 630 180 630 180 657 188.5 c 128,-1,75
 684 197 684 197 705.5 208.5 c 128,-1,76
 727 220 727 220 746 234 c 1,77,-1
 484 800 l 1,78,-1
 466 700 l 1,64,65
EndSplineSet
Validated: 33
EndChar

StartChar: quotesingle
Encoding: 39 39 8
Width: 1300
GlyphClass: 1
Flags: W
LayerCount: 2
Fore
SplineSet
414 1500 m 1,0,-1
 589 1500 l 1,1,-1
 571 1400 l 2,2,3
 558 1326 558 1326 507.5 1240.5 c 128,-1,4
 457 1155 457 1155 372 1067 c 1,5,-1
 328 1067 l 1,6,7
 343 1143 343 1143 358 1209 c 0,8,9
 364 1237 364 1237 369.5 1266 c 128,-1,10
 375 1295 375 1295 380.5 1320.5 c 128,-1,11
 386 1346 386 1346 390 1367 c 128,-1,12
 394 1388 394 1388 396 1400 c 2,13,-1
 414 1500 l 1,0,-1
EndSplineSet
Validated: 1
EndChar

StartChar: parenleft
Encoding: 40 40 9
Width: 1300
GlyphClass: 1
Flags: W
LayerCount: 2
Fore
SplineSet
408 1180 m 2,0,1
 429 1300 429 1300 453 1381 c 128,-1,2
 477 1462 477 1462 516 1510.5 c 128,-1,3
 555 1559 555 1559 616.5 1579.5 c 128,-1,4
 678 1600 678 1600 776 1600 c 0,5,6
 795 1600 795 1600 815.5 1598.5 c 128,-1,7
 836 1597 836 1597 854 1593.5 c 128,-1,8
 872 1590 872 1590 887 1585.5 c 128,-1,9
 902 1581 902 1581 910 1575 c 1,10,-1
 819 1449 l 1,11,-1
 805 1451 l 2,12,13
 799 1452 799 1452 790 1453 c 128,-1,14
 781 1454 781 1454 770 1454 c 0,15,16
 715 1454 715 1454 686 1433 c 128,-1,17
 657 1412 657 1412 642 1376 c 128,-1,18
 627 1340 627 1340 620 1293 c 128,-1,19
 613 1246 613 1246 604 1194 c 2,20,-1
 391 -14 l 2,21,22
 382 -66 382 -66 373 -113 c 128,-1,23
 364 -160 364 -160 367 -195.5 c 128,-1,24
 370 -231 370 -231 391.5 -252.5 c 128,-1,25
 413 -274 413 -274 465 -274 c 0,26,27
 476 -274 476 -274 485 -273.5 c 128,-1,28
 494 -273 494 -273 502 -272 c 2,29,-1
 516 -269 l 1,30,-1
 563 -395 l 1,31,32
 552 -401 552 -401 535.5 -406 c 128,-1,33
 519 -411 519 -411 499.5 -415 c 128,-1,34
 480 -419 480 -419 459 -420.5 c 128,-1,35
 438 -422 438 -422 419 -420 c 0,36,37
 350 -415 350 -415 304.5 -396 c 128,-1,38
 259 -377 259 -377 232 -347 c 128,-1,39
 205 -317 205 -317 193.5 -277.5 c 128,-1,40
 182 -238 182 -238 180.5 -193 c 128,-1,41
 179 -148 179 -148 185 -98.5 c 128,-1,42
 191 -49 191 -49 200 0 c 2,43,-1
 408 1180 l 2,0,1
EndSplineSet
Validated: 33
EndChar

StartChar: parenright
Encoding: 41 41 10
Width: 1300
GlyphClass: 1
Flags: W
LayerCount: 2
Fore
SplineSet
650 0 m 2,0,1
 638 -67 638 -67 627.5 -124.5 c 128,-1,2
 617 -182 617 -182 601.5 -229 c 128,-1,3
 586 -276 586 -276 562.5 -312 c 128,-1,4
 539 -348 539 -348 502 -372 c 128,-1,5
 465 -396 465 -396 411 -408.5 c 128,-1,6
 357 -421 357 -421 281 -420 c 0,7,8
 261 -420 261 -420 241 -418 c 128,-1,9
 221 -416 221 -416 203 -413 c 128,-1,10
 185 -410 185 -410 170 -405.5 c 128,-1,11
 155 -401 155 -401 147 -395 c 1,12,-1
 238 -269 l 1,13,-1
 252 -272 l 2,14,15
 258 -273 258 -273 267 -273.5 c 128,-1,16
 276 -274 276 -274 287 -274 c 0,17,18
 338 -274 338 -274 367 -252.5 c 128,-1,19
 396 -231 396 -231 412 -195.5 c 128,-1,20
 428 -160 428 -160 436 -113 c 128,-1,21
 444 -66 444 -66 453 -14 c 2,22,-1
 666 1194 l 2,23,24
 675 1246 675 1246 681.5 1292.5 c 128,-1,25
 688 1339 688 1339 683 1374 c 128,-1,26
 678 1409 678 1409 657.5 1430.5 c 128,-1,27
 637 1452 637 1452 592 1454 c 0,28,29
 581 1455 581 1455 572 1453.5 c 128,-1,30
 563 1452 563 1452 555 1451 c 2,31,-1
 541 1449 l 1,32,-1
 494 1575 l 1,33,34
 504 1581 504 1581 520.5 1585.5 c 128,-1,35
 537 1590 537 1590 556.5 1593.5 c 128,-1,36
 576 1597 576 1597 597 1598.5 c 128,-1,37
 618 1600 618 1600 638 1600 c 0,38,39
 731 1600 731 1600 783 1566.5 c 128,-1,40
 835 1533 835 1533 856.5 1475.5 c 128,-1,41
 878 1418 878 1418 875.5 1341.5 c 128,-1,42
 873 1265 873 1265 858 1180 c 2,43,-1
 650 0 l 2,0,1
EndSplineSet
Validated: 33
EndChar

StartChar: asterisk
Encoding: 42 42 11
Width: 1300
GlyphClass: 1
Flags: W
LayerCount: 2
Fore
SplineSet
706 994 m 1,0,-1
 812 802 l 1,1,-1
 697 712 l 1,2,-1
 584 918 l 1,3,-1
 573 990 l 1,4,-1
 536 918 l 1,5,-1
 363 726 l 1,6,-1
 258 793 l 1,7,-1
 442 996 l 1,8,-1
 515 1041 l 1,9,-1
 435 1045 l 1,10,-1
 225 1118 l 1,11,-1
 275 1249 l 1,12,-1
 499 1172 l 1,13,-1
 556 1120 l 1,14,-1
 548 1202 l 1,15,-1
 590 1436 l 1,16,-1
 725 1450 l 1,17,-1
 681 1198 l 1,18,-1
 641 1118 l 1,19,-1
 715 1168 l 1,20,-1
 953 1240 l 1,21,-1
 986 1118 l 1,22,-1
 730 1040 l 1,23,-1
 650 1037 l 1,24,-1
 706 994 l 1,0,-1
EndSplineSet
Validated: 1
EndChar

StartChar: plus
Encoding: 43 43 12
Width: 1300
GlyphClass: 1
Flags: W
LayerCount: 2
Fore
SplineSet
223 700 m 1,0,-1
 596 700 l 1,1,-1
 671 1123 l 1,2,-1
 826 1123 l 1,3,-1
 751 700 l 1,4,-1
 1123 700 l 1,5,-1
 1096 545 l 1,6,-1
 724 545 l 1,7,-1
 649 122 l 1,8,-1
 494 122 l 1,9,-1
 569 545 l 1,10,-1
 196 545 l 1,11,-1
 223 700 l 1,0,-1
EndSplineSet
Validated: 1
EndChar

StartChar: comma
Encoding: 44 44 13
Width: 1300
VWidth: 2706
GlyphClass: 1
Flags: W
LayerCount: 2
Fore
SplineSet
328.612304688 177.75 m 0,0,1
 335.362304688 216.900390625 335.362304688 216.900390625 357.637695312 252.674804688 c 128,-1,2
 379.912109375 288.450195312 379.912109375 288.450195312 411.637695312 314.099609375 c 128,-1,3
 443.362304688 339.75 443.362304688 339.75 482.512695312 355.950195312 c 128,-1,4
 521.662109375 372.150390625 521.662109375 372.150390625 562.162109375 372.150390625 c 0,5,6
 601.3125 372.150390625 601.3125 372.150390625 635.0625 357.974609375 c 128,-1,7
 668.8125 343.799804688 668.8125 343.799804688 691.762695312 316.799804688 c 128,-1,8
 714.712890625 289.799804688 714.712890625 289.799804688 724.162109375 248.625 c 128,-1,9
 733.612304688 207.450195312 733.612304688 207.450195312 724.162109375 154.799804688 c 0,10,11
 712.012695312 83.25 712.012695312 83.25 691.087890625 16.4248046875 c 128,-1,12
 670.162109375 -50.400390625 670.162109375 -50.400390625 630.337890625 -119.25 c 128,-1,13
 590.512695312 -188.099609375 590.512695312 -188.099609375 527.0625 -259.650390625 c 128,-1,14
 463.612304688 -331.200195312 463.612304688 -331.200195312 366.412109375 -408.150390625 c 1,15,-1
 301.612304688 -377.099609375 l 1,16,17
 342.112304688 -317.700195312 342.112304688 -317.700195312 378.5625 -254.25 c 0,18,19
 408.262695312 -201.599609375 408.262695312 -201.599609375 435.9375 -138.825195312 c 128,-1,20
 463.612304688 -76.0498046875 463.612304688 -76.0498046875 474.412109375 -16.650390625 c 1,21,22
 440.662109375 -15.2998046875 440.662109375 -15.2998046875 410.287109375 -1.7998046875 c 128,-1,23
 379.912109375 11.7001953125 379.912109375 11.7001953125 358.987304688 35.3251953125 c 128,-1,24
 338.0625 58.9501953125 338.0625 58.9501953125 329.287109375 95.400390625 c 128,-1,25
 320.512695312 131.849609375 320.512695312 131.849609375 328.612304688 177.75 c 0,0,1
EndSplineSet
Validated: 524321
EndChar

StartChar: hyphen
Encoding: 45 45 14
Width: 1300
GlyphClass: 1
Flags: W
LayerCount: 2
Fore
SplineSet
300 600 m 1,0,-1
 800 600 l 1,1,-1
 773 445 l 1,2,-1
 273 445 l 1,3,-1
 300 600 l 1,0,-1
EndSplineSet
Validated: 1
EndChar

StartChar: period
Encoding: 46 46 15
Width: 1300
VWidth: 2647
GlyphClass: 1
Flags: W
LayerCount: 2
Fore
SplineSet
299.44140625 150.349609375 m 256,0,1
 307.541992188 196.25 307.541992188 196.25 331.841796875 236.75 c 128,-1,2
 356.141601562 277.25 356.141601562 277.25 391.916992188 307.625 c 128,-1,3
 427.69140625 338 427.69140625 338 470.891601562 355.549804688 c 128,-1,4
 514.091796875 373.099609375 514.091796875 373.099609375 559.991210938 373.099609375 c 256,5,6
 605.891601562 373.099609375 605.891601562 373.099609375 643.016601562 355.549804688 c 128,-1,7
 680.141601562 338 680.141601562 338 705.116210938 307.625 c 128,-1,8
 730.091796875 277.25 730.091796875 277.25 740.891601562 236.75 c 128,-1,9
 751.69140625 196.25 751.69140625 196.25 743.591796875 150.349609375 c 256,10,11
 735.491210938 104.450195312 735.491210938 104.450195312 710.516601562 63.275390625 c 128,-1,12
 685.541992188 22.099609375 685.541992188 22.099609375 650.44140625 -8.275390625 c 128,-1,13
 615.341796875 -38.650390625 615.341796875 -38.650390625 572.141601562 -56.875 c 128,-1,14
 528.94140625 -75.099609375 528.94140625 -75.099609375 483.041992188 -75.099609375 c 256,15,16
 437.141601562 -75.099609375 437.141601562 -75.099609375 399.341796875 -56.875 c 128,-1,17
 361.541992188 -38.650390625 361.541992188 -38.650390625 336.56640625 -8.275390625 c 128,-1,18
 311.591796875 22.099609375 311.591796875 22.099609375 301.466796875 63.275390625 c 128,-1,19
 291.341796875 104.450195312 291.341796875 104.450195312 299.44140625 150.349609375 c 256,0,1
EndSplineSet
Validated: 524321
EndChar

StartChar: slash
Encoding: 47 47 16
Width: 1300
GlyphClass: 1
Flags: W
LayerCount: 2
Fore
SplineSet
257 -100 m 1,0,-1
 47 -100 l 1,1,-1
 1057 1600 l 1,2,-1
 1257 1600 l 1,3,-1
 257 -100 l 1,0,-1
EndSplineSet
Validated: 1
EndChar

StartChar: zero
Encoding: 48 48 17
Width: 1300
GlyphClass: 1
Flags: W
LayerCount: 2
Fore
SplineSet
513 -17 m 0,0,1
 428 -17 428 -17 363 15.5 c 128,-1,2
 298 48 298 48 251 104 c 128,-1,3
 204 160 204 160 175 235 c 128,-1,4
 146 310 146 310 133 395.5 c 128,-1,5
 120 481 120 481 121.5 572 c 128,-1,6
 123 663 123 663 139 750 c 0,7,8
 155 840 155 840 183 932 c 128,-1,9
 211 1024 211 1024 252 1109 c 128,-1,10
 293 1194 293 1194 346.5 1268.5 c 128,-1,11
 400 1343 400 1343 466.5 1398 c 128,-1,12
 533 1453 533 1453 612 1485 c 128,-1,13
 691 1517 691 1517 784 1517 c 0,14,15
 869 1517 869 1517 934 1484.5 c 128,-1,16
 999 1452 999 1452 1046 1396 c 128,-1,17
 1093 1340 1093 1340 1122 1265 c 128,-1,18
 1151 1190 1151 1190 1164.5 1104.5 c 128,-1,19
 1178 1019 1178 1019 1176 928 c 128,-1,20
 1174 837 1174 837 1159 750 c 0,21,22
 1143 660 1143 660 1114.5 568 c 128,-1,23
 1086 476 1086 476 1045 391 c 128,-1,24
 1004 306 1004 306 950.5 231.5 c 128,-1,25
 897 157 897 157 830.5 102 c 128,-1,26
 764 47 764 47 684.5 15 c 128,-1,27
 605 -17 605 -17 513 -17 c 0,0,1
552 157 m 0,28,29
 614 157 614 157 664 180.5 c 128,-1,30
 714 204 714 204 754.5 244 c 128,-1,31
 795 284 795 284 826 338 c 128,-1,32
 857 392 857 392 880 453 c 128,-1,33
 903 514 903 514 919.5 579 c 128,-1,34
 936 644 936 644 947 707 c 0,35,36
 953 741 953 741 957.5 771.5 c 128,-1,37
 962 802 962 802 965.5 833 c 128,-1,38
 969 864 969 864 971 896 c 128,-1,39
 973 928 973 928 974 965 c 1,40,-1
 1043 1182 l 1,41,-1
 362 277 l 1,42,43
 388 220 388 220 433 188.5 c 128,-1,44
 478 157 478 157 552 157 c 0,28,29
745 1341 m 0,45,46
 683 1341 683 1341 633 1318 c 128,-1,47
 583 1295 583 1295 542.5 1255 c 128,-1,48
 502 1215 502 1215 471 1161.5 c 128,-1,49
 440 1108 440 1108 417 1047 c 128,-1,50
 394 986 394 986 377.5 921 c 128,-1,51
 361 856 361 856 350 793 c 0,52,53
 338 725 338 725 331.5 665.5 c 128,-1,54
 325 606 325 606 323 532 c 1,55,-1
 256 320 l 1,56,-1
 934 1221 l 1,57,58
 908 1278 908 1278 862.5 1309.5 c 128,-1,59
 817 1341 817 1341 745 1341 c 0,45,46
EndSplineSet
EndChar

StartChar: one
Encoding: 49 49 18
Width: 1300
GlyphClass: 1
Flags: W
LayerCount: 2
Fore
SplineSet
268 0 m 1,0,-1
 296 160 l 1,1,-1
 541 160 l 1,2,-1
 711 1126 l 1,3,-1
 809 1353 l 1,4,-1
 640 1167 l 1,5,-1
 395 979 l 1,6,-1
 308 1100 l 1,7,-1
 841 1520 l 1,8,-1
 977 1500 l 1,9,-1
 741 160 l 1,10,-1
 986 160 l 1,11,-1
 958 0 l 1,12,-1
 268 0 l 1,0,-1
EndSplineSet
Validated: 1
EndChar

StartChar: two
Encoding: 50 50 19
Width: 1300
GlyphClass: 1
Flags: W
LayerCount: 2
Fore
SplineSet
71 0 m 1,0,-1
 100 168 l 1,1,2
 169 266 169 266 240.5 347 c 128,-1,3
 312 428 312 428 384 497 c 128,-1,4
 456 566 456 566 527 625.5 c 128,-1,5
 598 685 598 685 665 739 c 0,6,7
 725 787 725 787 779 833.5 c 128,-1,8
 833 880 833 880 874 926.5 c 128,-1,9
 915 973 915 973 939 1021.5 c 128,-1,10
 963 1070 963 1070 963 1123 c 0,11,12
 963 1177 963 1177 949 1220 c 128,-1,13
 935 1263 935 1263 903.5 1292 c 128,-1,14
 872 1321 872 1321 822 1336.5 c 128,-1,15
 772 1352 772 1352 699 1352 c 0,16,17
 651 1352 651 1352 610.5 1335.5 c 128,-1,18
 570 1319 570 1319 536 1292 c 128,-1,19
 502 1265 502 1265 474.5 1230.5 c 128,-1,20
 447 1196 447 1196 426 1160 c 1,21,-1
 296 1220 l 1,22,23
 362 1362 362 1362 480 1439.5 c 128,-1,24
 598 1517 598 1517 752 1517 c 2,25,-1
 771 1517 l 2,26,27
 781 1517 781 1517 791 1516 c 0,28,29
 882 1510 882 1510 948.5 1475 c 128,-1,30
 1015 1440 1015 1440 1058.5 1386 c 128,-1,31
 1102 1332 1102 1332 1123 1265 c 128,-1,32
 1144 1198 1144 1198 1144 1128 c 0,33,34
 1144 1122 1144 1122 1143.5 1116 c 128,-1,35
 1143 1110 1143 1110 1143 1104 c 0,36,37
 1139 1025 1139 1025 1101.5 956.5 c 128,-1,38
 1064 888 1064 888 1010 827 c 128,-1,39
 956 766 956 766 892.5 712 c 128,-1,40
 829 658 829 658 772 607 c 0,41,42
 700 542 700 542 635.5 485 c 128,-1,43
 571 428 571 428 515.5 374 c 128,-1,44
 460 320 460 320 414 267.5 c 128,-1,45
 368 215 368 215 333 160 c 1,46,-1
 1003 160 l 1,47,-1
 975 0 l 1,48,-1
 71 0 l 1,0,-1
EndSplineSet
Validated: 1
EndChar

StartChar: three
Encoding: 51 51 20
Width: 1300
GlyphClass: 1
Flags: W
LayerCount: 2
Fore
SplineSet
371 1340 m 1,0,-1
 414 1500 l 1,1,-1
 1144 1500 l 1,2,-1
 1119 1360 l 1,3,4
 1100 1320 1100 1320 1064 1276.5 c 128,-1,5
 1028 1233 1028 1233 981.5 1189 c 128,-1,6
 935 1145 935 1145 882 1101.5 c 128,-1,7
 829 1058 829 1058 776 1019 c 1,8,-1
 631 948 l 1,9,-1
 702 948 l 2,10,11
 769 948 769 948 834.5 923 c 128,-1,12
 900 898 900 898 952 852 c 128,-1,13
 1004 806 1004 806 1036 741 c 128,-1,14
 1068 676 1068 676 1068 597 c 0,15,16
 1068 485 1068 485 1027.5 397 c 128,-1,17
 987 309 987 309 917.5 242.5 c 128,-1,18
 848 176 848 176 755 130 c 128,-1,19
 662 84 662 84 557 55 c 128,-1,20
 452 26 452 26 339.5 13 c 128,-1,21
 227 0 227 0 120 0 c 1,22,-1
 148 160 l 1,23,24
 227 161 227 161 310.5 173 c 128,-1,25
 394 185 394 185 473.5 207.5 c 128,-1,26
 553 230 553 230 623.5 262.5 c 128,-1,27
 694 295 694 295 747.5 337 c 128,-1,28
 801 379 801 379 832 430.5 c 128,-1,29
 863 482 863 482 863 543 c 0,30,31
 863 606 863 606 840 653 c 128,-1,32
 817 700 817 700 775 730.5 c 128,-1,33
 733 761 733 761 674.5 776 c 128,-1,34
 616 791 616 791 546 791 c 0,35,36
 501 791 501 791 458 790 c 128,-1,37
 415 789 415 789 373 786 c 1,38,-1
 400 940 l 1,39,40
 446 970 446 970 501 1008 c 128,-1,41
 556 1046 556 1046 613 1087.5 c 128,-1,42
 670 1129 670 1129 724.5 1171.5 c 128,-1,43
 779 1214 779 1214 824.5 1252.5 c 128,-1,44
 870 1291 870 1291 902 1324.5 c 128,-1,45
 934 1358 934 1358 946 1380 c 1,46,-1
 787 1340 l 1,47,-1
 371 1340 l 1,0,-1
EndSplineSet
Validated: 1
EndChar

StartChar: four
Encoding: 52 52 21
Width: 1300
GlyphClass: 1
Flags: W
LayerCount: 2
Fore
SplineSet
1107 300 m 1,0,-1
 927 300 l 1,1,-1
 875 0 l 1,2,-1
 675 0 l 1,3,-1
 727 300 l 1,4,-1
 132 300 l 1,5,-1
 163 471 l 1,6,-1
 832 1520 l 1,7,-1
 1017 1500 l 1,8,-1
 443 600 l 1,9,-1
 326 460 l 1,10,-1
 756 460 l 1,11,-1
 827 867 l 1,12,-1
 1024 850 l 1,13,-1
 956 460 l 1,14,-1
 1151 460 l 1,15,-1
 1107 300 l 1,0,-1
EndSplineSet
Validated: 1
EndChar

StartChar: five
Encoding: 53 53 22
Width: 1300
GlyphClass: 1
Flags: W
LayerCount: 2
Fore
SplineSet
492 982 m 1,0,-1
 518 995 l 2,1,2
 536 1004 536 1004 560 1013 c 128,-1,3
 584 1022 584 1022 611.5 1028.5 c 128,-1,4
 639 1035 639 1035 666 1035 c 0,5,6
 769 1035 769 1035 843.5 1006 c 128,-1,7
 918 977 918 977 966 926 c 128,-1,8
 1014 875 1014 875 1037 805.5 c 128,-1,9
 1060 736 1060 736 1060 655 c 0,10,11
 1060 539 1060 539 1022.5 446 c 128,-1,12
 985 353 985 353 919.5 280 c 128,-1,13
 854 207 854 207 764.5 154 c 128,-1,14
 675 101 675 101 570.5 67 c 128,-1,15
 466 33 466 33 351.5 16.5 c 128,-1,16
 237 0 237 0 121 0 c 1,17,-1
 149 160 l 1,18,19
 245 160 245 160 335 175.5 c 128,-1,20
 425 191 425 191 504 219 c 128,-1,21
 583 247 583 247 649 287 c 128,-1,22
 715 327 715 327 762 378 c 128,-1,23
 809 429 809 429 835 489.5 c 128,-1,24
 861 550 861 550 861 619 c 0,25,26
 861 668 861 668 844 712.5 c 128,-1,27
 827 757 827 757 795 791 c 128,-1,28
 763 825 763 825 718 845.5 c 128,-1,29
 673 866 673 866 618 866 c 0,30,31
 536 866 536 866 479.5 849 c 128,-1,32
 423 832 423 832 376 800 c 1,33,-1
 262 800 l 1,34,-1
 385 1500 l 1,35,-1
 1128 1500 l 1,36,-1
 1100 1340 l 1,37,-1
 555 1340 l 1,38,-1
 492 982 l 1,0,-1
EndSplineSet
Validated: 1
EndChar

StartChar: six
Encoding: 54 54 23
Width: 1300
GlyphClass: 1
Flags: W
LayerCount: 2
Fore
SplineSet
1065 1344 m 1,0,1
 1059 1346 1059 1346 1045.5 1346.5 c 128,-1,2
 1032 1347 1032 1347 1021 1347 c 0,3,4
 933 1347 933 1347 855.5 1324.5 c 128,-1,5
 778 1302 778 1302 711 1261 c 128,-1,6
 644 1220 644 1220 587.5 1163 c 128,-1,7
 531 1106 531 1106 485.5 1037.5 c 128,-1,8
 440 969 440 969 405.5 891 c 128,-1,9
 371 813 371 813 348 730 c 1,10,-1
 452 847 l 1,11,12
 478 862 478 862 511 876.5 c 128,-1,13
 544 891 544 891 580 902.5 c 128,-1,14
 616 914 616 914 652.5 921 c 128,-1,15
 689 928 689 928 722 928 c 0,16,17
 808 928 808 928 879.5 906 c 128,-1,18
 951 884 951 884 1002 837 c 128,-1,19
 1053 790 1053 790 1081.5 717 c 128,-1,20
 1110 644 1110 644 1110 541 c 0,21,22
 1110 429 1110 429 1067 327.5 c 128,-1,23
 1024 226 1024 226 950 149 c 128,-1,24
 876 72 876 72 776.5 26.5 c 128,-1,25
 677 -19 677 -19 565 -19 c 0,26,27
 554 -19 554 -19 544 -18.5 c 128,-1,28
 534 -18 534 -18 523 -17 c 0,29,30
 445 -11 445 -11 385.5 16.5 c 128,-1,31
 326 44 326 44 283 85.5 c 128,-1,32
 240 127 240 127 211.5 180.5 c 128,-1,33
 183 234 183 234 166 293 c 128,-1,34
 149 352 149 352 142 412.5 c 128,-1,35
 135 473 135 473 135 530 c 0,36,37
 135 658 135 658 166.5 781 c 128,-1,38
 198 904 198 904 256.5 1013.5 c 128,-1,39
 315 1123 315 1123 398 1215.5 c 128,-1,40
 481 1308 481 1308 584 1375 c 128,-1,41
 687 1442 687 1442 807 1479.5 c 128,-1,42
 927 1517 927 1517 1060 1517 c 0,43,44
 1075 1517 1075 1517 1093 1516.5 c 128,-1,45
 1111 1516 1111 1516 1120 1514 c 1,46,-1
 1065 1344 l 1,0,1
328 597 m 1,47,48
 321 559 321 559 320 529 c 128,-1,49
 319 499 319 499 319 469 c 0,50,51
 319 406 319 406 334 352 c 128,-1,52
 349 298 349 298 379 256.5 c 128,-1,53
 409 215 409 215 453 188 c 128,-1,54
 497 161 497 161 555 153 c 0,55,56
 576 150 576 150 596 150 c 0,57,58
 659 150 659 150 716 178.5 c 128,-1,59
 773 207 773 207 816.5 258 c 128,-1,60
 860 309 860 309 885.5 378.5 c 128,-1,61
 911 448 911 448 911 530 c 0,62,63
 911 590 911 590 889.5 633.5 c 128,-1,64
 868 677 868 677 832 704.5 c 128,-1,65
 796 732 796 732 749 745.5 c 128,-1,66
 702 759 702 759 651 759 c 0,67,68
 553 759 553 759 470.5 718.5 c 128,-1,69
 388 678 388 678 328 597 c 1,47,48
EndSplineSet
Validated: 1
EndChar

StartChar: seven
Encoding: 55 55 24
Width: 1300
GlyphClass: 1
Flags: W
LayerCount: 2
Fore
SplineSet
264 1500 m 1,0,-1
 1157 1500 l 1,1,-1
 1134 1370 l 2,2,3
 1126 1328 1126 1328 1082.5 1265.5 c 128,-1,4
 1039 1203 1039 1203 975 1124.5 c 128,-1,5
 911 1046 911 1046 835 953.5 c 128,-1,6
 759 861 759 861 687.5 759 c 128,-1,7
 616 657 616 657 557.5 548.5 c 128,-1,8
 499 440 499 440 469 329 c 0,9,10
 458 288 458 288 447.5 244 c 128,-1,11
 437 200 437 200 428 157.5 c 128,-1,12
 419 115 419 115 411.5 74.5 c 128,-1,13
 404 34 404 34 398 0 c 1,14,-1
 200 0 l 1,15,16
 205 30 205 30 215 80 c 128,-1,17
 225 130 225 130 237.5 186 c 128,-1,18
 250 242 250 242 264 297 c 128,-1,19
 278 352 278 352 291 392 c 0,20,21
 326 501 326 501 382 605.5 c 128,-1,22
 438 710 438 710 503.5 805.5 c 128,-1,23
 569 901 569 901 636.5 985 c 128,-1,24
 704 1069 704 1069 762 1138 c 128,-1,25
 820 1207 820 1207 861.5 1258.5 c 128,-1,26
 903 1310 903 1310 915 1340 c 1,27,-1
 236 1340 l 1,28,-1
 264 1500 l 1,0,-1
EndSplineSet
Validated: 1
EndChar

StartChar: eight
Encoding: 56 56 25
Width: 1300
GlyphClass: 1
Flags: W
LayerCount: 2
Fore
SplineSet
798 1517 m 2,0,1
 879 1514 879 1514 944.5 1491.5 c 128,-1,2
 1010 1469 1010 1469 1055.5 1429 c 128,-1,3
 1101 1389 1101 1389 1125.5 1331 c 128,-1,4
 1150 1273 1150 1273 1150 1199 c 0,5,6
 1150 1127 1150 1127 1128.5 1073.5 c 128,-1,7
 1107 1020 1107 1020 1071 979 c 128,-1,8
 1035 938 1035 938 987 906 c 128,-1,9
 939 874 939 874 886 846 c 1,10,11
 939 823 939 823 981.5 779.5 c 128,-1,12
 1024 736 1024 736 1054 682.5 c 128,-1,13
 1084 629 1084 629 1100.5 570 c 128,-1,14
 1117 511 1117 511 1117 458 c 0,15,16
 1117 328 1117 328 1073.5 237.5 c 128,-1,17
 1030 147 1030 147 956.5 90.5 c 128,-1,18
 883 34 883 34 786.5 8.5 c 128,-1,19
 690 -17 690 -17 583 -17 c 0,20,21
 489 -17 489 -17 406.5 5.5 c 128,-1,22
 324 28 324 28 262.5 75.5 c 128,-1,23
 201 123 201 123 165.5 195.5 c 128,-1,24
 130 268 130 268 130 368 c 0,25,26
 130 457 130 457 158 531.5 c 128,-1,27
 186 606 186 606 235.5 666 c 128,-1,28
 285 726 285 726 352.5 771.5 c 128,-1,29
 420 817 420 817 498 850 c 1,30,31
 424 903 424 903 379 976 c 128,-1,32
 334 1049 334 1049 334 1132 c 0,33,34
 334 1201 334 1201 352 1256 c 128,-1,35
 370 1311 370 1311 401.5 1354 c 128,-1,36
 433 1397 433 1397 475.5 1427.5 c 128,-1,37
 518 1458 518 1458 567 1478 c 128,-1,38
 616 1498 616 1498 669.5 1507.5 c 128,-1,39
 723 1517 723 1517 776 1517 c 2,40,-1
 798 1517 l 2,0,1
654 760 m 1,41,42
 586 733 586 733 525.5 701 c 128,-1,43
 465 669 465 669 418.5 628 c 128,-1,44
 372 587 372 587 345 534.5 c 128,-1,45
 318 482 318 482 318 414 c 0,46,47
 318 345 318 345 340 294.5 c 128,-1,48
 362 244 362 244 400.5 210.5 c 128,-1,49
 439 177 439 177 491 161 c 128,-1,50
 543 145 543 145 602 145 c 256,51,52
 661 145 661 145 719 164.5 c 128,-1,53
 777 184 777 184 823.5 219.5 c 128,-1,54
 870 255 870 255 898.5 304.5 c 128,-1,55
 927 354 927 354 927 415 c 0,56,57
 927 485 927 485 905 538.5 c 128,-1,58
 883 592 883 592 845.5 632.5 c 128,-1,59
 808 673 808 673 758.5 703.5 c 128,-1,60
 709 734 709 734 654 760 c 1,41,42
723 923 m 1,61,62
 773 944 773 944 817.5 968 c 128,-1,63
 862 992 862 992 895 1021 c 128,-1,64
 928 1050 928 1050 947.5 1085.5 c 128,-1,65
 967 1121 967 1121 967 1163 c 0,66,67
 967 1218 967 1218 948.5 1256 c 128,-1,68
 930 1294 930 1294 900.5 1318 c 128,-1,69
 871 1342 871 1342 835 1352.5 c 128,-1,70
 799 1363 799 1363 763 1363 c 0,71,72
 720 1363 720 1363 677 1346.5 c 128,-1,73
 634 1330 634 1330 600 1302.5 c 128,-1,74
 566 1275 566 1275 544.5 1239.5 c 128,-1,75
 523 1204 523 1204 523 1167 c 0,76,77
 523 1120 523 1120 537.5 1084.5 c 128,-1,78
 552 1049 552 1049 578.5 1020.5 c 128,-1,79
 605 992 605 992 642 968.5 c 128,-1,80
 679 945 679 945 723 923 c 1,61,62
EndSplineSet
Validated: 1
EndChar

StartChar: nine
Encoding: 57 57 26
Width: 1300
GlyphClass: 1
Flags: W
LayerCount: 2
Fore
SplineSet
814 663 m 1,0,1
 782 641 782 641 751.5 624 c 128,-1,2
 721 607 721 607 690.5 596 c 128,-1,3
 660 585 660 585 628 579 c 128,-1,4
 596 573 596 573 560 573 c 0,5,6
 472 573 472 573 400 602 c 128,-1,7
 328 631 328 631 277 686.5 c 128,-1,8
 226 742 226 742 198 823 c 128,-1,9
 170 904 170 904 170 1008 c 0,10,11
 170 1120 170 1120 211 1213.5 c 128,-1,12
 252 1307 252 1307 322 1374.5 c 128,-1,13
 392 1442 392 1442 484.5 1479.5 c 128,-1,14
 577 1517 577 1517 680 1517 c 0,15,16
 770 1517 770 1517 838 1496.5 c 128,-1,17
 906 1476 906 1476 955.5 1440 c 128,-1,18
 1005 1404 1005 1404 1038 1355.5 c 128,-1,19
 1071 1307 1071 1307 1090.5 1251 c 128,-1,20
 1110 1195 1110 1195 1118 1133.5 c 128,-1,21
 1126 1072 1126 1072 1126 1011 c 0,22,23
 1126 869 1126 869 1094.5 738 c 128,-1,24
 1063 607 1063 607 1005 492.5 c 128,-1,25
 947 378 947 378 864 284 c 128,-1,26
 781 190 781 190 678 123.5 c 128,-1,27
 575 57 575 57 454.5 20 c 128,-1,28
 334 -17 334 -17 200 -17 c 1,29,-1
 200 150 l 1,30,31
 325 153 325 153 443.5 198.5 c 128,-1,32
 562 244 562 244 659.5 326 c 128,-1,33
 757 408 757 408 824.5 523 c 128,-1,34
 892 638 892 638 915 780 c 1,35,-1
 814 663 l 1,0,1
934 953 m 1,36,37
 935 966 935 966 935 978 c 2,38,-1
 935 1004 l 2,39,40
 935 1076 935 1076 922.5 1139 c 128,-1,41
 910 1202 910 1202 880.5 1248.5 c 128,-1,42
 851 1295 851 1295 802 1322 c 128,-1,43
 753 1349 753 1349 679 1349 c 0,44,45
 604 1349 604 1349 545 1320.5 c 128,-1,46
 486 1292 486 1292 446 1243 c 128,-1,47
 406 1194 406 1194 385 1128.5 c 128,-1,48
 364 1063 364 1063 364 990 c 0,49,50
 364 934 364 934 379.5 888 c 128,-1,51
 395 842 395 842 426 809.5 c 128,-1,52
 457 777 457 777 504.5 759 c 128,-1,53
 552 741 552 741 616 741 c 0,54,55
 665 741 665 741 712.5 757 c 128,-1,56
 760 773 760 773 802 801 c 128,-1,57
 844 829 844 829 878 868 c 128,-1,58
 912 907 912 907 934 953 c 1,36,37
EndSplineSet
Validated: 1
EndChar

StartChar: colon
Encoding: 58 58 27
Width: 1300
VWidth: 2563
GlyphClass: 1
Flags: W
LayerCount: 2
Fore
SplineSet
317.258789062 43.400390625 m 0,0,1
 325.359375 85.25 325.359375 85.25 347.633789062 121.700195312 c 128,-1,2
 369.909179688 158.150390625 369.909179688 158.150390625 401.633789062 185.150390625 c 128,-1,3
 433.359375 212.150390625 433.359375 212.150390625 471.833984375 227.674804688 c 128,-1,4
 510.309570312 243.200195312 510.309570312 243.200195312 552.159179688 243.200195312 c 256,5,6
 594.008789062 243.200195312 594.008789062 243.200195312 627.758789062 227.674804688 c 128,-1,7
 661.508789062 212.150390625 661.508789062 212.150390625 683.784179688 185.150390625 c 128,-1,8
 706.059570312 158.150390625 706.059570312 158.150390625 715.508789062 121.700195312 c 128,-1,9
 724.958984375 85.25 724.958984375 85.25 716.859375 43.400390625 c 0,10,11
 710.109375 1.5498046875 710.109375 1.5498046875 687.833984375 -35.5751953125 c 128,-1,12
 665.559570312 -72.7001953125 665.559570312 -72.7001953125 633.833984375 -99.7001953125 c 128,-1,13
 602.109375 -126.700195312 602.109375 -126.700195312 563.633789062 -142.900390625 c 128,-1,14
 525.159179688 -159.099609375 525.159179688 -159.099609375 484.659179688 -159.099609375 c 0,15,16
 442.809570312 -159.099609375 442.809570312 -159.099609375 408.383789062 -142.900390625 c 128,-1,17
 373.958984375 -126.700195312 373.958984375 -126.700195312 351.684570312 -99.7001953125 c 128,-1,18
 329.409179688 -72.7001953125 329.409179688 -72.7001953125 319.958984375 -35.5751953125 c 128,-1,19
 310.508789062 1.5498046875 310.508789062 1.5498046875 317.258789062 43.400390625 c 0,0,1
440.109375 737.299804688 m 256,20,21
 446.859375 779.150390625 446.859375 779.150390625 469.809570312 815.599609375 c 128,-1,22
 492.758789062 852.049804688 492.758789062 852.049804688 524.484375 879.049804688 c 128,-1,23
 556.208984375 906.049804688 556.208984375 906.049804688 594.684570312 921.575195312 c 128,-1,24
 633.159179688 937.099609375 633.159179688 937.099609375 675.008789062 937.099609375 c 256,25,26
 716.859375 937.099609375 716.859375 937.099609375 750.609375 921.575195312 c 128,-1,27
 784.359375 906.049804688 784.359375 906.049804688 806.633789062 879.049804688 c 128,-1,28
 828.909179688 852.049804688 828.909179688 852.049804688 837.684570312 815.599609375 c 128,-1,29
 846.458984375 779.150390625 846.458984375 779.150390625 839.708984375 737.299804688 c 256,30,31
 832.958984375 695.450195312 832.958984375 695.450195312 810.684570312 658.325195312 c 128,-1,32
 788.409179688 621.200195312 788.409179688 621.200195312 756.684570312 594.200195312 c 128,-1,33
 724.958984375 567.200195312 724.958984375 567.200195312 686.484375 551 c 128,-1,34
 648.008789062 534.799804688 648.008789062 534.799804688 607.508789062 534.799804688 c 0,35,36
 565.659179688 534.799804688 565.659179688 534.799804688 531.234375 551 c 128,-1,37
 496.809570312 567.200195312 496.809570312 567.200195312 474.534179688 594.200195312 c 128,-1,38
 452.258789062 621.200195312 452.258789062 621.200195312 442.809570312 658.325195312 c 128,-1,39
 433.359375 695.450195312 433.359375 695.450195312 440.109375 737.299804688 c 256,20,21
EndSplineSet
Validated: 524321
EndChar

StartChar: semicolon
Encoding: 59 59 28
Width: 1300
VWidth: 2615
GlyphClass: 1
Flags: W
LayerCount: 2
Fore
SplineSet
443.244140625 781 m 256,0,1
 449.994140625 822.849609375 449.994140625 822.849609375 472.944335938 859.299804688 c 128,-1,2
 495.89453125 895.75 495.89453125 895.75 527.619140625 922.75 c 128,-1,3
 559.344726562 949.75 559.344726562 949.75 597.819335938 965.275390625 c 128,-1,4
 636.294921875 980.799804688 636.294921875 980.799804688 678.14453125 980.799804688 c 256,5,6
 719.994140625 980.799804688 719.994140625 980.799804688 753.744140625 965.275390625 c 128,-1,7
 787.494140625 949.75 787.494140625 949.75 809.76953125 922.75 c 128,-1,8
 832.044921875 895.75 832.044921875 895.75 840.819335938 859.299804688 c 128,-1,9
 849.594726562 822.849609375 849.594726562 822.849609375 842.844726562 781 c 256,10,11
 836.094726562 739.150390625 836.094726562 739.150390625 813.819335938 702.025390625 c 128,-1,12
 791.544921875 664.900390625 791.544921875 664.900390625 759.819335938 637.900390625 c 128,-1,13
 728.094726562 610.900390625 728.094726562 610.900390625 689.619140625 594.700195312 c 128,-1,14
 651.14453125 578.5 651.14453125 578.5 610.64453125 578.5 c 0,15,16
 568.794921875 578.5 568.794921875 578.5 534.369140625 594.700195312 c 128,-1,17
 499.944335938 610.900390625 499.944335938 610.900390625 477.669921875 637.900390625 c 128,-1,18
 455.39453125 664.900390625 455.39453125 664.900390625 445.944335938 702.025390625 c 128,-1,19
 436.494140625 739.150390625 436.494140625 739.150390625 443.244140625 781 c 256,0,1
320.39453125 87.099609375 m 0,20,21
 328.494140625 126.25 328.494140625 126.25 350.094726562 162.025390625 c 128,-1,22
 371.694335938 197.799804688 371.694335938 197.799804688 404.094726562 223.450195312 c 128,-1,23
 436.494140625 249.099609375 436.494140625 249.099609375 475.64453125 265.299804688 c 128,-1,24
 514.794921875 281.5 514.794921875 281.5 555.294921875 281.5 c 0,25,26
 594.444335938 281.5 594.444335938 281.5 627.51953125 267.325195312 c 128,-1,27
 660.594726562 253.150390625 660.594726562 253.150390625 683.544921875 226.150390625 c 128,-1,28
 706.494140625 199.150390625 706.494140625 199.150390625 715.944335938 157.974609375 c 128,-1,29
 725.39453125 116.799804688 725.39453125 116.799804688 715.944335938 64.150390625 c 0,30,31
 703.794921875 -7.400390625 703.794921875 -7.400390625 683.544921875 -74.224609375 c 128,-1,32
 663.294921875 -141.049804688 663.294921875 -141.049804688 623.469726562 -209.900390625 c 128,-1,33
 583.64453125 -278.75 583.64453125 -278.75 519.51953125 -350.299804688 c 128,-1,34
 455.39453125 -421.849609375 455.39453125 -421.849609375 358.194335938 -498.799804688 c 1,35,-1
 293.39453125 -467.75 l 1,36,37
 335.244140625 -408.349609375 335.244140625 -408.349609375 370.344726562 -344.900390625 c 0,38,39
 400.044921875 -292.25 400.044921875 -292.25 427.719726562 -229.474609375 c 128,-1,40
 455.39453125 -166.700195312 455.39453125 -166.700195312 466.194335938 -107.299804688 c 1,41,42
 432.444335938 -105.950195312 432.444335938 -105.950195312 402.744140625 -92.4501953125 c 128,-1,43
 373.044921875 -78.9501953125 373.044921875 -78.9501953125 351.444335938 -55.3251953125 c 128,-1,44
 329.844726562 -31.7001953125 329.844726562 -31.7001953125 321.069335938 4.75 c 128,-1,45
 312.294921875 41.2001953125 312.294921875 41.2001953125 320.39453125 87.099609375 c 0,20,21
EndSplineSet
Validated: 524321
EndChar

StartChar: less
Encoding: 60 60 29
Width: 1300
GlyphClass: 1
Flags: W
LayerCount: 2
Fore
SplineSet
1107 1187 m 1,0,-1
 1076 1012 l 1,1,-1
 324 646 l 1,2,-1
 243 626 l 1,3,-1
 316 606 l 1,4,-1
 940 242 l 1,5,-1
 909 67 l 1,6,-1
 92 524 l 1,7,-1
 129 733 l 1,8,-1
 1107 1187 l 1,0,-1
EndSplineSet
Validated: 1
EndChar

StartChar: equal
Encoding: 61 61 30
Width: 1300
VWidth: 2517
GlyphClass: 1
Flags: W
LayerCount: 2
Fore
SplineSet
235.650390625 897.125 m 1,0,-1
 1180.65039062 897.125 l 1,1,-1
 1142.84960938 687.875 l 1,2,-1
 197.849609375 687.875 l 1,3,-1
 235.650390625 897.125 l 1,0,-1
139.799804688 357.125 m 1,4,-1
 1084.79980469 357.125 l 1,5,-1
 1048.34960938 147.875 l 1,6,-1
 103.349609375 147.875 l 1,7,-1
 139.799804688 357.125 l 1,4,-1
EndSplineSet
Validated: 524289
EndChar

StartChar: greater
Encoding: 62 62 31
Width: 1300
GlyphClass: 1
Flags: W
LayerCount: 2
Fore
SplineSet
1127 733 m 1,0,-1
 1090 524 l 1,1,-1
 111 67 l 1,2,-1
 142 242 l 1,3,-1
 894 606 l 1,4,-1
 975 626 l 1,5,-1
 900 646 l 1,6,-1
 278 1012 l 1,7,-1
 309 1187 l 1,8,-1
 1127 733 l 1,0,-1
EndSplineSet
Validated: 1
EndChar

StartChar: question
Encoding: 63 63 32
Width: 1300
GlyphClass: 1
Flags: W
LayerCount: 2
Fore
SplineSet
727 1517 m 0,0,1
 815 1517 815 1517 885.5 1493 c 128,-1,2
 956 1469 956 1469 1005 1425 c 128,-1,3
 1054 1381 1054 1381 1080 1317.5 c 128,-1,4
 1106 1254 1106 1254 1106 1176 c 0,5,6
 1106 1105 1106 1105 1085.5 1051.5 c 128,-1,7
 1065 998 1065 998 1030.5 955 c 128,-1,8
 996 912 996 912 952 877 c 128,-1,9
 908 842 908 842 861 808.5 c 128,-1,10
 814 775 814 775 767.5 740 c 128,-1,11
 721 705 721 705 683 663.5 c 128,-1,12
 645 622 645 622 618.5 570 c 128,-1,13
 592 518 592 518 584 450 c 1,14,-1
 370 429 l 1,15,16
 379 520 379 520 407 588 c 128,-1,17
 435 656 435 656 473.5 708.5 c 128,-1,18
 512 761 512 761 558.5 801 c 128,-1,19
 605 841 605 841 652 874.5 c 128,-1,20
 699 908 699 908 743.5 938.5 c 128,-1,21
 788 969 788 969 822 1003 c 128,-1,22
 856 1037 856 1037 876.5 1078 c 128,-1,23
 897 1119 897 1119 897 1173 c 0,24,25
 897 1219 897 1219 880.5 1253 c 128,-1,26
 864 1287 864 1287 834 1308.5 c 128,-1,27
 804 1330 804 1330 763 1340.5 c 128,-1,28
 722 1351 722 1351 673 1351 c 256,29,30
 624 1351 624 1351 582.5 1343 c 128,-1,31
 541 1335 541 1335 503 1316.5 c 128,-1,32
 465 1298 465 1298 427.5 1267 c 128,-1,33
 390 1236 390 1236 349 1190 c 1,34,-1
 236 1300 l 1,35,36
 285 1363 285 1363 343 1404.5 c 128,-1,37
 401 1446 401 1446 464 1471 c 128,-1,38
 527 1496 527 1496 593.5 1506.5 c 128,-1,39
 660 1517 660 1517 727 1517 c 0,0,1
297 105 m 0,40,41
 297 128 297 128 307.5 149.5 c 128,-1,42
 318 171 318 171 335 188 c 128,-1,43
 352 205 352 205 375 215 c 128,-1,44
 398 225 398 225 422 225 c 0,45,46
 476 225 476 225 505.5 191.5 c 128,-1,47
 535 158 535 158 535 105 c 0,48,49
 535 82 535 82 526 60.5 c 128,-1,50
 517 39 517 39 501 21.5 c 128,-1,51
 485 4 485 4 463 -6.5 c 128,-1,52
 441 -17 441 -17 416 -17 c 0,53,54
 360 -17 360 -17 328.5 17 c 128,-1,55
 297 51 297 51 297 105 c 0,40,41
EndSplineSet
Validated: 1
EndChar

StartChar: at
Encoding: 64 64 33
Width: 1300
GlyphClass: 1
Flags: W
LayerCount: 2
Fore
SplineSet
749 700 m 1,0,-1
 804 838 l 1,1,2
 785 840 785 840 769 834 c 128,-1,3
 753 828 753 828 738 820 c 0,4,5
 719 809 719 809 691 780.5 c 128,-1,6
 663 752 663 752 634 707 c 128,-1,7
 605 662 605 662 578.5 600 c 128,-1,8
 552 538 552 538 536 462 c 0,9,10
 511 346 511 346 514.5 275 c 128,-1,11
 518 204 518 204 540 170 c 128,-1,12
 562 136 562 136 595.5 134 c 128,-1,13
 629 132 629 132 664 155 c 1,14,-1
 749 700 l 1,0,-1
838 -34 m 0,15,16
 793 -34 793 -34 763 -22.5 c 128,-1,17
 733 -11 733 -11 714.5 5.5 c 128,-1,18
 696 22 696 22 686.5 39.5 c 128,-1,19
 677 57 677 57 673 69 c 1,20,-1
 615 -17 l 1,21,22
 543 -17 543 -17 488.5 16 c 128,-1,23
 434 49 434 49 401.5 110 c 128,-1,24
 369 171 369 171 360 256 c 128,-1,25
 351 341 351 341 368 446 c 0,26,27
 384 546 384 546 427.5 642 c 128,-1,28
 471 738 471 738 532 813.5 c 128,-1,29
 593 889 593 889 667.5 935 c 128,-1,30
 742 981 742 981 822 981 c 0,31,32
 903 981 903 981 959 958 c 1,33,-1
 835 180 l 2,34,35
 827 141 827 141 836 120.5 c 128,-1,36
 845 100 845 100 868 100 c 0,37,38
 888 100 888 100 906.5 124.5 c 128,-1,39
 925 149 925 149 941.5 187 c 128,-1,40
 958 225 958 225 971.5 272 c 128,-1,41
 985 319 985 319 995.5 363.5 c 128,-1,42
 1006 408 1006 408 1013.5 445 c 128,-1,43
 1021 482 1021 482 1024 501 c 0,44,45
 1032 548 1032 548 1041.5 609 c 128,-1,46
 1051 670 1051 670 1058 737 c 128,-1,47
 1065 804 1065 804 1067.5 874 c 128,-1,48
 1070 944 1070 944 1065 1010 c 128,-1,49
 1060 1076 1060 1076 1045 1134 c 128,-1,50
 1030 1192 1030 1192 1002 1235.5 c 128,-1,51
 974 1279 974 1279 931 1304.5 c 128,-1,52
 888 1330 888 1330 826 1330 c 0,53,54
 774 1330 774 1330 718.5 1301.5 c 128,-1,55
 663 1273 663 1273 608 1222 c 128,-1,56
 553 1171 553 1171 502 1101 c 128,-1,57
 451 1031 451 1031 408 948 c 128,-1,58
 365 865 365 865 333 772.5 c 128,-1,59
 301 680 301 680 284 584 c 0,60,61
 267 489 267 489 257.5 395.5 c 128,-1,62
 248 302 248 302 248 214 c 0,63,64
 248 115 248 115 262 29.5 c 128,-1,65
 276 -56 276 -56 307.5 -119 c 128,-1,66
 339 -182 339 -182 390 -218 c 128,-1,67
 441 -254 441 -254 515 -254 c 0,68,69
 545 -254 545 -254 574.5 -246.5 c 128,-1,70
 604 -239 604 -239 630.5 -227 c 128,-1,71
 657 -215 657 -215 678.5 -201 c 128,-1,72
 700 -187 700 -187 714 -173 c 1,73,-1
 687 -350 l 1,74,75
 675 -361 675 -361 654.5 -372 c 128,-1,76
 634 -383 634 -383 607 -391.5 c 128,-1,77
 580 -400 580 -400 548.5 -405 c 128,-1,78
 517 -410 517 -410 483 -410 c 0,79,80
 374 -410 374 -410 298 -367 c 128,-1,81
 222 -324 222 -324 174.5 -247.5 c 128,-1,82
 127 -171 127 -171 105.5 -65 c 128,-1,83
 84 41 84 41 84 166 c 0,84,85
 84 254 84 254 93.5 347 c 128,-1,86
 103 440 103 440 120 540 c 0,87,88
 143 671 143 671 182 792 c 128,-1,89
 221 913 221 913 273.5 1018.5 c 128,-1,90
 326 1124 326 1124 390.5 1210 c 128,-1,91
 455 1296 455 1296 529.5 1357.5 c 128,-1,92
 604 1419 604 1419 686.5 1452.5 c 128,-1,93
 769 1486 769 1486 858 1486 c 0,94,95
 935 1486 935 1486 992.5 1461 c 128,-1,96
 1050 1436 1050 1436 1091 1392.5 c 128,-1,97
 1132 1349 1132 1349 1158.5 1290 c 128,-1,98
 1185 1231 1185 1231 1199.5 1162 c 128,-1,99
 1214 1093 1214 1093 1218.5 1017.5 c 128,-1,100
 1223 942 1223 942 1220 866 c 128,-1,101
 1217 790 1217 790 1208 716.5 c 128,-1,102
 1199 643 1199 643 1188 578 c 0,103,104
 1167 458 1167 458 1139.5 347.5 c 128,-1,105
 1112 237 1112 237 1071.5 152 c 128,-1,106
 1031 67 1031 67 974 16.5 c 128,-1,107
 917 -34 917 -34 838 -34 c 0,15,16
EndSplineSet
Validated: 33
EndChar

StartChar: A
Encoding: 65 65 34
Width: 1300
GlyphClass: 1
Flags: W
LayerCount: 2
Fore
SplineSet
18 0 m 1,0,-1
 719 1300 l 1,1,-1
 789 1500 l 1,2,-1
 971 1520 l 1,3,-1
 1250 0 l 1,4,-1
 1050 0 l 1,5,-1
 982 450 l 1,6,-1
 447 450 l 1,7,-1
 201 0 l 1,8,-1
 18 0 l 1,0,-1
877 1400 m 1,9,-1
 776 1080 l 1,10,-1
 522 600 l 1,11,-1
 959 600 l 1,12,-1
 866 1080 l 1,13,-1
 877 1400 l 1,9,-1
EndSplineSet
Validated: 1
EndChar

StartChar: B
Encoding: 66 66 35
Width: 1300
GlyphClass: 1
Flags: W
LayerCount: 2
Fore
SplineSet
519 1359 m 1,0,-1
 502 1147 l 1,1,-1
 456 885 l 1,2,-1
 566 885 l 2,3,4
 642 885 642 885 712 901 c 128,-1,5
 782 917 782 917 835.5 952 c 128,-1,6
 889 987 889 987 921 1042.5 c 128,-1,7
 953 1098 953 1098 953 1176 c 0,8,9
 953 1233 953 1233 930 1271.5 c 128,-1,10
 907 1310 907 1310 868 1333 c 128,-1,11
 829 1356 829 1356 778.5 1365.5 c 128,-1,12
 728 1375 728 1375 674 1375 c 0,13,14
 657 1375 657 1375 636.5 1374 c 128,-1,15
 616 1373 616 1373 595 1370.5 c 128,-1,16
 574 1368 574 1368 554.5 1365 c 128,-1,17
 535 1362 535 1362 519 1359 c 1,0,-1
100 0 m 1,18,-1
 327 1290 l 1,19,-1
 334 1490 l 1,20,21
 364 1494 364 1494 402.5 1498 c 128,-1,22
 441 1502 441 1502 481.5 1504.5 c 128,-1,23
 522 1507 522 1507 561.5 1508.5 c 128,-1,24
 601 1510 601 1510 633 1510 c 0,25,26
 739 1510 739 1510 831.5 1496 c 128,-1,27
 924 1482 924 1482 993 1447.5 c 128,-1,28
 1062 1413 1062 1413 1102 1354.5 c 128,-1,29
 1142 1296 1142 1296 1142 1206 c 0,30,31
 1142 1137 1142 1137 1122 1080.5 c 128,-1,32
 1102 1024 1102 1024 1068 980.5 c 128,-1,33
 1034 937 1034 937 990 906.5 c 128,-1,34
 946 876 946 876 897 860 c 2,35,-1
 735 816 l 1,36,-1
 880 802 l 1,37,38
 933 785 933 785 976.5 760.5 c 128,-1,39
 1020 736 1020 736 1051.5 701 c 128,-1,40
 1083 666 1083 666 1100.5 618.5 c 128,-1,41
 1118 571 1118 571 1118 510 c 0,42,43
 1118 417 1118 417 1093.5 343.5 c 128,-1,44
 1069 270 1069 270 1025.5 213 c 128,-1,45
 982 156 982 156 923 116 c 128,-1,46
 864 76 864 76 795 50 c 128,-1,47
 726 24 726 24 649.5 12 c 128,-1,48
 573 0 573 0 496 0 c 2,49,-1
 100 0 l 1,18,-1
328 160 m 1,50,-1
 468 160 l 2,51,52
 575 160 575 160 659.5 175.5 c 128,-1,53
 744 191 744 191 803 229 c 128,-1,54
 862 267 862 267 893 331 c 128,-1,55
 924 395 924 395 924 493 c 0,56,57
 924 557 924 557 900 602 c 128,-1,58
 876 647 876 647 833.5 675.5 c 128,-1,59
 791 704 791 704 733 717 c 128,-1,60
 675 730 675 730 608 730 c 2,61,-1
 428 730 l 1,62,-1
 328 160 l 1,50,-1
EndSplineSet
Validated: 1
EndChar

StartChar: C
Encoding: 67 67 36
Width: 1300
GlyphClass: 1
Flags: W
LayerCount: 2
Fore
SplineSet
998 95 m 1,0,1
 978 81 978 81 942 62 c 128,-1,2
 906 43 906 43 854 25.5 c 128,-1,3
 802 8 802 8 733 -4.5 c 128,-1,4
 664 -17 664 -17 577 -17 c 0,5,6
 458 -17 458 -17 369.5 30.5 c 128,-1,7
 281 78 281 78 222.5 162.5 c 128,-1,8
 164 247 164 247 135 363 c 128,-1,9
 106 479 106 479 106 616 c 0,10,11
 106 738 106 738 127.5 852.5 c 128,-1,12
 149 967 149 967 191 1067 c 128,-1,13
 233 1167 233 1167 295 1250 c 128,-1,14
 357 1333 357 1333 438 1392 c 128,-1,15
 519 1451 519 1451 618.5 1484 c 128,-1,16
 718 1517 718 1517 835 1517 c 0,17,18
 1078 1517 1078 1517 1210 1385 c 1,19,-1
 1112 1263 l 1,20,21
 1050 1306 1050 1306 983.5 1323.5 c 128,-1,22
 917 1341 917 1341 829 1341 c 0,23,24
 735 1341 735 1341 660 1312 c 128,-1,25
 585 1283 585 1283 527 1231.5 c 128,-1,26
 469 1180 469 1180 427 1109.5 c 128,-1,27
 385 1039 385 1039 358.5 957.5 c 128,-1,28
 332 876 332 876 319.5 786 c 128,-1,29
 307 696 307 696 307 605 c 0,30,31
 307 518 307 518 319.5 436.5 c 128,-1,32
 332 355 332 355 367 292 c 128,-1,33
 402 229 402 229 466 191 c 128,-1,34
 530 153 530 153 632 153 c 0,35,36
 677 153 677 153 718 159 c 128,-1,37
 759 165 759 165 798 177 c 128,-1,38
 837 189 837 189 876 206.5 c 128,-1,39
 915 224 915 224 956 247 c 1,40,-1
 998 95 l 1,0,1
EndSplineSet
Validated: 1
EndChar

StartChar: D
Encoding: 68 68 37
Width: 1300
GlyphClass: 1
Flags: W
LayerCount: 2
Fore
SplineSet
293 1500 m 1,0,1
 324 1503 324 1503 365 1505 c 128,-1,2
 406 1507 406 1507 449.5 1508.5 c 128,-1,3
 493 1510 493 1510 535 1510.5 c 128,-1,4
 577 1511 577 1511 610 1511 c 0,5,6
 755 1511 755 1511 869.5 1479 c 128,-1,7
 984 1447 984 1447 1063.5 1377.5 c 128,-1,8
 1143 1308 1143 1308 1185 1198.5 c 128,-1,9
 1227 1089 1227 1089 1227 933 c 0,10,11
 1227 772 1227 772 1193.5 640.5 c 128,-1,12
 1160 509 1160 509 1099.5 405.5 c 128,-1,13
 1039 302 1039 302 955.5 225.5 c 128,-1,14
 872 149 872 149 773 99 c 128,-1,15
 674 49 674 49 562.5 24.5 c 128,-1,16
 451 0 451 0 335 0 c 2,17,-1
 59 0 l 1,18,-1
 286 1290 l 1,19,-1
 293 1500 l 1,0,1
461 1150 m 1,20,21
 449 1083 449 1083 426 953 c 0,22,23
 416 897 416 897 403 822 c 128,-1,24
 390 747 390 747 373 649.5 c 128,-1,25
 356 552 356 552 334.5 430.5 c 128,-1,26
 313 309 313 309 287 160 c 1,27,-1
 307 160 l 2,28,29
 450 160 450 160 560 193 c 128,-1,30
 670 226 670 226 751.5 283 c 128,-1,31
 833 340 833 340 888 416.5 c 128,-1,32
 943 493 943 493 976 580 c 128,-1,33
 1009 667 1009 667 1023.5 761 c 128,-1,34
 1038 855 1038 855 1038 946 c 0,35,36
 1038 1036 1038 1036 1015.5 1112 c 128,-1,37
 993 1188 993 1188 939.5 1242.5 c 128,-1,38
 886 1297 886 1297 798 1327.5 c 128,-1,39
 710 1358 710 1358 579 1358 c 0,40,41
 563 1358 563 1358 545 1357 c 128,-1,42
 527 1356 527 1356 510 1354 c 2,43,-1
 472 1350 l 1,44,-1
 461 1150 l 1,20,21
EndSplineSet
Validated: 1
EndChar

StartChar: E
Encoding: 69 69 38
Width: 1300
GlyphClass: 1
Flags: W
LayerCount: 2
Fore
SplineSet
1040 160 m 1,0,-1
 992 0 l 1,1,-1
 72 0 l 1,2,-1
 123 200 l 1,3,-1
 315 1290 l 1,4,-1
 322 1500 l 1,5,-1
 1242 1500 l 1,6,-1
 1214 1340 l 1,7,-1
 489 1340 l 1,8,-1
 475 1150 l 1,9,-1
 428 885 l 1,10,-1
 1063 885 l 1,11,-1
 1038 740 l 1,12,-1
 403 740 l 1,13,-1
 332 340 l 1,14,-1
 290 160 l 1,15,-1
 1040 160 l 1,0,-1
EndSplineSet
Validated: 1
EndChar

StartChar: F
Encoding: 70 70 39
Width: 1300
GlyphClass: 1
Flags: W
LayerCount: 2
Fore
SplineSet
300 0 m 1,0,-1
 100 0 l 1,1,-1
 327 1290 l 1,2,-1
 334 1500 l 1,3,-1
 1209 1500 l 1,4,-1
 1161 1340 l 1,5,-1
 516 1340 l 1,6,-1
 502 1150 l 1,7,-1
 456 885 l 1,8,-1
 996 885 l 1,9,-1
 970 740 l 1,10,-1
 430 740 l 1,11,-1
 300 0 l 1,0,-1
EndSplineSet
Validated: 1
EndChar

StartChar: G
Encoding: 71 71 40
Width: 1300
GlyphClass: 1
Flags: W
LayerCount: 2
Fore
SplineSet
1092 197 m 1,0,1
 1043 152 1043 152 985 112.5 c 128,-1,2
 927 73 927 73 861 44.5 c 128,-1,3
 795 16 795 16 720 -0.5 c 128,-1,4
 645 -17 645 -17 562 -17 c 0,5,6
 418 -17 418 -17 321.5 45.5 c 128,-1,7
 225 108 225 108 173.5 215 c 128,-1,8
 122 322 122 322 112 465 c 128,-1,9
 102 608 102 608 131 770 c 0,10,11
 149 871 149 871 179 965.5 c 128,-1,12
 209 1060 209 1060 253 1143 c 128,-1,13
 297 1226 297 1226 355.5 1294.5 c 128,-1,14
 414 1363 414 1363 488.5 1412.5 c 128,-1,15
 563 1462 563 1462 654.5 1489.5 c 128,-1,16
 746 1517 746 1517 856 1517 c 0,17,18
 971 1517 971 1517 1067 1480.5 c 128,-1,19
 1163 1444 1163 1444 1223 1375 c 1,20,-1
 1114 1268 l 1,21,22
 1071 1300 1071 1300 1003.5 1324 c 128,-1,23
 936 1348 936 1348 842 1348 c 0,24,25
 720 1348 720 1348 634.5 1302 c 128,-1,26
 549 1256 549 1256 491 1177.5 c 128,-1,27
 433 1099 433 1099 398 994.5 c 128,-1,28
 363 890 363 890 342 773 c 0,29,30
 330 704 330 704 324 631.5 c 128,-1,31
 318 559 318 559 323.5 490 c 128,-1,32
 329 421 329 421 346.5 360 c 128,-1,33
 364 299 364 299 399 253 c 128,-1,34
 434 207 434 207 487.5 180 c 128,-1,35
 541 153 541 153 618 153 c 0,36,37
 663 153 663 153 709 163 c 128,-1,38
 755 173 755 173 796.5 189 c 128,-1,39
 838 205 838 205 872.5 224.5 c 128,-1,40
 907 244 907 244 928 263 c 1,41,-1
 989 612 l 1,42,-1
 679 632 l 1,43,-1
 702 762 l 1,44,-1
 1192 762 l 1,45,-1
 1092 197 l 1,0,1
EndSplineSet
Validated: 33
EndChar

StartChar: H
Encoding: 72 72 41
Width: 1300
GlyphClass: 1
Flags: W
LayerCount: 2
Fore
SplineSet
787 0 m 1,0,-1
 914 725 l 1,1,-1
 372 725 l 1,2,-1
 245 0 l 1,3,-1
 50 0 l 1,4,-1
 277 1290 l 1,5,-1
 285 1500 l 1,6,-1
 513 1520 l 1,7,-1
 401 885 l 1,8,-1
 943 885 l 1,9,-1
 1051 1500 l 1,10,-1
 1250 1520 l 1,11,-1
 982 0 l 1,12,-1
 787 0 l 1,0,-1
EndSplineSet
Validated: 1
EndChar

StartChar: I
Encoding: 73 73 42
Width: 1300
GlyphClass: 1
Flags: W
LayerCount: 2
Fore
SplineSet
332 1500 m 1,0,-1
 1232 1500 l 1,1,-1
 1204 1340 l 1,2,-1
 846 1340 l 1,3,-1
 637 160 l 1,4,-1
 1015 160 l 1,5,-1
 967 0 l 1,6,-1
 67 0 l 1,7,-1
 95 160 l 1,8,-1
 451 160 l 1,9,-1
 660 1340 l 1,10,-1
 284 1340 l 1,11,-1
 332 1500 l 1,0,-1
EndSplineSet
Validated: 1
EndChar

StartChar: J
Encoding: 74 74 43
Width: 1300
GlyphClass: 1
Flags: W
LayerCount: 2
Fore
SplineSet
473 1325 m 1,0,-1
 500 1500 l 1,1,-1
 1068 1500 l 1,2,-1
 872 415 l 2,3,4
 853 309 853 309 818.5 228 c 128,-1,5
 784 147 784 147 727.5 92.5 c 128,-1,6
 671 38 671 38 590.5 10.5 c 128,-1,7
 510 -17 510 -17 399 -17 c 0,8,9
 358 -17 358 -17 317.5 -3.5 c 128,-1,10
 277 10 277 10 241 30 c 128,-1,11
 205 50 205 50 176 73 c 128,-1,12
 147 96 147 96 130 115 c 1,13,-1
 243 233 l 1,14,15
 252 223 252 223 269 209.5 c 128,-1,16
 286 196 286 196 309.5 184 c 128,-1,17
 333 172 333 172 362 164 c 128,-1,18
 391 156 391 156 424 156 c 0,19,20
 493 156 493 156 537 175.5 c 128,-1,21
 581 195 581 195 608.5 234 c 128,-1,22
 636 273 636 273 652 332 c 128,-1,23
 668 391 668 391 682 470 c 2,24,-1
 802 1148 l 1,25,-1
 875 1374 l 1,26,-1
 633 1325 l 1,27,-1
 473 1325 l 1,0,-1
EndSplineSet
Validated: 1
EndChar

StartChar: K
Encoding: 75 75 44
Width: 1300
GlyphClass: 1
Flags: W
LayerCount: 2
Fore
SplineSet
50 0 m 1,0,-1
 277 1290 l 1,1,-1
 284 1500 l 1,2,-1
 518 1520 l 1,3,-1
 400 856 l 1,4,-1
 1055 1500 l 1,5,-1
 1277 1500 l 1,6,-1
 634 865 l 1,7,-1
 454 802 l 1,8,-1
 618 744 l 1,9,-1
 1040 0 l 1,10,-1
 803 0 l 1,11,-1
 381 746 l 1,12,-1
 250 0 l 1,13,-1
 50 0 l 1,0,-1
EndSplineSet
Validated: 1
EndChar

StartChar: L
Encoding: 76 76 45
Width: 1300
GlyphClass: 1
Flags: W
LayerCount: 2
Fore
SplineSet
397 160 m 1,0,-1
 1127 160 l 1,1,-1
 1078 0 l 1,2,-1
 173 0 l 1,3,-1
 229 200 l 1,4,-1
 421 1290 l 1,5,-1
 428 1500 l 1,6,-1
 647 1520 l 1,7,-1
 438 340 l 1,8,-1
 397 160 l 1,0,-1
EndSplineSet
Validated: 1
EndChar

StartChar: M
Encoding: 77 77 46
Width: 1300
GlyphClass: 1
Flags: W
LayerCount: 2
Fore
SplineSet
838 0 m 1,0,-1
 997 901 l 1,1,-1
 1154 1399 l 1,2,-1
 1149 1400 l 1,3,-1
 901 921 l 1,4,-1
 654 500 l 1,5,-1
 554 500 l 1,6,-1
 456 920 l 1,7,-1
 371 1400 l 1,8,-1
 365 1399 l 1,9,-1
 352 901 l 1,10,-1
 193 0 l 1,11,-1
 13 0 l 1,12,-1
 241 1290 l 1,13,-1
 250 1500 l 1,14,-1
 468 1520 l 1,15,-1
 600 950 l 1,16,-1
 632 700 l 1,17,-1
 750 950 l 1,18,-1
 1076 1500 l 1,19,-1
 1287 1520 l 1,20,-1
 1018 0 l 1,21,-1
 838 0 l 1,0,-1
EndSplineSet
Validated: 1
EndChar

StartChar: N
Encoding: 78 78 47
Width: 1300
GlyphClass: 1
Flags: W
LayerCount: 2
Fore
SplineSet
817 0 m 1,0,-1
 490 948 l 1,1,-1
 403 1361 l 1,2,-1
 397 1360 l 1,3,-1
 385 920 l 1,4,-1
 222 0 l 1,5,-1
 42 0 l 1,6,-1
 270 1290 l 1,7,-1
 277 1500 l 1,8,-1
 482 1520 l 1,9,-1
 808 557 l 1,10,-1
 900 140 l 1,11,-1
 906 141 l 1,12,-1
 905 580 l 1,13,-1
 1067 1500 l 1,14,-1
 1251 1520 l 1,15,-1
 982 0 l 1,16,-1
 817 0 l 1,0,-1
EndSplineSet
Validated: 1
EndChar

StartChar: O
Encoding: 79 79 48
Width: 1300
GlyphClass: 1
Flags: W
LayerCount: 2
Fore
SplineSet
514 -17 m 0,0,1
 424 -17 424 -17 353 10.5 c 128,-1,2
 282 38 282 38 230 88.5 c 128,-1,3
 178 139 178 139 144 209 c 128,-1,4
 110 279 110 279 94 364.5 c 128,-1,5
 78 450 78 450 79.5 547.5 c 128,-1,6
 81 645 81 645 100 750 c 0,7,8
 118 855 118 855 150.5 952.5 c 128,-1,9
 183 1050 183 1050 228.5 1135.5 c 128,-1,10
 274 1221 274 1221 331.5 1291 c 128,-1,11
 389 1361 389 1361 459 1411.5 c 128,-1,12
 529 1462 529 1462 611 1489.5 c 128,-1,13
 693 1517 693 1517 785 1517 c 0,14,15
 875 1517 875 1517 946 1489.5 c 128,-1,16
 1017 1462 1017 1462 1069 1411.5 c 128,-1,17
 1121 1361 1121 1361 1155 1291 c 128,-1,18
 1189 1221 1189 1221 1205 1135.5 c 128,-1,19
 1221 1050 1221 1050 1219.5 952.5 c 128,-1,20
 1218 855 1218 855 1200 750 c 0,21,22
 1181 645 1181 645 1148.5 547.5 c 128,-1,23
 1116 450 1116 450 1071 364.5 c 128,-1,24
 1026 279 1026 279 968 209 c 128,-1,25
 910 139 910 139 840 88.5 c 128,-1,26
 770 38 770 38 688 10.5 c 128,-1,27
 606 -17 606 -17 514 -17 c 0,0,1
986 719 m 0,28,29
 998 789 998 789 1006.5 862 c 128,-1,30
 1015 935 1015 935 1014 1004.5 c 128,-1,31
 1013 1074 1013 1074 999.5 1135.5 c 128,-1,32
 986 1197 986 1197 955.5 1242.5 c 128,-1,33
 925 1288 925 1288 874.5 1315 c 128,-1,34
 824 1342 824 1342 748 1342 c 0,35,36
 676 1342 676 1342 619 1318 c 128,-1,37
 562 1294 562 1294 517 1252.5 c 128,-1,38
 472 1211 472 1211 439 1155.5 c 128,-1,39
 406 1100 406 1100 381.5 1038 c 128,-1,40
 357 976 357 976 341 911 c 128,-1,41
 325 846 325 846 314 785 c 0,42,43
 301 714 301 714 293 640 c 128,-1,44
 285 566 285 566 286 496.5 c 128,-1,45
 287 427 287 427 300 365.5 c 128,-1,46
 313 304 313 304 343.5 258 c 128,-1,47
 374 212 374 212 424.5 185 c 128,-1,48
 475 158 475 158 551 158 c 0,49,50
 622 158 622 158 679 182.5 c 128,-1,51
 736 207 736 207 781 249.5 c 128,-1,52
 826 292 826 292 859.5 347.5 c 128,-1,53
 893 403 893 403 917.5 465.5 c 128,-1,54
 942 528 942 528 958.5 593 c 128,-1,55
 975 658 975 658 986 719 c 0,28,29
EndSplineSet
Validated: 33
EndChar

StartChar: P
Encoding: 80 80 49
Width: 1300
GlyphClass: 1
Flags: W
LayerCount: 2
Fore
SplineSet
289 0 m 1,0,-1
 99 0 l 1,1,-1
 327 1290 l 1,2,-1
 327 1490 l 1,3,4
 357 1495 357 1495 398.5 1499 c 128,-1,5
 440 1503 440 1503 486 1506 c 128,-1,6
 532 1509 532 1509 578 1510.5 c 128,-1,7
 624 1512 624 1512 663 1512 c 0,8,9
 823 1512 823 1512 940 1481.5 c 128,-1,10
 1057 1451 1057 1451 1130 1396.5 c 128,-1,11
 1203 1342 1203 1342 1231.5 1266 c 128,-1,12
 1260 1190 1260 1190 1244 1099 c 0,13,14
 1157 624 1157 624 399 624 c 1,15,-1
 289 0 l 1,0,-1
491 1147 m 1,16,-1
 424 765 l 1,17,18
 576 765 576 765 689.5 787 c 128,-1,19
 803 809 803 809 881.5 852 c 128,-1,20
 960 895 960 895 1005.5 957 c 128,-1,21
 1051 1019 1051 1019 1066 1100 c 0,22,23
 1079 1167 1079 1167 1054.5 1217.5 c 128,-1,24
 1030 1268 1030 1268 977.5 1302 c 128,-1,25
 925 1336 925 1336 849 1353 c 128,-1,26
 773 1370 773 1370 683 1370 c 0,27,28
 666 1370 666 1370 642.5 1369.5 c 128,-1,29
 619 1369 619 1369 594.5 1367.5 c 128,-1,30
 570 1366 570 1366 547 1364 c 128,-1,31
 524 1362 524 1362 509 1359 c 1,32,-1
 491 1147 l 1,16,-1
EndSplineSet
Validated: 33
EndChar

StartChar: Q
Encoding: 81 81 50
Width: 1300
GlyphClass: 1
Flags: W
LayerCount: 2
Fore
SplineSet
626 0 m 1,0,1
 591 -8 591 -8 553 -12.5 c 128,-1,2
 515 -17 515 -17 467 -17 c 0,3,4
 365 -17 365 -17 289.5 26.5 c 128,-1,5
 214 70 214 70 163.5 145.5 c 128,-1,6
 113 221 113 221 88 322.5 c 128,-1,7
 63 424 63 424 63 540 c 0,8,9
 63 657 63 657 86 775 c 128,-1,10
 109 893 109 893 153 1001.5 c 128,-1,11
 197 1110 197 1110 260 1204 c 128,-1,12
 323 1298 323 1298 403.5 1367.5 c 128,-1,13
 484 1437 484 1437 580.5 1477 c 128,-1,14
 677 1517 677 1517 787 1517 c 0,15,16
 899 1517 899 1517 984 1474.5 c 128,-1,17
 1069 1432 1069 1432 1126 1356.5 c 128,-1,18
 1183 1281 1183 1281 1211.5 1177.5 c 128,-1,19
 1240 1074 1240 1074 1240 953 c 0,20,21
 1240 837 1240 837 1215.5 718 c 128,-1,22
 1191 599 1191 599 1146 489 c 128,-1,23
 1101 379 1101 379 1036.5 284.5 c 128,-1,24
 972 190 972 190 893 124 c 0,25,26
 885 116 885 116 874 107.5 c 128,-1,27
 863 99 863 99 854 92 c 1,28,29
 867 60 867 60 879 42 c 128,-1,30
 891 24 891 24 908.5 14.5 c 128,-1,31
 926 5 926 5 952.5 2.5 c 128,-1,32
 979 0 979 0 1021 0 c 1,33,-1
 944 -145 l 1,34,35
 894 -145 894 -145 854 -137 c 128,-1,36
 814 -129 814 -129 780 -103 c 128,-1,37
 746 -77 746 -77 717.5 -28 c 128,-1,38
 689 21 689 21 662 102 c 2,39,-1
 650 137 l 1,40,-1
 626 0 l 1,0,1
841 314 m 1,41,42
 901 393 901 393 940 476 c 128,-1,43
 979 559 979 559 1002.5 642 c 128,-1,44
 1026 725 1026 725 1035.5 805.5 c 128,-1,45
 1045 886 1045 886 1045 961 c 256,46,47
 1045 1036 1045 1036 1029.5 1104.5 c 128,-1,48
 1014 1173 1014 1173 979 1224.5 c 128,-1,49
 944 1276 944 1276 887.5 1306.5 c 128,-1,50
 831 1337 831 1337 749 1337 c 0,51,52
 665 1337 665 1337 596 1297.5 c 128,-1,53
 527 1258 527 1258 473 1193 c 128,-1,54
 419 1128 419 1128 379 1044.5 c 128,-1,55
 339 961 339 961 313 872 c 128,-1,56
 287 783 287 783 274.5 696.5 c 128,-1,57
 262 610 262 610 262 539 c 0,58,59
 262 456 262 456 278.5 386.5 c 128,-1,60
 295 317 295 317 331 267 c 128,-1,61
 367 217 367 217 423 189.5 c 128,-1,62
 479 162 479 162 558 162 c 2,63,-1
 579 162 l 2,64,65
 588 162 588 162 596 163 c 128,-1,66
 604 164 604 164 613.5 166 c 128,-1,67
 623 168 623 168 636 172 c 1,68,69
 618 217 618 217 605 250.5 c 128,-1,70
 592 284 592 284 578.5 306 c 128,-1,71
 565 328 565 328 547 339 c 128,-1,72
 529 350 529 350 500 350 c 1,73,-1
 577 500 l 1,74,75
 618 500 618 500 649.5 479.5 c 128,-1,76
 681 459 681 459 708.5 418.5 c 128,-1,77
 736 378 736 378 762 317.5 c 128,-1,78
 788 257 788 257 817 177 c 1,79,-1
 841 314 l 1,41,42
EndSplineSet
Validated: 1
EndChar

StartChar: R
Encoding: 82 82 51
Width: 1300
GlyphClass: 1
Flags: W
LayerCount: 2
Fore
SplineSet
408 619 m 1,0,-1
 300 0 l 1,1,-1
 100 0 l 1,2,-1
 327 1290 l 1,3,-1
 327 1490 l 1,4,5
 361 1494 361 1494 405 1499 c 128,-1,6
 449 1504 449 1504 497.5 1508 c 128,-1,7
 546 1512 546 1512 596 1514.5 c 128,-1,8
 646 1517 646 1517 693 1517 c 0,9,10
 819 1517 819 1517 911 1489 c 128,-1,11
 1003 1461 1003 1461 1062.5 1411 c 128,-1,12
 1122 1361 1122 1361 1151 1291.5 c 128,-1,13
 1180 1222 1180 1222 1180 1139 c 0,14,15
 1180 1010 1180 1010 1135 916 c 128,-1,16
 1090 822 1090 822 1017.5 759.5 c 128,-1,17
 945 697 945 697 853.5 665 c 128,-1,18
 762 633 762 633 668 629 c 1,19,-1
 794 593 l 1,20,-1
 1133 0 l 1,21,-1
 910 0 l 1,22,-1
 571 600 l 2,23,24
 563 614 563 614 549.5 616.5 c 128,-1,25
 536 619 536 619 528 619 c 2,26,-1
 408 619 l 1,0,-1
502 1147 m 1,27,-1
 434 763 l 1,28,-1
 582 763 l 2,29,30
 673 763 673 763 749.5 786.5 c 128,-1,31
 826 810 826 810 881.5 855 c 128,-1,32
 937 900 937 900 967.5 966.5 c 128,-1,33
 998 1033 998 1033 998 1119 c 0,34,35
 998 1177 998 1177 971.5 1224.5 c 128,-1,36
 945 1272 945 1272 902.5 1305.5 c 128,-1,37
 860 1339 860 1339 805.5 1357 c 128,-1,38
 751 1375 751 1375 694 1375 c 0,39,40
 652 1375 652 1375 603.5 1373 c 128,-1,41
 555 1371 555 1371 520 1364 c 1,42,-1
 502 1147 l 1,27,-1
EndSplineSet
Validated: 1
EndChar

StartChar: S
Encoding: 83 83 52
Width: 1300
GlyphClass: 1
Flags: W
LayerCount: 2
Fore
SplineSet
1087 1252 m 1,0,1
 1056 1277 1056 1277 1026.5 1295.5 c 128,-1,2
 997 1314 997 1314 966 1326 c 128,-1,3
 935 1338 935 1338 900.5 1344 c 128,-1,4
 866 1350 866 1350 825 1350 c 0,5,6
 763 1350 763 1350 705 1332 c 128,-1,7
 647 1314 647 1314 602 1281 c 128,-1,8
 557 1248 557 1248 530 1202 c 128,-1,9
 503 1156 503 1156 503 1101 c 0,10,11
 503 1049 503 1049 527.5 1011.5 c 128,-1,12
 552 974 552 974 591.5 943.5 c 128,-1,13
 631 913 631 913 682 887 c 128,-1,14
 733 861 733 861 786.5 832.5 c 128,-1,15
 840 804 840 804 891 769.5 c 128,-1,16
 942 735 942 735 981.5 688.5 c 128,-1,17
 1021 642 1021 642 1045.5 579.5 c 128,-1,18
 1070 517 1070 517 1070 432 c 0,19,20
 1070 327 1070 327 1025.5 243.5 c 128,-1,21
 981 160 981 160 905.5 102.5 c 128,-1,22
 830 45 830 45 731 14 c 128,-1,23
 632 -17 632 -17 524 -17 c 0,24,25
 408 -17 408 -17 300.5 19.5 c 128,-1,26
 193 56 193 56 97 134 c 1,27,-1
 215 284 l 1,28,29
 241 258 241 258 275.5 234.5 c 128,-1,30
 310 211 310 211 351 193.5 c 128,-1,31
 392 176 392 176 438 165.5 c 128,-1,32
 484 155 484 155 532 155 c 0,33,34
 588 155 588 155 647 169.5 c 128,-1,35
 706 184 706 184 755 217 c 128,-1,36
 804 250 804 250 835 303 c 128,-1,37
 866 356 866 356 866 433 c 0,38,39
 866 488 866 488 841.5 529.5 c 128,-1,40
 817 571 817 571 777 604.5 c 128,-1,41
 737 638 737 638 686.5 666.5 c 128,-1,42
 636 695 636 695 583 725 c 128,-1,43
 530 755 530 755 479 789.5 c 128,-1,44
 428 824 428 824 388.5 870 c 128,-1,45
 349 916 349 916 324.5 976 c 128,-1,46
 300 1036 300 1036 300 1116 c 0,47,48
 300 1216 300 1216 344.5 1291.5 c 128,-1,49
 389 1367 389 1367 462.5 1417 c 128,-1,50
 536 1467 536 1467 632 1492 c 128,-1,51
 728 1517 728 1517 830 1517 c 0,52,53
 892 1517 892 1517 947 1504 c 128,-1,54
 1002 1491 1002 1491 1049 1470 c 128,-1,55
 1096 1449 1096 1449 1134.5 1423 c 128,-1,56
 1173 1397 1173 1397 1203 1371 c 1,57,-1
 1087 1252 l 1,0,1
EndSplineSet
Validated: 1
EndChar

StartChar: T
Encoding: 84 84 53
Width: 1300
GlyphClass: 1
Flags: W
LayerCount: 2
Fore
SplineSet
394 0 m 1,0,-1
 630 1340 l 1,1,-1
 145 1340 l 1,2,-1
 158 1500 l 1,3,-1
 1298 1500 l 1,4,-1
 1270 1340 l 1,5,-1
 830 1340 l 1,6,-1
 594 0 l 1,7,-1
 394 0 l 1,0,-1
EndSplineSet
Validated: 1
EndChar

StartChar: U
Encoding: 85 85 54
Width: 1300
GlyphClass: 1
Flags: W
LayerCount: 2
Fore
SplineSet
1226 1500 m 1,0,-1
 1054 523 l 2,1,2
 1030 387 1030 387 980 285.5 c 128,-1,3
 930 184 930 184 856.5 117 c 128,-1,4
 783 50 783 50 688 16.5 c 128,-1,5
 593 -17 593 -17 479 -17 c 0,6,7
 357 -17 357 -17 279.5 25.5 c 128,-1,8
 202 68 202 68 161.5 145.5 c 128,-1,9
 121 223 121 223 115.5 332 c 128,-1,10
 110 441 110 441 133 573 c 2,11,-1
 259 1290 l 1,12,-1
 266 1500 l 1,13,-1
 490 1520 l 1,14,-1
 320 554 l 2,15,16
 303 459 303 459 308.5 384.5 c 128,-1,17
 314 310 314 310 340 258.5 c 128,-1,18
 366 207 366 207 411 180 c 128,-1,19
 456 153 456 153 519 153 c 0,20,21
 666 153 666 153 748 240.5 c 128,-1,22
 830 328 830 328 861 504 c 2,23,-1
 1036 1500 l 1,24,-1
 1226 1500 l 1,0,-1
EndSplineSet
Validated: 33
EndChar

StartChar: V
Encoding: 86 86 55
Width: 1300
GlyphClass: 1
Flags: W
LayerCount: 2
Fore
SplineSet
469 500 m 1,0,-1
 493 140 l 1,1,-1
 597 454 l 1,2,-1
 1111 1500 l 1,3,-1
 1300 1500 l 1,4,-1
 648 180 l 1,5,-1
 587 -20 l 1,6,-1
 355 0 l 1,7,-1
 137 1500 l 1,8,-1
 326 1520 l 1,9,-1
 469 500 l 1,0,-1
EndSplineSet
Validated: 1
EndChar

StartChar: W
Encoding: 87 87 56
Width: 1300
GlyphClass: 1
Flags: W
LayerCount: 2
Fore
SplineSet
344 700 m 1,0,-1
 510 1100 l 1,1,-1
 650 1100 l 1,2,-1
 666 700 l 1,3,-1
 666 200 l 1,4,-1
 670 200 l 1,5,-1
 783 660 l 1,6,-1
 1084 1500 l 1,7,-1
 1261 1500 l 1,8,-1
 724 0 l 1,9,-1
 543 0 l 1,10,-1
 527 450 l 1,11,-1
 556 950 l 1,12,-1
 552 950 l 1,13,-1
 406 450 l 1,14,-1
 228 0 l 1,15,-1
 68 0 l 1,16,-1
 70 1500 l 1,17,-1
 234 1520 l 1,18,-1
 233 660 l 1,19,-1
 183 200 l 1,20,-1
 187 200 l 1,21,-1
 344 700 l 1,0,-1
EndSplineSet
Validated: 1
EndChar

StartChar: X
Encoding: 88 88 57
Width: 1300
GlyphClass: 1
Flags: W
LayerCount: 2
Fore
SplineSet
847 0 m 1,0,-1
 689 519 l 1,1,-1
 648 700 l 1,2,-1
 568 540 l 1,3,-1
 198 0 l 1,4,-1
 0 0 l 1,5,-1
 570 799 l 1,6,-1
 321 1500 l 1,7,-1
 537 1520 l 1,8,-1
 683 1056 l 1,9,-1
 718 860 l 1,10,-1
 777 1020 l 1,11,-1
 1107 1500 l 1,12,-1
 1300 1500 l 1,13,-1
 787 776 l 1,14,-1
 1067 0 l 1,15,-1
 847 0 l 1,0,-1
EndSplineSet
Validated: 1
EndChar

StartChar: Y
Encoding: 89 89 58
Width: 1300
GlyphClass: 1
Flags: W
LayerCount: 2
Fore
SplineSet
619 935 m 1,0,-1
 1007 1500 l 1,1,-1
 1199 1500 l 1,2,-1
 613 646 l 1,3,-1
 500 0 l 1,4,-1
 300 0 l 1,5,-1
 413 645 l 1,6,-1
 128 1500 l 1,7,-1
 336 1520 l 1,8,-1
 514 954 l 1,9,-1
 549 705 l 1,10,-1
 619 935 l 1,0,-1
EndSplineSet
Validated: 1
EndChar

StartChar: Z
Encoding: 90 90 59
Width: 1300
GlyphClass: 1
Flags: W
LayerCount: 2
Fore
SplineSet
1058 160 m 1,0,-1
 1050 0 l 1,1,-1
 21 0 l 1,2,-1
 9 50 l 1,3,-1
 867 1200 l 1,4,-1
 1083 1380 l 1,5,-1
 811 1340 l 1,6,-1
 326 1340 l 1,7,-1
 334 1500 l 1,8,-1
 1280 1500 l 1,9,-1
 1291 1478 l 1,10,-1
 422 300 l 1,11,-1
 213 120 l 1,12,-1
 485 160 l 1,13,-1
 1058 160 l 1,0,-1
EndSplineSet
Validated: 1
EndChar

StartChar: bracketleft
Encoding: 91 91 60
Width: 1300
GlyphClass: 1
Flags: W
LayerCount: 2
Fore
SplineSet
454 1320 m 1,0,-1
 468 1520 l 1,1,-1
 1034 1520 l 1,2,-1
 1007 1370 l 1,3,-1
 635 1370 l 1,4,-1
 620 1170 l 1,5,-1
 401 -70 l 1,6,-1
 346 -270 l 1,7,-1
 718 -270 l 1,8,-1
 691 -420 l 1,9,-1
 125 -420 l 1,10,-1
 183 -220 l 1,11,-1
 454 1320 l 1,0,-1
EndSplineSet
Validated: 1
EndChar

StartChar: backslash
Encoding: 92 92 61
Width: 1300
GlyphClass: 1
Flags: W
LayerCount: 2
Fore
SplineSet
303 1600 m 1,0,-1
 497 1600 l 1,1,-1
 907 -100 l 1,2,-1
 703 -100 l 1,3,-1
 303 1600 l 1,0,-1
EndSplineSet
Validated: 1
EndChar

StartChar: bracketright
Encoding: 93 93 62
Width: 1300
GlyphClass: 1
Flags: W
LayerCount: 2
Fore
SplineSet
633 -220 m 1,0,-1
 619 -420 l 1,1,-1
 53 -420 l 1,2,-1
 80 -270 l 1,3,-1
 452 -270 l 1,4,-1
 467 -70 l 1,5,-1
 686 1170 l 1,6,-1
 741 1370 l 1,7,-1
 369 1370 l 1,8,-1
 396 1520 l 1,9,-1
 962 1520 l 1,10,-1
 904 1320 l 1,11,-1
 633 -220 l 1,0,-1
EndSplineSet
Validated: 1
EndChar

StartChar: asciicircum
Encoding: 94 94 63
Width: 1300
GlyphClass: 1
Flags: W
LayerCount: 2
Fore
SplineSet
1273 912 m 1,0,-1
 1072 912 l 1,1,-1
 752 1239 l 1,2,-1
 727 1350 l 1,3,-1
 663 1241 l 1,4,-1
 239 914 l 1,5,-1
 23 914 l 1,6,-1
 681 1500 l 1,7,-1
 813 1517 l 1,8,-1
 1273 912 l 1,0,-1
EndSplineSet
Validated: 1
EndChar

StartChar: underscore
Encoding: 95 95 64
Width: 1300
GlyphClass: 1
Flags: W
LayerCount: 2
Fore
SplineSet
101 -300 m 1,0,-1
 1200 -300 l 1,1,-1
 1172 -455 l 1,2,-1
 73 -455 l 1,3,-1
 101 -300 l 1,0,-1
EndSplineSet
Validated: 1
EndChar

StartChar: grave
Encoding: 96 96 65
Width: 1300
GlyphClass: 1
Flags: W
LayerCount: 2
Fore
SplineSet
871 1200 m 1,0,-1
 721 1200 l 1,1,-1
 549 1500 l 1,2,-1
 757 1520 l 1,3,-1
 871 1200 l 1,0,-1
EndSplineSet
Validated: 1
EndChar

StartChar: a
Encoding: 97 97 66
Width: 1300
GlyphClass: 1
Flags: W
LayerCount: 2
Fore
SplineSet
927 930 m 1,0,1
 909 938 909 938 883.5 944 c 128,-1,2
 858 950 858 950 835 953 c 0,3,4
 808 957 808 957 779 958 c 0,5,6
 677 958 677 958 601 923 c 128,-1,7
 525 888 525 888 472 827 c 128,-1,8
 419 766 419 766 388 685 c 128,-1,9
 357 604 357 604 346 512 c 0,10,11
 340 462 340 462 340 421 c 0,12,13
 340 352 340 352 354 300 c 128,-1,14
 368 248 368 248 393 213.5 c 128,-1,15
 418 179 418 179 451 161.5 c 128,-1,16
 484 144 484 144 523 144 c 0,17,18
 575 144 575 144 619 158 c 128,-1,19
 663 172 663 172 699.5 195 c 128,-1,20
 736 218 736 218 766.5 247 c 128,-1,21
 797 276 797 276 821 306 c 1,22,-1
 927 930 l 1,0,1
768 0 m 1,23,-1
 796 162 l 1,24,-1
 681 49 l 2,25,26
 660 32 660 32 639.5 19.5 c 128,-1,27
 619 7 619 7 594.5 -1 c 128,-1,28
 570 -9 570 -9 538 -13 c 128,-1,29
 506 -17 506 -17 462 -17 c 0,30,31
 391 -17 391 -17 335 15 c 128,-1,32
 279 47 279 47 240 104.5 c 128,-1,33
 201 162 201 162 180.5 242 c 128,-1,34
 160 322 160 322 160 419 c 0,35,36
 160 447 160 447 161.5 476.5 c 128,-1,37
 163 506 163 506 167 536 c 0,38,39
 180 647 180 647 225 751.5 c 128,-1,40
 270 856 270 856 348.5 937 c 128,-1,41
 427 1018 427 1018 539.5 1067.5 c 128,-1,42
 652 1117 652 1117 800 1117 c 0,43,44
 884 1117 884 1117 970 1103 c 128,-1,45
 1056 1089 1056 1089 1133 1063 c 1,46,-1
 981 180 l 1,47,-1
 970 0 l 1,48,-1
 768 0 l 1,23,-1
EndSplineSet
Validated: 1
EndChar

StartChar: b
Encoding: 98 98 67
Width: 1300
GlyphClass: 1
Flags: W
LayerCount: 2
Fore
SplineSet
353 171 m 1,0,1
 388 158 388 158 439 150.5 c 128,-1,2
 490 143 490 143 565 143 c 0,3,4
 668 143 668 143 736.5 184.5 c 128,-1,5
 805 226 805 226 848.5 292 c 128,-1,6
 892 358 892 358 914.5 439.5 c 128,-1,7
 937 521 937 521 948 601 c 0,8,9
 954 646 954 646 954 686 c 0,10,11
 954 749 954 749 940.5 799 c 128,-1,12
 927 849 927 849 903.5 884.5 c 128,-1,13
 880 920 880 920 847.5 938.5 c 128,-1,14
 815 957 815 957 776 957 c 0,15,16
 733 957 733 957 695.5 952.5 c 128,-1,17
 658 948 658 948 622 935.5 c 128,-1,18
 586 923 586 923 549 901 c 128,-1,19
 512 879 512 879 471 845 c 1,20,-1
 353 171 l 1,0,1
391 1420 m 1,21,-1
 403 1600 l 1,22,-1
 608 1620 l 1,23,-1
 494 974 l 1,24,-1
 595 1065 l 1,25,26
 651 1089 651 1089 705 1103 c 128,-1,27
 759 1117 759 1117 815 1117 c 0,28,29
 890 1117 890 1117 949 1085 c 128,-1,30
 1008 1053 1008 1053 1049.5 995 c 128,-1,31
 1091 937 1091 937 1113 857.5 c 128,-1,32
 1135 778 1135 778 1135 684 c 0,33,34
 1135 663 1135 663 1133.5 641 c 128,-1,35
 1132 619 1132 619 1130 596 c 0,36,37
 1115 457 1115 457 1068.5 344 c 128,-1,38
 1022 231 1022 231 944.5 150.5 c 128,-1,39
 867 70 867 70 760 26.5 c 128,-1,40
 653 -17 653 -17 517 -17 c 0,41,42
 492 -17 492 -17 459 -15 c 128,-1,43
 426 -13 426 -13 389.5 -9 c 128,-1,44
 353 -5 353 -5 315.5 0 c 128,-1,45
 278 5 278 5 245.5 10.5 c 128,-1,46
 213 16 213 16 187 22.5 c 128,-1,47
 161 29 161 29 147 35 c 1,48,-1
 391 1420 l 1,21,-1
EndSplineSet
Validated: 1
EndChar

StartChar: c
Encoding: 99 99 68
Width: 1300
GlyphClass: 1
Flags: W
LayerCount: 2
Fore
SplineSet
1044 885 m 1,0,1
 1007 917 1007 917 943.5 937 c 128,-1,2
 880 957 880 957 775 957 c 0,3,4
 691 957 691 957 619 925.5 c 128,-1,5
 547 894 547 894 491 840 c 128,-1,6
 435 786 435 786 398 714.5 c 128,-1,7
 361 643 361 643 347 564 c 0,8,9
 338 516 338 516 338 469 c 0,10,11
 338 403 338 403 356.5 345 c 128,-1,12
 375 287 375 287 412.5 244 c 128,-1,13
 450 201 450 201 508 176.5 c 128,-1,14
 566 152 566 152 644 152 c 0,15,16
 686 152 686 152 732 165 c 128,-1,17
 778 178 778 178 820.5 195 c 128,-1,18
 863 212 863 212 896.5 230 c 128,-1,19
 930 248 930 248 947 258 c 1,20,-1
 1000 115 l 1,21,22
 970 93 970 93 926.5 70 c 128,-1,23
 883 47 883 47 830.5 27.5 c 128,-1,24
 778 8 778 8 719.5 -4.5 c 128,-1,25
 661 -17 661 -17 601 -17 c 0,26,27
 491 -17 491 -17 406 21.5 c 128,-1,28
 321 60 321 60 263 125.5 c 128,-1,29
 205 191 205 191 174.5 278.5 c 128,-1,30
 144 366 144 366 144 464 c 0,31,32
 144 492 144 492 146.5 520 c 128,-1,33
 149 548 149 548 154 577 c 0,34,35
 172 681 172 681 227.5 778.5 c 128,-1,36
 283 876 283 876 368.5 951 c 128,-1,37
 454 1026 454 1026 565 1071.5 c 128,-1,38
 676 1117 676 1117 805 1117 c 0,39,40
 927 1117 927 1117 1013.5 1088.5 c 128,-1,41
 1100 1060 1100 1060 1163 1000 c 1,42,-1
 1044 885 l 1,0,1
EndSplineSet
Validated: 1
EndChar

StartChar: d
Encoding: 100 100 69
Width: 1300
GlyphClass: 1
Flags: W
LayerCount: 2
Fore
SplineSet
715 940 m 2,0,1
 602 940 602 940 520 897.5 c 128,-1,2
 438 855 438 855 385 783.5 c 128,-1,3
 332 712 332 712 306 619.5 c 128,-1,4
 280 527 280 527 280 427 c 0,5,6
 280 355 280 355 294 302 c 128,-1,7
 308 249 308 249 333 213.5 c 128,-1,8
 358 178 358 178 392 161 c 128,-1,9
 426 144 426 144 466 144 c 0,10,11
 518 144 518 144 562 158 c 128,-1,12
 606 172 606 172 642.5 195 c 128,-1,13
 679 218 679 218 709.5 247 c 128,-1,14
 740 276 740 276 764 306 c 1,15,-1
 876 940 l 1,16,-1
 715 940 l 2,0,1
711 0 m 1,17,-1
 739 162 l 1,18,-1
 624 49 l 2,19,20
 603 32 603 32 582.5 19.5 c 128,-1,21
 562 7 562 7 537.5 -1 c 128,-1,22
 513 -9 513 -9 481 -13 c 128,-1,23
 449 -17 449 -17 405 -17 c 0,24,25
 332 -17 332 -17 275 15.5 c 128,-1,26
 218 48 218 48 179 107.5 c 128,-1,27
 140 167 140 167 120 249.5 c 128,-1,28
 100 332 100 332 100 431 c 0,29,30
 100 516 100 516 117.5 599 c 128,-1,31
 135 682 135 682 170 756 c 128,-1,32
 205 830 205 830 259 892.5 c 128,-1,33
 313 955 313 955 385.5 1001 c 128,-1,34
 458 1047 458 1047 550.5 1073 c 128,-1,35
 643 1099 643 1099 755 1100 c 2,36,-1
 904 1100 l 1,37,-1
 996 1620 l 1,38,-1
 1175 1600 l 1,39,-1
 924 180 l 1,40,-1
 913 0 l 1,41,-1
 711 0 l 1,17,-1
EndSplineSet
Validated: 1
EndChar

StartChar: e
Encoding: 101 101 70
Width: 1300
GlyphClass: 1
Flags: W
LayerCount: 2
Fore
SplineSet
1017 139 m 1,0,1
 986 112 986 112 940.5 84 c 128,-1,2
 895 56 895 56 836 33.5 c 128,-1,3
 777 11 777 11 705.5 -3 c 128,-1,4
 634 -17 634 -17 552 -17 c 0,5,6
 439 -17 439 -17 359 21.5 c 128,-1,7
 279 60 279 60 227.5 125 c 128,-1,8
 176 190 176 190 152 275.5 c 128,-1,9
 128 361 128 361 128 455 c 0,10,11
 128 502 128 502 134 550 c 0,12,13
 143 623 143 623 166.5 694 c 128,-1,14
 190 765 190 765 227.5 828 c 128,-1,15
 265 891 265 891 315.5 944 c 128,-1,16
 366 997 366 997 429 1035.5 c 128,-1,17
 492 1074 492 1074 566.5 1095.5 c 128,-1,18
 641 1117 641 1117 726 1117 c 0,19,20
 826 1117 826 1117 903.5 1089 c 128,-1,21
 981 1061 981 1061 1034 1010 c 128,-1,22
 1087 959 1087 959 1114.5 887.5 c 128,-1,23
 1142 816 1142 816 1142 729 c 0,24,25
 1142 687 1142 687 1135 646 c 0,26,27
 1130 615 1130 615 1122.5 589 c 128,-1,28
 1115 563 1115 563 1107 543 c 0,29,30
 1098 520 1098 520 1089 500 c 1,31,-1
 308 500 l 1,32,33
 302 477 302 477 299.5 456 c 128,-1,34
 297 435 297 435 297 415 c 0,35,36
 297 353 297 353 320 301 c 128,-1,37
 343 249 343 249 381 211.5 c 128,-1,38
 419 174 419 174 468 153.5 c 128,-1,39
 517 133 517 133 570 133 c 0,40,41
 634 133 634 133 690.5 145.5 c 128,-1,42
 747 158 747 158 792.5 176 c 128,-1,43
 838 194 838 194 872 213 c 128,-1,44
 906 232 906 232 925 245 c 1,45,-1
 1017 139 l 1,0,1
959 650 m 2,46,47
 961 653 961 653 964 666 c 128,-1,48
 967 679 967 679 969.5 695.5 c 128,-1,49
 972 712 972 712 973.5 727.5 c 128,-1,50
 975 743 975 743 975 752 c 0,51,52
 975 788 975 788 964 824.5 c 128,-1,53
 953 861 953 861 924 891 c 128,-1,54
 895 921 895 921 844 939.5 c 128,-1,55
 793 958 793 958 713 958 c 0,56,57
 648 958 648 958 593.5 939.5 c 128,-1,58
 539 921 539 921 495.5 889.5 c 128,-1,59
 452 858 452 858 420 817 c 128,-1,60
 388 776 388 776 368 732 c 1,61,-1
 286 623 l 1,62,-1
 479 650 l 1,63,-1
 959 650 l 2,46,47
EndSplineSet
Validated: 1
EndChar

StartChar: f
Encoding: 102 102 71
Width: 1300
GlyphClass: 1
Flags: W
LayerCount: 2
Fore
SplineSet
553 940 m 1,0,-1
 403 940 l 1,1,-1
 431 1100 l 1,2,-1
 581 1100 l 1,3,-1
 609 1255 l 2,4,5
 626 1348 626 1348 655 1416.5 c 128,-1,6
 684 1485 684 1485 728.5 1529.5 c 128,-1,7
 773 1574 773 1574 833 1596 c 128,-1,8
 893 1618 893 1618 973 1618 c 0,9,10
 981 1618 981 1618 988 1617.5 c 128,-1,11
 995 1617 995 1617 1003 1617 c 0,12,13
 1048 1615 1048 1615 1083 1607.5 c 128,-1,14
 1118 1600 1118 1600 1146 1588 c 128,-1,15
 1174 1576 1174 1576 1196 1561 c 128,-1,16
 1218 1546 1218 1546 1236 1529 c 1,17,-1
 1141 1406 l 1,18,19
 1112 1431 1112 1431 1074 1448 c 128,-1,20
 1036 1465 1036 1465 997 1465 c 2,21,-1
 986 1465 l 2,22,23
 948 1462 948 1462 916.5 1453 c 128,-1,24
 885 1444 885 1444 860 1420.5 c 128,-1,25
 835 1397 835 1397 816 1355 c 128,-1,26
 797 1313 797 1313 785 1245 c 2,27,-1
 758 1100 l 1,28,-1
 1048 1100 l 1,29,-1
 1000 940 l 1,30,-1
 735 940 l 1,31,-1
 560 -99 l 2,32,33
 550 -156 550 -156 527.5 -213.5 c 128,-1,34
 505 -271 505 -271 466 -317 c 128,-1,35
 427 -363 427 -363 370 -392 c 128,-1,36
 313 -421 313 -421 234 -421 c 2,37,-1
 215 -421 l 2,38,39
 206 -421 206 -421 195 -420 c 0,40,41
 135 -415 135 -415 102.5 -401.5 c 128,-1,42
 70 -388 70 -388 59 -382 c 1,43,-1
 124 -238 l 1,44,45
 135 -242 135 -242 159 -250.5 c 128,-1,46
 183 -259 183 -259 213 -260 c 2,47,-1
 220 -260 l 2,48,49
 256 -260 256 -260 283 -242 c 128,-1,50
 310 -224 310 -224 330 -190.5 c 128,-1,51
 350 -157 350 -157 363.5 -108.5 c 128,-1,52
 377 -60 377 -60 388 0 c 2,53,-1
 553 940 l 1,0,-1
EndSplineSet
Validated: 1
EndChar

StartChar: g
Encoding: 103 103 72
Width: 1300
GlyphClass: 1
Flags: W
LayerCount: 2
Fore
SplineSet
813 135 m 1,0,-1
 707 25 l 2,1,2
 698 20 698 20 683.5 12.5 c 128,-1,3
 669 5 669 5 648 -1.5 c 128,-1,4
 627 -8 627 -8 600 -12.5 c 128,-1,5
 573 -17 573 -17 540 -17 c 0,6,7
 455 -17 455 -17 388 17.5 c 128,-1,8
 321 52 321 52 275 114.5 c 128,-1,9
 229 177 229 177 204.5 264.5 c 128,-1,10
 180 352 180 352 180 458 c 0,11,12
 180 543 180 543 196 625 c 128,-1,13
 212 707 212 707 243 780 c 128,-1,14
 274 853 274 853 320 915 c 128,-1,15
 366 977 366 977 426.5 1022 c 128,-1,16
 487 1067 487 1067 561.5 1092 c 128,-1,17
 636 1117 636 1117 724 1117 c 0,18,19
 745 1117 745 1117 769.5 1114 c 128,-1,20
 794 1111 794 1111 818 1105.5 c 128,-1,21
 842 1100 842 1100 864 1091 c 128,-1,22
 886 1082 886 1082 903 1070 c 1,23,-1
 958 958 l 1,24,-1
 988 1121 l 1,25,-1
 1165 1100 l 1,26,-1
 963 -46 l 2,27,28
 944 -151 944 -151 900.5 -237.5 c 128,-1,29
 857 -324 857 -324 791.5 -386.5 c 128,-1,30
 726 -449 726 -449 640.5 -483 c 128,-1,31
 555 -517 555 -517 453 -517 c 0,32,33
 376 -517 376 -517 315.5 -501 c 128,-1,34
 255 -485 255 -485 211.5 -463.5 c 128,-1,35
 168 -442 168 -442 140 -420 c 128,-1,36
 112 -398 112 -398 100 -386 c 1,37,-1
 217 -276 l 1,38,39
 224 -282 224 -282 246 -295.5 c 128,-1,40
 268 -309 268 -309 301.5 -322.5 c 128,-1,41
 335 -336 335 -336 377.5 -346.5 c 128,-1,42
 420 -357 420 -357 468 -357 c 0,43,44
 530 -357 530 -357 582.5 -333.5 c 128,-1,45
 635 -310 635 -310 675.5 -267 c 128,-1,46
 716 -224 716 -224 743.5 -164 c 128,-1,47
 771 -104 771 -104 784 -31 c 2,48,-1
 813 135 l 1,0,-1
937 834 m 1,49,50
 922 855 922 855 900 877 c 128,-1,51
 878 899 878 899 848.5 917 c 128,-1,52
 819 935 819 935 781 946.5 c 128,-1,53
 743 958 743 958 697 958 c 0,54,55
 634 958 634 958 584.5 935 c 128,-1,56
 535 912 535 912 497.5 873.5 c 128,-1,57
 460 835 460 835 433.5 783.5 c 128,-1,58
 407 732 407 732 390.5 675.5 c 128,-1,59
 374 619 374 619 366.5 560 c 128,-1,60
 359 501 359 501 359 448 c 0,61,62
 359 312 359 312 405 235 c 128,-1,63
 451 158 451 158 551 145 c 0,64,65
 572 142 572 142 592 142 c 0,66,67
 634 142 634 142 669.5 153 c 128,-1,68
 705 164 705 164 735 182.5 c 128,-1,69
 765 201 765 201 790.5 225 c 128,-1,70
 816 249 816 249 838 275 c 1,71,-1
 937 834 l 1,49,50
EndSplineSet
Validated: 1
EndChar

StartChar: h
Encoding: 104 104 73
Width: 1300
GlyphClass: 1
Flags: W
LayerCount: 2
Fore
SplineSet
298 0 m 1,0,-1
 108 0 l 1,1,-1
 355 1400 l 1,2,-1
 370 1600 l 1,3,-1
 583 1620 l 1,4,-1
 465 950 l 1,5,-1
 574 1065 l 1,6,7
 618 1087 618 1087 693.5 1102 c 128,-1,8
 769 1117 769 1117 884 1117 c 0,9,10
 1009 1117 1009 1117 1072.5 1048.5 c 128,-1,11
 1136 980 1136 980 1136 849 c 0,12,13
 1136 822 1136 822 1133.5 792 c 128,-1,14
 1131 762 1131 762 1125 730 c 2,15,-1
 997 0 l 1,16,-1
 807 0 l 1,17,-1
 932 709 l 2,18,19
 941 761 941 761 941 803 c 0,20,21
 941 886 941 886 906.5 921.5 c 128,-1,22
 872 957 872 957 809 957 c 0,23,24
 749 957 749 957 692.5 945 c 128,-1,25
 636 933 636 933 587.5 914.5 c 128,-1,26
 539 896 539 896 502 874 c 128,-1,27
 465 852 465 852 445 833 c 1,28,-1
 298 0 l 1,0,-1
EndSplineSet
Validated: 1
EndChar

StartChar: i
Encoding: 105 105 74
Width: 1300
GlyphClass: 1
Flags: W
LayerCount: 2
Fore
SplineSet
630 1500 m 1,0,-1
 832 1500 l 1,1,-1
 797 1300 l 1,2,-1
 595 1300 l 1,3,-1
 630 1500 l 1,0,-1
575 980 m 1,4,-1
 455 940 l 1,5,-1
 225 940 l 1,6,-1
 250 1100 l 1,7,-1
 756 1100 l 1,8,9
 731 960 731 960 713 859 c 128,-1,10
 695 758 695 758 682.5 687 c 128,-1,11
 670 616 670 616 662.5 572 c 128,-1,12
 655 528 655 528 650.5 502 c 128,-1,13
 646 476 646 476 644 464.5 c 128,-1,14
 642 453 642 453 641 448.5 c 128,-1,15
 640 444 640 444 639.5 441.5 c 128,-1,16
 639 439 639 439 638 431 c 0,17,18
 636 417 636 417 632.5 394 c 128,-1,19
 629 371 629 371 625.5 347 c 128,-1,20
 622 323 622 323 619.5 301.5 c 128,-1,21
 617 280 617 280 617 269 c 0,22,23
 617 193 617 193 660 163 c 128,-1,24
 703 133 703 133 781 133 c 0,25,26
 807 133 807 133 839.5 145 c 128,-1,27
 872 157 872 157 904 173.5 c 128,-1,28
 936 190 936 190 963 208.5 c 128,-1,29
 990 227 990 227 1006 241 c 1,30,-1
 1054 120 l 1,31,32
 1045 112 1045 112 1015.5 89.5 c 128,-1,33
 986 67 986 67 944 43.5 c 128,-1,34
 902 20 902 20 850 1.5 c 128,-1,35
 798 -17 798 -17 743 -17 c 0,36,37
 674 -17 674 -17 616 2.5 c 128,-1,38
 558 22 558 22 516 56.5 c 128,-1,39
 474 91 474 91 450 139 c 128,-1,40
 426 187 426 187 426 244 c 0,41,42
 426 262 426 262 428 288 c 128,-1,43
 430 314 430 314 433 342.5 c 128,-1,44
 436 371 436 371 440 398.5 c 128,-1,45
 444 426 444 426 448 447 c 2,46,-1
 532 919 l 1,47,-1
 575 980 l 1,4,-1
EndSplineSet
Validated: 1
EndChar

StartChar: j
Encoding: 106 106 75
Width: 1300
GlyphClass: 1
Flags: W
LayerCount: 2
Fore
SplineSet
923 1500 m 1,0,-1
 1125 1500 l 1,1,-1
 1090 1300 l 1,2,-1
 888 1300 l 1,3,-1
 923 1500 l 1,0,-1
873 995 m 1,4,-1
 753 955 l 1,5,-1
 524 955 l 1,6,-1
 550 1100 l 1,7,-1
 1049 1100 l 1,8,-1
 838 -97 l 2,9,10
 822 -186 822 -186 797 -263 c 128,-1,11
 772 -340 772 -340 728.5 -396.5 c 128,-1,12
 685 -453 685 -453 618.5 -485 c 128,-1,13
 552 -517 552 -517 454 -517 c 0,14,15
 388 -517 388 -517 331.5 -506.5 c 128,-1,16
 275 -496 275 -496 233 -483.5 c 128,-1,17
 191 -471 191 -471 165 -459 c 128,-1,18
 139 -447 139 -447 134 -444 c 1,19,-1
 200 -290 l 1,20,21
 205 -294 205 -294 224 -304.5 c 128,-1,22
 243 -315 243 -315 273 -326.5 c 128,-1,23
 303 -338 303 -338 343 -346.5 c 128,-1,24
 383 -355 383 -355 431 -355 c 0,25,26
 478 -355 478 -355 513.5 -339 c 128,-1,27
 549 -323 549 -323 575 -292 c 128,-1,28
 601 -261 601 -261 618 -214.5 c 128,-1,29
 635 -168 635 -168 646 -107 c 2,30,-1
 830 934 l 1,31,-1
 873 995 l 1,4,-1
EndSplineSet
Validated: 1
EndChar

StartChar: k
Encoding: 107 107 76
Width: 1300
GlyphClass: 1
Flags: W
LayerCount: 2
Fore
SplineSet
160 0 m 1,0,-1
 410 1420 l 1,1,-1
 422 1600 l 1,2,-1
 627 1620 l 1,3,-1
 463 690 l 1,4,-1
 905 1100 l 1,5,-1
 1134 1100 l 1,6,-1
 692 690 l 1,7,-1
 513 627 l 1,8,-1
 670 567 l 1,9,-1
 1052 0 l 1,10,-1
 816 0 l 1,11,-1
 440 557 l 1,12,-1
 342 0 l 1,13,-1
 160 0 l 1,0,-1
EndSplineSet
Validated: 1
EndChar

StartChar: l
Encoding: 108 108 77
Width: 1300
GlyphClass: 1
Flags: W
LayerCount: 2
Fore
SplineSet
635 1475 m 1,0,-1
 515 1435 l 1,1,-1
 305 1435 l 1,2,-1
 333 1600 l 1,3,-1
 819 1600 l 1,4,-1
 603 376 l 2,5,6
 597 344 597 344 595 317.5 c 128,-1,7
 593 291 593 291 593 269 c 0,8,9
 593 193 593 193 636 163 c 128,-1,10
 679 133 679 133 757 133 c 0,11,12
 783 133 783 133 815.5 145 c 128,-1,13
 848 157 848 157 880 173.5 c 128,-1,14
 912 190 912 190 939 208.5 c 128,-1,15
 966 227 966 227 982 241 c 1,16,-1
 1030 120 l 1,17,18
 1021 112 1021 112 991.5 89.5 c 128,-1,19
 962 67 962 67 920 43.5 c 128,-1,20
 878 20 878 20 826 1.5 c 128,-1,21
 774 -17 774 -17 719 -17 c 0,22,23
 650 -17 650 -17 592 2.5 c 128,-1,24
 534 22 534 22 492 56.5 c 128,-1,25
 450 91 450 91 426 139 c 128,-1,26
 402 187 402 187 402 244 c 0,27,28
 402 280 402 280 406 319 c 128,-1,29
 410 358 410 358 418 400 c 2,30,-1
 592 1414 l 1,31,-1
 635 1475 l 1,0,-1
EndSplineSet
Validated: 1
EndChar

StartChar: m
Encoding: 109 109 78
Width: 1300
GlyphClass: 1
Flags: W
LayerCount: 2
Fore
SplineSet
200 0 m 1,0,-1
 23 0 l 1,1,-1
 216 1100 l 1,2,-1
 397 1121 l 1,3,-1
 365 937 l 1,4,5
 393 977 393 977 408 999.5 c 128,-1,6
 423 1022 423 1022 430.5 1032.5 c 128,-1,7
 438 1043 438 1043 440 1045.5 c 128,-1,8
 442 1048 442 1048 443 1048 c 0,9,10
 454 1057 454 1057 469.5 1069 c 128,-1,11
 485 1081 485 1081 506.5 1091.5 c 128,-1,12
 528 1102 528 1102 557.5 1109.5 c 128,-1,13
 587 1117 587 1117 626 1117 c 0,14,15
 682 1117 682 1117 715.5 1102.5 c 128,-1,16
 749 1088 749 1088 767 1062.5 c 128,-1,17
 785 1037 785 1037 792.5 1001 c 128,-1,18
 800 965 800 965 803 923 c 1,19,-1
 887 1043 l 2,20,21
 898 1052 898 1052 919.5 1065 c 128,-1,22
 941 1078 941 1078 969 1089.5 c 128,-1,23
 997 1101 997 1101 1028.5 1109 c 128,-1,24
 1060 1117 1060 1117 1092 1117 c 0,25,26
 1168 1117 1168 1117 1208 1091.5 c 128,-1,27
 1248 1066 1248 1066 1262 1018 c 128,-1,28
 1276 970 1276 970 1270.5 902 c 128,-1,29
 1265 834 1265 834 1250 750 c 2,30,-1
 1118 0 l 1,31,-1
 940 0 l 1,32,-1
 1070 740 l 2,33,34
 1080 794 1080 794 1085.5 834.5 c 128,-1,35
 1091 875 1091 875 1085.5 902.5 c 128,-1,36
 1080 930 1080 930 1060 943.5 c 128,-1,37
 1040 957 1040 957 999 957 c 0,38,39
 979 957 979 957 951 944.5 c 128,-1,40
 923 932 923 932 894.5 912.5 c 128,-1,41
 866 893 866 893 840.5 868.5 c 128,-1,42
 815 844 815 844 800 819 c 0,43,44
 799 813 799 813 797 799.5 c 128,-1,45
 795 786 795 786 793 771.5 c 128,-1,46
 791 757 791 757 789 744.5 c 128,-1,47
 787 732 787 732 786 727 c 2,48,-1
 658 0 l 1,49,-1
 479 0 l 1,50,-1
 606 720 l 2,51,52
 615 774 615 774 621 818 c 128,-1,53
 627 862 627 862 622 892.5 c 128,-1,54
 617 923 617 923 596.5 940 c 128,-1,55
 576 957 576 957 533 957 c 0,56,57
 517 957 517 957 493.5 948 c 128,-1,58
 470 939 470 939 444 921.5 c 128,-1,59
 418 904 418 904 392 879.5 c 128,-1,60
 366 855 366 855 345 824 c 1,61,-1
 200 0 l 1,0,-1
EndSplineSet
Validated: 33
EndChar

StartChar: n
Encoding: 110 110 79
Width: 1300
GlyphClass: 1
Flags: W
LayerCount: 2
Fore
SplineSet
292 0 m 1,0,-1
 102 0 l 1,1,-1
 296 1100 l 1,2,-1
 489 1121 l 1,3,-1
 455 927 l 1,4,-1
 537 1044 l 1,5,6
 557 1056 557 1056 586 1069 c 128,-1,7
 615 1082 615 1082 655 1092.5 c 128,-1,8
 695 1103 695 1103 746.5 1110 c 128,-1,9
 798 1117 798 1117 863 1117 c 0,10,11
 1000 1117 1000 1117 1071 1044.5 c 128,-1,12
 1142 972 1142 972 1142 844 c 0,13,14
 1142 799 1142 799 1133 750 c 2,15,-1
 1001 0 l 1,16,-1
 811 0 l 1,17,-1
 943 750 l 2,18,19
 945 764 945 764 946.5 777 c 128,-1,20
 948 790 948 790 948 802 c 0,21,22
 948 851 948 851 935.5 881.5 c 128,-1,23
 923 912 923 912 899.5 929 c 128,-1,24
 876 946 876 946 843 951.5 c 128,-1,25
 810 957 810 957 770 957 c 0,26,27
 717 957 717 957 670 945 c 128,-1,28
 623 933 623 933 581.5 914.5 c 128,-1,29
 540 896 540 896 504.5 874.5 c 128,-1,30
 469 853 469 853 439 834 c 1,31,-1
 292 0 l 1,0,-1
EndSplineSet
Validated: 1
EndChar

StartChar: o
Encoding: 111 111 80
Width: 1300
GlyphClass: 1
Flags: W
LayerCount: 2
Fore
SplineSet
567 -17 m 0,0,1
 468 -17 468 -17 386.5 18 c 128,-1,2
 305 53 305 53 246.5 117 c 128,-1,3
 188 181 188 181 156 271.5 c 128,-1,4
 124 362 124 362 124 473 c 0,5,6
 124 616 124 616 168.5 734.5 c 128,-1,7
 213 853 213 853 292.5 938 c 128,-1,8
 372 1023 372 1023 482.5 1070 c 128,-1,9
 593 1117 593 1117 726 1117 c 0,10,11
 828 1117 828 1117 911 1084 c 128,-1,12
 994 1051 994 1051 1053 988.5 c 128,-1,13
 1112 926 1112 926 1144 835.5 c 128,-1,14
 1176 745 1176 745 1176 631 c 0,15,16
 1176 482 1176 482 1133.5 362 c 128,-1,17
 1091 242 1091 242 1012 158 c 128,-1,18
 933 74 933 74 820.5 28.5 c 128,-1,19
 708 -17 708 -17 567 -17 c 0,0,1
993 622 m 0,20,21
 993 697 993 697 975 759.5 c 128,-1,22
 957 822 957 822 921 867.5 c 128,-1,23
 885 913 885 913 831.5 938 c 128,-1,24
 778 963 778 963 706 963 c 0,25,26
 641 963 641 963 586 943.5 c 128,-1,27
 531 924 531 924 487 890 c 128,-1,28
 443 856 443 856 409 809.5 c 128,-1,29
 375 763 375 763 352.5 709.5 c 128,-1,30
 330 656 330 656 318.5 597 c 128,-1,31
 307 538 307 538 307 480 c 0,32,33
 307 405 307 405 324 342 c 128,-1,34
 341 279 341 279 375.5 233.5 c 128,-1,35
 410 188 410 188 462.5 163 c 128,-1,36
 515 138 515 138 586 138 c 0,37,38
 650 138 650 138 705 157.5 c 128,-1,39
 760 177 760 177 805 211.5 c 128,-1,40
 850 246 850 246 885 292.5 c 128,-1,41
 920 339 920 339 944 393 c 128,-1,42
 968 447 968 447 980.5 505.5 c 128,-1,43
 993 564 993 564 993 622 c 0,20,21
EndSplineSet
Validated: 1
EndChar

StartChar: p
Encoding: 112 112 81
Width: 1300
GlyphClass: 1
Flags: W
LayerCount: 2
Fore
SplineSet
572 160 m 2,0,1
 686 160 686 160 765.5 202 c 128,-1,2
 845 244 845 244 895 315.5 c 128,-1,3
 945 387 945 387 968 480.5 c 128,-1,4
 991 574 991 574 991 677 c 0,5,6
 991 815 991 815 931.5 887.5 c 128,-1,7
 872 960 872 960 768 960 c 0,8,9
 693 960 693 960 630 922.5 c 128,-1,10
 567 885 567 885 507 827 c 1,11,-1
 390 160 l 1,12,-1
 572 160 l 2,0,1
273 -500 m 1,13,-1
 91 -500 l 1,14,-1
 373 1100 l 1,15,-1
 559 1121 l 1,16,-1
 528 944 l 1,17,-1
 623 1047 l 1,18,19
 643 1060 643 1060 664 1072.5 c 128,-1,20
 685 1085 685 1085 709.5 1095 c 128,-1,21
 734 1105 734 1105 764.5 1111 c 128,-1,22
 795 1117 795 1117 834 1117 c 0,23,24
 907 1117 907 1117 969.5 1089 c 128,-1,25
 1032 1061 1032 1061 1077 1007 c 128,-1,26
 1122 953 1122 953 1147.5 874.5 c 128,-1,27
 1173 796 1173 796 1173 695 c 0,28,29
 1173 553 1173 553 1134 427 c 128,-1,30
 1095 301 1095 301 1013.5 206 c 128,-1,31
 932 111 932 111 806.5 55.5 c 128,-1,32
 681 0 681 0 508 0 c 2,33,-1
 362 0 l 1,34,-1
 273 -500 l 1,13,-1
EndSplineSet
Validated: 1
EndChar

StartChar: q
Encoding: 113 113 82
Width: 1300
GlyphClass: 1
Flags: W
LayerCount: 2
Fore
SplineSet
933 935 m 1,0,1
 913 939 913 939 887 943 c 128,-1,2
 861 947 861 947 831.5 950 c 128,-1,3
 802 953 802 953 771.5 955 c 128,-1,4
 741 957 741 957 713 957 c 0,5,6
 638 957 638 957 581.5 932 c 128,-1,7
 525 907 525 907 483.5 865.5 c 128,-1,8
 442 824 442 824 414.5 770 c 128,-1,9
 387 716 387 716 370.5 657 c 128,-1,10
 354 598 354 598 347 538 c 128,-1,11
 340 478 340 478 340 425 c 0,12,13
 340 277 340 277 394 208.5 c 128,-1,14
 448 140 448 140 545 140 c 0,15,16
 615 140 615 140 685 177 c 128,-1,17
 755 214 755 214 816 270 c 1,18,-1
 933 935 l 1,0,1
792 136 m 1,19,-1
 669 29 l 1,20,21
 641 17 641 17 618 8.5 c 128,-1,22
 595 0 595 0 572.5 -6 c 128,-1,23
 550 -12 550 -12 525.5 -14.5 c 128,-1,24
 501 -17 501 -17 470 -17 c 0,25,26
 397 -17 397 -17 338.5 13.5 c 128,-1,27
 280 44 280 44 239.5 101.5 c 128,-1,28
 199 159 199 159 177 242.5 c 128,-1,29
 155 326 155 326 155 432 c 0,30,31
 155 577 155 577 197 702 c 128,-1,32
 239 827 239 827 314.5 919 c 128,-1,33
 390 1011 390 1011 495.5 1064 c 128,-1,34
 601 1117 601 1117 727 1117 c 0,35,36
 793 1117 793 1117 845 1113 c 128,-1,37
 897 1109 897 1109 943.5 1101.5 c 128,-1,38
 990 1094 990 1094 1036.5 1084.5 c 128,-1,39
 1083 1075 1083 1075 1138 1065 c 1,40,-1
 862 -500 l 1,41,-1
 680 -500 l 1,42,-1
 792 136 l 1,19,-1
EndSplineSet
Validated: 1
EndChar

StartChar: r
Encoding: 114 114 83
Width: 1300
GlyphClass: 1
Flags: W
LayerCount: 2
Fore
SplineSet
448 895 m 1,0,-1
 566 1053 l 1,1,2
 598 1074 598 1074 636 1087 c 128,-1,3
 674 1100 674 1100 713.5 1106.5 c 128,-1,4
 753 1113 753 1113 792 1115 c 128,-1,5
 831 1117 831 1117 866 1117 c 0,6,7
 918 1117 918 1117 961 1110 c 128,-1,8
 1004 1103 1004 1103 1037 1093 c 128,-1,9
 1070 1083 1070 1083 1092 1072 c 128,-1,10
 1114 1061 1114 1061 1125 1053 c 1,11,-1
 1125 800 l 1,12,-1
 980 779 l 1,13,-1
 961 948 l 1,14,15
 947 953 947 953 919 960.5 c 128,-1,16
 891 968 891 968 846 968 c 0,17,18
 778 968 778 968 716 949 c 128,-1,19
 654 930 654 930 600 899 c 128,-1,20
 546 868 546 868 501 829 c 128,-1,21
 456 790 456 790 422 750 c 1,22,-1
 290 0 l 1,23,-1
 100 0 l 1,24,-1
 294 1100 l 1,25,-1
 487 1121 l 1,26,-1
 448 895 l 1,0,-1
EndSplineSet
Validated: 1
EndChar

StartChar: s
Encoding: 115 115 84
Width: 1300
GlyphClass: 1
Flags: W
LayerCount: 2
Fore
SplineSet
1065 909 m 1,0,1
 1048 918 1048 918 1015.5 928.5 c 128,-1,2
 983 939 983 939 946.5 948 c 128,-1,3
 910 957 910 957 874 962.5 c 128,-1,4
 838 968 838 968 813 968 c 0,5,6
 760 968 760 968 700.5 962.5 c 128,-1,7
 641 957 641 957 590.5 940.5 c 128,-1,8
 540 924 540 924 507 894.5 c 128,-1,9
 474 865 474 865 474 817 c 0,10,11
 474 784 474 784 498.5 760 c 128,-1,12
 523 736 523 736 562.5 718 c 128,-1,13
 602 700 602 700 652.5 686 c 128,-1,14
 703 672 703 672 754 660 c 128,-1,15
 805 648 805 648 852 636 c 128,-1,16
 899 624 899 624 933 610 c 0,17,18
 970 595 970 595 1003 573 c 128,-1,19
 1036 551 1036 551 1060 522.5 c 128,-1,20
 1084 494 1084 494 1098 459 c 128,-1,21
 1112 424 1112 424 1112 383 c 0,22,23
 1112 305 1112 305 1081.5 245 c 128,-1,24
 1051 185 1051 185 999.5 140.5 c 128,-1,25
 948 96 948 96 882 66 c 128,-1,26
 816 36 816 36 745.5 17.5 c 128,-1,27
 675 -1 675 -1 604.5 -9 c 128,-1,28
 534 -17 534 -17 475 -17 c 0,29,30
 441 -17 441 -17 391.5 -10.5 c 128,-1,31
 342 -4 342 -4 291.5 7.5 c 128,-1,32
 241 19 241 19 197 35 c 128,-1,33
 153 51 153 51 130 69 c 1,34,-1
 221 211 l 1,35,36
 243 199 243 199 280 187 c 128,-1,37
 317 175 317 175 358 165 c 128,-1,38
 399 155 399 155 438.5 149 c 128,-1,39
 478 143 478 143 505 143 c 0,40,41
 535 143 535 143 575 147 c 128,-1,42
 615 151 615 151 657 160.5 c 128,-1,43
 699 170 699 170 740.5 185.5 c 128,-1,44
 782 201 782 201 814 225 c 128,-1,45
 846 249 846 249 866 282 c 128,-1,46
 886 315 886 315 886 359 c 0,47,48
 886 394 886 394 863.5 418.5 c 128,-1,49
 841 443 841 443 804.5 460.5 c 128,-1,50
 768 478 768 478 721 491 c 128,-1,51
 674 504 674 504 624.5 515.5 c 128,-1,52
 575 527 575 527 527.5 538.5 c 128,-1,53
 480 550 480 550 442 566 c 0,54,55
 397 585 397 585 366 608.5 c 128,-1,56
 335 632 335 632 316 659 c 128,-1,57
 297 686 297 686 288.5 716.5 c 128,-1,58
 280 747 280 747 280 779 c 0,59,60
 280 875 280 875 326 939.5 c 128,-1,61
 372 1004 372 1004 448.5 1043.5 c 128,-1,62
 525 1083 525 1083 625 1100 c 128,-1,63
 725 1117 725 1117 833 1117 c 0,64,65
 871 1117 871 1117 918 1111 c 128,-1,66
 965 1105 965 1105 1010 1095 c 128,-1,67
 1055 1085 1055 1085 1092 1072.5 c 128,-1,68
 1129 1060 1129 1060 1147 1047 c 1,69,-1
 1065 909 l 1,0,1
EndSplineSet
Validated: 1
EndChar

StartChar: t
Encoding: 116 116 85
Width: 1300
GlyphClass: 1
Flags: W
LayerCount: 2
Fore
SplineSet
533 376 m 2,0,1
 521 307 521 307 521 261 c 0,2,3
 521 195 521 195 543 169 c 128,-1,4
 565 143 565 143 607 143 c 0,5,6
 654 143 654 143 702 154 c 128,-1,7
 750 165 750 165 792.5 179.5 c 128,-1,8
 835 194 835 194 868.5 208.5 c 128,-1,9
 902 223 902 223 920 230 c 1,10,-1
 968 109 l 1,11,12
 957 101 957 101 919 80.5 c 128,-1,13
 881 60 881 60 824.5 38 c 128,-1,14
 768 16 768 16 699.5 -0.5 c 128,-1,15
 631 -17 631 -17 559 -17 c 0,16,17
 493 -17 493 -17 448.5 1 c 128,-1,18
 404 19 404 19 377.5 52 c 128,-1,19
 351 85 351 85 340 130 c 128,-1,20
 329 175 329 175 329 229 c 0,21,22
 329 268 329 268 334 311 c 128,-1,23
 339 354 339 354 347 400 c 2,24,-1
 443 940 l 1,25,-1
 142 940 l 1,26,-1
 170 1100 l 1,27,-1
 471 1100 l 1,28,-1
 508 1309 l 1,29,-1
 712 1420 l 1,30,-1
 656 1100 l 1,31,-1
 1096 1100 l 1,32,-1
 1048 940 l 1,33,-1
 633 940 l 1,34,-1
 533 376 l 2,0,1
EndSplineSet
Validated: 1
EndChar

StartChar: u
Encoding: 117 117 86
Width: 1300
GlyphClass: 1
Flags: W
LayerCount: 2
Fore
SplineSet
967 1100 m 1,0,-1
 1161 1121 l 1,1,-1
 963 0 l 1,2,-1
 773 0 l 1,3,-1
 802 163 l 1,4,-1
 722 56 l 1,5,6
 698 42 698 42 675 29 c 128,-1,7
 652 16 652 16 620.5 6 c 128,-1,8
 589 -4 589 -4 542.5 -10.5 c 128,-1,9
 496 -17 496 -17 425 -17 c 0,10,11
 356 -17 356 -17 300 9 c 128,-1,12
 244 35 244 35 204.5 80.5 c 128,-1,13
 165 126 165 126 143.5 187 c 128,-1,14
 122 248 122 248 122 318 c 0,15,16
 122 338 122 338 123.5 359 c 128,-1,17
 125 380 125 380 129 401 c 2,18,-1
 257 1100 l 1,19,-1
 451 1121 l 1,20,-1
 319 401 l 2,21,22
 315 381 315 381 313.5 362.5 c 128,-1,23
 312 344 312 344 312 326 c 0,24,25
 312 286 312 286 322 252.5 c 128,-1,26
 332 219 332 219 354.5 194.5 c 128,-1,27
 377 170 377 170 412.5 156.5 c 128,-1,28
 448 143 448 143 498 143 c 0,29,30
 564 143 564 143 612.5 153 c 128,-1,31
 661 163 661 163 698 179.5 c 128,-1,32
 735 196 735 196 763.5 216.5 c 128,-1,33
 792 237 792 237 819 258 c 1,34,-1
 967 1100 l 1,0,-1
EndSplineSet
Validated: 1
EndChar

StartChar: v
Encoding: 118 118 87
Width: 1300
GlyphClass: 1
Flags: W
LayerCount: 2
Fore
SplineSet
1202 1121 m 1,0,-1
 530 -20 l 1,1,-1
 328 0 l 1,2,-1
 164 1100 l 1,3,-1
 351 1121 l 1,4,-1
 460 381 l 1,5,-1
 472 149 l 1,6,-1
 563 381 l 1,7,-1
 983 1100 l 1,8,-1
 1202 1121 l 1,0,-1
EndSplineSet
Validated: 1
EndChar

StartChar: w
Encoding: 119 119 88
Width: 1300
GlyphClass: 1
Flags: W
LayerCount: 2
Fore
SplineSet
737 400 m 1,0,-1
 754 150 l 1,1,-1
 823 480 l 1,2,-1
 1063 1100 l 1,3,-1
 1229 1121 l 1,4,-1
 813 0 l 1,5,-1
 666 0 l 1,6,-1
 595 348 l 1,7,-1
 610 750 l 1,8,-1
 485 350 l 1,9,-1
 293 0 l 1,10,-1
 146 0 l 1,11,-1
 146 1100 l 1,12,-1
 299 1121 l 1,13,-1
 300 480 l 1,14,-1
 263 150 l 1,15,-1
 558 885 l 1,16,-1
 711 885 l 1,17,-1
 737 400 l 1,0,-1
EndSplineSet
Validated: 1
EndChar

StartChar: x
Encoding: 120 120 89
Width: 1300
GlyphClass: 1
Flags: W
LayerCount: 2
Fore
SplineSet
851 0 m 1,0,-1
 650 382 l 1,1,-1
 626 500 l 1,2,-1
 560 382 l 1,3,-1
 225 0 l 1,4,-1
 26 0 l 1,5,-1
 541 588 l 1,6,-1
 273 1100 l 1,7,-1
 487 1121 l 1,8,-1
 663 781 l 1,9,-1
 683 670 l 1,10,-1
 740 781 l 1,11,-1
 1021 1100 l 1,12,-1
 1236 1121 l 1,13,-1
 767 583 l 1,14,-1
 1076 0 l 1,15,-1
 851 0 l 1,0,-1
EndSplineSet
Validated: 1
EndChar

StartChar: y
Encoding: 121 121 90
Width: 1300
GlyphClass: 1
Flags: W
LayerCount: 2
Fore
SplineSet
666 364 m 1,0,-1
 1064 1100 l 1,1,-1
 1257 1121 l 1,2,-1
 644 -17 l 2,3,4
 580 -136 580 -136 529.5 -223 c 128,-1,5
 479 -310 479 -310 430 -367 c 128,-1,6
 381 -424 381 -424 327.5 -452 c 128,-1,7
 274 -480 274 -480 204 -480 c 2,8,-1
 200 -480 l 2,9,10
 135 -480 135 -480 89 -459.5 c 128,-1,11
 43 -439 43 -439 8 -403 c 1,12,-1
 100 -296 l 1,13,14
 114 -308 114 -308 141 -317.5 c 128,-1,15
 168 -327 168 -327 192 -328 c 2,16,-1
 196 -328 l 2,17,18
 232 -328 232 -328 260 -314 c 128,-1,19
 288 -300 288 -300 317 -267.5 c 128,-1,20
 346 -235 346 -235 380 -181 c 128,-1,21
 414 -127 414 -127 462 -47 c 1,22,-1
 247 1100 l 1,23,-1
 420 1121 l 1,24,25
 431 1064 431 1064 442 1002 c 2,26,-1
 464 880 l 2,27,28
 477 813 477 813 491 742 c 0,29,30
 522 576 522 576 562 364 c 1,31,-1
 573 132 l 1,32,-1
 666 364 l 1,0,-1
EndSplineSet
Validated: 1
EndChar

StartChar: z
Encoding: 122 122 91
Width: 1300
GlyphClass: 1
Flags: W
LayerCount: 2
Fore
SplineSet
1008 160 m 1,0,-1
 1000 0 l 1,1,-1
 181 0 l 1,2,-1
 169 50 l 1,3,-1
 769 826 l 1,4,-1
 948 980 l 1,5,-1
 736 940 l 1,6,-1
 313 940 l 1,7,-1
 321 1100 l 1,8,-1
 1125 1100 l 1,9,-1
 1137 1051 l 1,10,-1
 552 280 l 1,11,-1
 373 120 l 1,12,-1
 585 160 l 1,13,-1
 1008 160 l 1,0,-1
EndSplineSet
Validated: 1
EndChar

StartChar: braceleft
Encoding: 123 123 92
Width: 1300
GlyphClass: 1
Flags: W
LayerCount: 2
Fore
SplineSet
148 625 m 1,0,-1
 270 625 l 1,1,2
 328 631 328 631 361.5 648.5 c 128,-1,3
 395 666 395 666 414.5 696.5 c 128,-1,4
 434 727 434 727 444 772.5 c 128,-1,5
 454 818 454 818 465 880 c 2,6,-1
 507 1119 l 2,7,8
 526 1227 526 1227 555 1304.5 c 128,-1,9
 584 1382 584 1382 629.5 1431.5 c 128,-1,10
 675 1481 675 1481 740 1502 c 128,-1,11
 805 1523 805 1523 897 1519 c 0,12,13
 942 1517 942 1517 973 1513 c 128,-1,14
 1004 1509 1004 1509 1027.5 1503.5 c 128,-1,15
 1051 1498 1051 1498 1071 1490 c 128,-1,16
 1091 1482 1091 1482 1113 1472 c 1,17,-1
 1028 1349 l 1,18,19
 999 1364 999 1364 961 1369.5 c 128,-1,20
 923 1375 923 1375 892 1374 c 0,21,22
 840 1372 840 1372 807.5 1356 c 128,-1,23
 775 1340 775 1340 754 1309 c 128,-1,24
 733 1278 733 1278 720.5 1230.5 c 128,-1,25
 708 1183 708 1183 697 1119 c 2,26,-1
 655 880 l 2,27,28
 643 809 643 809 631 759 c 128,-1,29
 619 709 619 709 601 671.5 c 128,-1,30
 583 634 583 634 556.5 605.5 c 128,-1,31
 530 577 530 577 489 550 c 1,32,33
 507 529 507 529 520 490.5 c 128,-1,34
 533 452 533 452 539.5 406 c 128,-1,35
 546 360 546 360 545.5 311 c 128,-1,36
 545 262 545 262 538 220 c 2,37,-1
 496 -20 l 2,38,39
 485 -82 485 -82 479.5 -130 c 128,-1,40
 474 -178 474 -178 483 -210 c 128,-1,41
 492 -242 492 -242 519.5 -258.5 c 128,-1,42
 547 -275 547 -275 601 -275 c 0,43,44
 609 -277 609 -277 617 -277 c 2,45,-1
 633 -277 l 2,46,47
 645 -277 645 -277 660.5 -275 c 128,-1,48
 676 -273 676 -273 691.5 -269 c 128,-1,49
 707 -265 707 -265 721.5 -260.5 c 128,-1,50
 736 -256 736 -256 746 -250 c 1,51,-1
 788 -373 l 1,52,53
 765 -383 765 -383 743 -392.5 c 128,-1,54
 721 -402 721 -402 694.5 -408.5 c 128,-1,55
 668 -415 668 -415 634.5 -418.5 c 128,-1,56
 601 -422 601 -422 555 -420 c 0,57,58
 464 -417 464 -417 409 -380.5 c 128,-1,59
 354 -344 354 -344 327 -287.5 c 128,-1,60
 300 -231 300 -231 297 -161 c 128,-1,61
 294 -91 294 -91 306 -20 c 2,62,-1
 348 220 l 2,63,64
 359 284 359 284 363.5 332 c 128,-1,65
 368 380 368 380 358.5 411.5 c 128,-1,66
 349 443 349 443 322 459 c 128,-1,67
 295 475 295 475 243 475 c 2,68,-1
 121 475 l 1,69,-1
 148 625 l 1,0,-1
EndSplineSet
Validated: 33
EndChar

StartChar: bar
Encoding: 124 124 93
Width: 1300
GlyphClass: 1
Flags: W
LayerCount: 2
Fore
SplineSet
762 1520 m 1,0,-1
 423 -400 l 1,1,-1
 229 -400 l 1,2,-1
 564 1500 l 1,3,-1
 762 1520 l 1,0,-1
EndSplineSet
Validated: 1
EndChar

StartChar: braceright
Encoding: 125 125 94
Width: 1300
GlyphClass: 1
Flags: W
LayerCount: 2
Fore
SplineSet
1047 481 m 1,0,-1
 925 481 l 1,1,2
 867 475 867 475 833.5 457.5 c 128,-1,3
 800 440 800 440 780.5 409.5 c 128,-1,4
 761 379 761 379 751 333.5 c 128,-1,5
 741 288 741 288 730 226 c 2,6,-1
 688 -13 l 2,7,8
 669 -121 669 -121 640 -198.5 c 128,-1,9
 611 -276 611 -276 565.5 -325.5 c 128,-1,10
 520 -375 520 -375 454.5 -396.5 c 128,-1,11
 389 -418 389 -418 298 -413 c 0,12,13
 253 -411 253 -411 222 -407 c 128,-1,14
 191 -403 191 -403 167.5 -397.5 c 128,-1,15
 144 -392 144 -392 124 -384 c 128,-1,16
 104 -376 104 -376 82 -366 c 1,17,-1
 167 -243 l 1,18,19
 196 -258 196 -258 234 -263.5 c 128,-1,20
 272 -269 272 -269 303 -268 c 0,21,22
 355 -266 355 -266 387.5 -250 c 128,-1,23
 420 -234 420 -234 441 -203 c 128,-1,24
 462 -172 462 -172 474.5 -125 c 128,-1,25
 487 -78 487 -78 498 -13 c 2,26,-1
 540 226 l 2,27,28
 552 296 552 296 564 346.5 c 128,-1,29
 576 397 576 397 594 434.5 c 128,-1,30
 612 472 612 472 638.5 500.5 c 128,-1,31
 665 529 665 529 706 556 c 1,32,33
 688 577 688 577 675 615.5 c 128,-1,34
 662 654 662 654 655.5 700 c 128,-1,35
 649 746 649 746 649 795 c 128,-1,36
 649 844 649 844 657 886 c 2,37,-1
 699 1126 l 2,38,39
 710 1188 710 1188 715.5 1235.5 c 128,-1,40
 721 1283 721 1283 712 1315.5 c 128,-1,41
 703 1348 703 1348 675.5 1364.5 c 128,-1,42
 648 1381 648 1381 594 1381 c 0,43,44
 586 1383 586 1383 578 1383 c 2,45,-1
 562 1383 l 2,46,47
 550 1383 550 1383 534.5 1381 c 128,-1,48
 519 1379 519 1379 503.5 1375 c 128,-1,49
 488 1371 488 1371 473.5 1366.5 c 128,-1,50
 459 1362 459 1362 449 1356 c 1,51,-1
 407 1479 l 1,52,53
 430 1489 430 1489 452 1498.5 c 128,-1,54
 474 1508 474 1508 500.5 1514.5 c 128,-1,55
 527 1521 527 1521 560.5 1524.5 c 128,-1,56
 594 1528 594 1528 640 1526 c 0,57,58
 731 1523 731 1523 786 1486.5 c 128,-1,59
 841 1450 841 1450 868 1393.5 c 128,-1,60
 895 1337 895 1337 898 1267 c 128,-1,61
 901 1197 901 1197 889 1126 c 2,62,-1
 847 886 l 2,63,64
 836 822 836 822 831.5 774 c 128,-1,65
 827 726 827 726 836.5 694.5 c 128,-1,66
 846 663 846 663 873 647 c 128,-1,67
 900 631 900 631 952 631 c 2,68,-1
 1074 631 l 1,69,-1
 1047 481 l 1,0,-1
EndSplineSet
Validated: 33
EndChar

StartChar: asciitilde
Encoding: 126 126 95
Width: 1300
GlyphClass: 1
Flags: W
LayerCount: 2
Fore
SplineSet
78 484 m 1,0,1
 97 550 97 550 136.5 611.5 c 128,-1,2
 176 673 176 673 228.5 719 c 128,-1,3
 281 765 281 765 343.5 789 c 128,-1,4
 406 813 406 813 472 805 c 0,5,6
 517 799 517 799 555.5 781 c 128,-1,7
 594 763 594 763 628.5 740 c 128,-1,8
 663 717 663 717 695.5 692.5 c 128,-1,9
 728 668 728 668 760 649 c 128,-1,10
 792 630 792 630 825 620 c 128,-1,11
 858 610 858 610 895 616 c 0,12,13
 967 628 967 628 1015.5 670 c 128,-1,14
 1064 712 1064 712 1099 792 c 1,15,-1
 1242 776 l 1,16,17
 1222 703 1222 703 1181 634 c 128,-1,18
 1140 565 1140 565 1085.5 514 c 128,-1,19
 1031 463 1031 463 966.5 436.5 c 128,-1,20
 902 410 902 410 836 422 c 0,21,22
 800 428 800 428 765 446.5 c 128,-1,23
 730 465 730 465 695 488 c 128,-1,24
 660 511 660 511 625 535.5 c 128,-1,25
 590 560 590 560 555 578.5 c 128,-1,26
 520 597 520 597 485 607 c 128,-1,27
 450 617 450 617 414 611 c 0,28,29
 353 600 353 600 304 567 c 128,-1,30
 255 534 255 534 224 468 c 1,31,-1
 78 484 l 1,0,1
EndSplineSet
Validated: 33
EndChar

StartChar: exclamdown
Encoding: 161 161 97
Width: 1300
GlyphClass: 1
Flags: W
LayerCount: 2
Fore
SplineSet
196 -396 m 1,0,-1
 381 654 l 1,1,-1
 585 675 l 1,2,-1
 396 -396 l 1,3,-1
 196 -396 l 1,0,-1
664 998 m 0,4,5
 664 968 664 968 651 944 c 128,-1,6
 638 920 638 920 617 904 c 128,-1,7
 596 888 596 888 570.5 880.5 c 128,-1,8
 545 873 545 873 521 877 c 256,9,10
 497 881 497 881 479 893 c 128,-1,11
 461 905 461 905 448.5 922.5 c 128,-1,12
 436 940 436 940 429.5 959.5 c 128,-1,13
 423 979 423 979 422 998 c 0,14,15
 421 1028 421 1028 432.5 1052.5 c 128,-1,16
 444 1077 444 1077 463.5 1093.5 c 128,-1,17
 483 1110 483 1110 509 1117.5 c 128,-1,18
 535 1125 535 1125 563 1121 c 0,19,20
 610 1115 610 1115 637 1082 c 128,-1,21
 664 1049 664 1049 664 998 c 0,4,5
EndSplineSet
Validated: 1
EndChar

StartChar: cent
Encoding: 162 162 98
Width: 1300
GlyphClass: 1
Flags: W
LayerCount: 2
Fore
SplineSet
905 1320 m 1,0,-1
 869 1113 l 1,1,2
 920 1105 920 1105 961 1088 c 0,3,4
 1029 1060 1029 1060 1080 991 c 1,5,-1
 961 878 l 1,6,7
 927 913 927 913 878 935 c 0,8,9
 866 940 866 940 853.5 944.5 c 128,-1,10
 841 949 841 949 827 951 c 1,11,-1
 686 153 l 1,12,13
 711 155 711 155 732.5 159 c 128,-1,14
 754 163 754 163 774 170 c 0,15,16
 831 188 831 188 864 208 c 1,17,-1
 911 67 l 1,18,19
 848 28 848 28 770 6 c 0,20,21
 747 -1 747 -1 722 -6 c 128,-1,22
 697 -11 697 -11 670 -13 c 1,23,-1
 637 -200 l 1,24,-1
 491 -200 l 1,25,-1
 524 -12 l 1,26,27
 486 -7 486 -7 451 4 c 128,-1,28
 416 15 416 15 387 32 c 0,29,30
 322 78 322 78 282 140 c 128,-1,31
 242 202 242 202 222 275.5 c 128,-1,32
 202 349 202 349 199.5 431.5 c 128,-1,33
 197 514 197 514 206 601 c 0,34,35
 218 716 218 716 265 806 c 128,-1,36
 312 896 312 896 382.5 960 c 128,-1,37
 453 1024 453 1024 541 1062 c 128,-1,38
 629 1100 629 1100 723 1112 c 1,39,-1
 756 1300 l 1,40,-1
 905 1320 l 1,0,-1
377 574 m 0,41,42
 367 496 367 496 373.5 427 c 128,-1,43
 380 358 380 358 403 303.5 c 128,-1,44
 426 249 426 249 466.5 211.5 c 128,-1,45
 507 174 507 174 566 158 c 1,46,-1
 706 952 l 1,47,48
 634 938 634 938 577 904 c 128,-1,49
 520 870 520 870 478.5 820.5 c 128,-1,50
 437 771 437 771 411.5 708 c 128,-1,51
 386 645 386 645 377 574 c 0,41,42
EndSplineSet
Validated: 33
EndChar

StartChar: sterling
Encoding: 163 163 99
Width: 1300
GlyphClass: 1
Flags: W
LayerCount: 2
Fore
SplineSet
379 850 m 1,0,-1
 540 850 l 1,1,-1
 641 1165 l 2,2,3
 674 1267 674 1267 706.5 1334.5 c 128,-1,4
 739 1402 739 1402 781.5 1442 c 128,-1,5
 824 1482 824 1482 881 1499 c 128,-1,6
 938 1516 938 1516 1020 1517 c 0,7,8
 1071 1518 1071 1518 1112 1509.5 c 128,-1,9
 1153 1501 1153 1501 1186 1484 c 0,10,11
 1253 1451 1253 1451 1276 1425 c 1,12,-1
 1168 1324 l 1,13,14
 1160 1329 1160 1329 1145.5 1336.5 c 128,-1,15
 1131 1344 1131 1344 1113 1351 c 128,-1,16
 1095 1358 1095 1358 1076 1363 c 128,-1,17
 1057 1368 1057 1368 1040 1369 c 0,18,19
 995 1371 995 1371 963 1363.5 c 128,-1,20
 931 1356 931 1356 906 1331.5 c 128,-1,21
 881 1307 881 1307 860 1261.5 c 128,-1,22
 839 1216 839 1216 815 1141 c 2,23,-1
 722 850 l 1,24,-1
 929 850 l 1,25,-1
 883 700 l 1,26,-1
 675 700 l 1,27,28
 543 263 543 263 507 224 c 2,29,-1
 398 104 l 1,30,-1
 567 147 l 1,31,-1
 1005 147 l 1,32,-1
 980 0 l 1,33,-1
 34 0 l 1,34,-1
 79 147 l 1,35,-1
 217 147 l 2,36,37
 252 147 252 147 300 197 c 0,38,39
 347 245 347 245 493 700 c 1,40,-1
 353 700 l 1,41,-1
 379 850 l 1,0,-1
EndSplineSet
Validated: 33
EndChar

StartChar: yen
Encoding: 165 165 100
Width: 1300
GlyphClass: 1
Flags: W
LayerCount: 2
Fore
SplineSet
56 550 m 1,0,-1
 451 550 l 1,1,-1
 468 645 l 1,2,-1
 450 700 l 1,3,-1
 83 700 l 1,4,-1
 109 850 l 1,5,-1
 399 850 l 1,6,-1
 183 1500 l 1,7,-1
 391 1520 l 1,8,-1
 579 954 l 1,9,-1
 614 705 l 1,10,-1
 684 935 l 1,11,-1
 1072 1500 l 1,12,-1
 1264 1500 l 1,13,-1
 818 850 l 1,14,-1
 1109 850 l 1,15,-1
 1083 700 l 1,16,-1
 715 700 l 1,17,-1
 678 646 l 1,18,-1
 661 550 l 1,19,-1
 1056 550 l 1,20,-1
 1030 400 l 1,21,-1
 635 400 l 1,22,-1
 565 0 l 1,23,-1
 355 0 l 1,24,-1
 425 400 l 1,25,-1
 30 400 l 1,26,-1
 56 550 l 1,0,-1
EndSplineSet
Validated: 1
EndChar

StartChar: section
Encoding: 167 167 101
Width: 1300
GlyphClass: 1
Flags: W
LayerCount: 2
Fore
SplineSet
1010 1351 m 1,0,1
 966 1377 966 1377 915.5 1384 c 128,-1,2
 865 1391 865 1391 808 1393 c 0,3,4
 752 1395 752 1395 701.5 1383.5 c 128,-1,5
 651 1372 651 1372 613 1347.5 c 128,-1,6
 575 1323 575 1323 553 1285.5 c 128,-1,7
 531 1248 531 1248 531 1197 c 0,8,9
 531 1147 531 1147 551 1107 c 128,-1,10
 571 1067 571 1067 603 1032.5 c 128,-1,11
 635 998 635 998 675 967 c 128,-1,12
 715 936 715 936 756.5 903 c 128,-1,13
 798 870 798 870 837 833 c 128,-1,14
 876 796 876 796 905 750 c 128,-1,15
 934 704 934 704 949.5 646.5 c 128,-1,16
 965 589 965 589 960 515 c 0,17,18
 956 462 956 462 940.5 420 c 128,-1,19
 925 378 925 378 900.5 346.5 c 128,-1,20
 876 315 876 315 845.5 293 c 128,-1,21
 815 271 815 271 781 257 c 0,22,23
 757 246 757 246 733.5 235 c 128,-1,24
 710 224 710 224 684 216 c 1,25,-1
 711 192 l 2,26,27
 774 138 774 138 806.5 69.5 c 128,-1,28
 839 1 839 1 834 -88 c 0,29,30
 830 -168 830 -168 794.5 -230.5 c 128,-1,31
 759 -293 759 -293 698.5 -336 c 128,-1,32
 638 -379 638 -379 555.5 -400.5 c 128,-1,33
 473 -422 473 -422 376 -420 c 0,34,35
 293 -418 293 -418 227 -403.5 c 128,-1,36
 161 -389 161 -389 102 -348 c 1,37,-1
 179 -251 l 1,38,39
 223 -277 223 -277 273.5 -285 c 128,-1,40
 324 -293 324 -293 381 -293 c 0,41,42
 430 -293 430 -293 480 -282 c 128,-1,43
 530 -271 530 -271 569.5 -247.5 c 128,-1,44
 609 -224 609 -224 634 -187 c 128,-1,45
 659 -150 659 -150 658 -97 c 0,46,47
 657 -47 657 -47 637.5 -7.5 c 128,-1,48
 618 32 618 32 586 66 c 128,-1,49
 554 100 554 100 514 130 c 128,-1,50
 474 160 474 160 433 192.5 c 128,-1,51
 392 225 392 225 353 262 c 128,-1,52
 314 299 314 299 285 345 c 128,-1,53
 256 391 256 391 240 450 c 128,-1,54
 224 509 224 509 229 585 c 0,55,56
 232 632 232 632 247.5 671 c 128,-1,57
 263 710 263 710 287 741.5 c 128,-1,58
 311 773 311 773 342 798 c 128,-1,59
 373 823 373 823 407 842 c 0,60,61
 454 869 454 869 504 883 c 1,62,-1
 477 907 l 2,63,64
 446 935 446 935 421 965.5 c 128,-1,65
 396 996 396 996 380 1031 c 128,-1,66
 364 1066 364 1066 357 1105 c 128,-1,67
 350 1144 350 1144 355 1188 c 0,68,69
 365 1277 365 1277 405 1339.5 c 128,-1,70
 445 1402 445 1402 506.5 1441.5 c 128,-1,71
 568 1481 568 1481 647 1499 c 128,-1,72
 726 1517 726 1517 813 1517 c 0,73,74
 895 1517 895 1517 961.5 1503 c 128,-1,75
 1028 1489 1028 1489 1087 1448 c 1,76,-1
 1010 1351 l 1,0,1
520 767 m 0,77,78
 478 737 478 737 449 692 c 128,-1,79
 420 647 420 647 409 587 c 0,80,81
 402 549 402 549 409.5 515 c 128,-1,82
 417 481 417 481 435 450 c 128,-1,83
 453 419 453 419 479 390.5 c 128,-1,84
 505 362 505 362 537 336 c 2,85,-1
 591 291 l 1,86,87
 634 307 634 307 669 332 c 0,88,89
 711 363 711 363 740 408 c 128,-1,90
 769 453 769 453 780 513 c 0,91,92
 787 550 787 550 779.5 584.5 c 128,-1,93
 772 619 772 619 754 650 c 128,-1,94
 736 681 736 681 709.5 709 c 128,-1,95
 683 737 683 737 652 763 c 2,96,-1
 597 808 l 1,97,98
 576 800 576 800 557 790 c 128,-1,99
 538 780 538 780 520 767 c 0,77,78
EndSplineSet
Validated: 33
EndChar

StartChar: dieresis
Encoding: 168 168 102
Width: 1300
GlyphClass: 1
Flags: W
LayerCount: 2
Fore
SplineSet
564 1500 m 1,0,-1
 764 1500 l 1,1,-1
 729 1300 l 1,2,-1
 529 1300 l 1,3,-1
 564 1500 l 1,0,-1
964 1500 m 1,4,-1
 1164 1500 l 1,5,-1
 1129 1300 l 1,6,-1
 929 1300 l 1,7,-1
 964 1500 l 1,4,-1
EndSplineSet
Validated: 1
EndChar

StartChar: copyright
Encoding: 169 169 103
Width: 1300
GlyphClass: 1
Flags: W
LayerCount: 2
Fore
SplineSet
717 1517 m 0,0,1
 815 1510 815 1510 892.5 1474.5 c 128,-1,2
 970 1439 970 1439 1021.5 1379 c 128,-1,3
 1073 1319 1073 1319 1095 1235 c 128,-1,4
 1117 1151 1117 1151 1104 1047 c 0,5,6
 1091 947 1091 947 1044.5 860 c 128,-1,7
 998 773 998 773 925.5 709 c 128,-1,8
 853 645 853 645 759 609.5 c 128,-1,9
 665 574 665 574 557 577 c 0,10,11
 460 579 460 579 383.5 616 c 128,-1,12
 307 653 307 653 256 716 c 128,-1,13
 205 779 205 779 180.5 863.5 c 128,-1,14
 156 948 156 948 164 1047 c 0,15,16
 169 1114 169 1114 192.5 1176.5 c 128,-1,17
 216 1239 216 1239 254 1293 c 128,-1,18
 292 1347 292 1347 342.5 1390.5 c 128,-1,19
 393 1434 393 1434 453 1464 c 128,-1,20
 513 1494 513 1494 579.5 1508 c 128,-1,21
 646 1522 646 1522 717 1517 c 0,0,1
571 663 m 0,22,23
 643 663 643 663 713 685 c 128,-1,24
 783 707 783 707 843 753.5 c 128,-1,25
 903 800 903 800 947.5 872.5 c 128,-1,26
 992 945 992 945 1013 1047 c 0,27,28
 1032 1137 1032 1137 1009.5 1209.5 c 128,-1,29
 987 1282 987 1282 939.5 1333 c 128,-1,30
 892 1384 892 1384 827 1411.5 c 128,-1,31
 762 1439 762 1439 696 1439 c 0,32,33
 610 1439 610 1439 531.5 1409.5 c 128,-1,34
 453 1380 453 1380 392 1327.5 c 128,-1,35
 331 1275 331 1275 292.5 1203.5 c 128,-1,36
 254 1132 254 1132 250 1047 c 0,37,38
 246 968 246 968 265 898.5 c 128,-1,39
 284 829 284 829 325 776.5 c 128,-1,40
 366 724 366 724 428 693.5 c 128,-1,41
 490 663 490 663 571 663 c 0,22,23
831 1200 m 1,42,43
 812 1215 812 1215 780.5 1224 c 128,-1,44
 749 1233 749 1233 696 1233 c 0,45,46
 654 1233 654 1233 618 1218.5 c 128,-1,47
 582 1204 582 1204 554 1180 c 128,-1,48
 526 1156 526 1156 507.5 1123.5 c 128,-1,49
 489 1091 489 1091 482 1056 c 0,50,51
 478 1034 478 1034 478 1013 c 0,52,53
 478 983 478 983 487 957 c 128,-1,54
 496 931 496 931 515 911.5 c 128,-1,55
 534 892 534 892 563 881 c 128,-1,56
 592 870 592 870 631 870 c 0,57,58
 652 870 652 870 675 876 c 128,-1,59
 698 882 698 882 719 889.5 c 128,-1,60
 740 897 740 897 757 905 c 2,61,-1
 782 918 l 1,62,-1
 809 854 l 1,63,64
 794 844 794 844 772 833.5 c 128,-1,65
 750 823 750 823 724 814.5 c 128,-1,66
 698 806 698 806 668.5 800 c 128,-1,67
 639 794 639 794 609 794 c 0,68,69
 554 794 554 794 511.5 811.5 c 128,-1,70
 469 829 469 829 440 858.5 c 128,-1,71
 411 888 411 888 396 927.5 c 128,-1,72
 381 967 381 967 381 1011 c 0,73,74
 381 1023 381 1023 382 1036 c 128,-1,75
 383 1049 383 1049 386 1062 c 0,76,77
 395 1108 395 1108 422.5 1152 c 128,-1,78
 450 1196 450 1196 493 1230 c 128,-1,79
 536 1264 536 1264 591.5 1284.5 c 128,-1,80
 647 1305 647 1305 711 1305 c 0,81,82
 772 1305 772 1305 815.5 1292 c 128,-1,83
 859 1279 859 1279 890 1252 c 1,84,-1
 831 1200 l 1,42,43
EndSplineSet
Validated: 33
EndChar

StartChar: ordfeminine
Encoding: 170 170 104
Width: 1300
GlyphClass: 1
Flags: W
LayerCount: 2
Fore
SplineSet
241 800 m 1,0,-1
 641 800 l 1,1,-1
 623 700 l 1,2,-1
 223 700 l 1,3,-1
 241 800 l 1,0,-1
665 1427 m 1,4,5
 656 1431 656 1431 643.5 1434 c 128,-1,6
 631 1437 631 1437 619 1438 c 0,7,8
 606 1440 606 1440 591 1441 c 0,9,10
 540 1441 540 1441 502 1423.5 c 128,-1,11
 464 1406 464 1406 437.5 1375.5 c 128,-1,12
 411 1345 411 1345 395.5 1304.5 c 128,-1,13
 380 1264 380 1264 375 1218 c 0,14,15
 372 1193 372 1193 372 1172 c 0,16,17
 372 1138 372 1138 379 1112 c 128,-1,18
 386 1086 386 1086 398.5 1068.5 c 128,-1,19
 411 1051 411 1051 427.5 1042.5 c 128,-1,20
 444 1034 444 1034 463 1034 c 0,21,22
 489 1034 489 1034 511 1041 c 128,-1,23
 533 1048 533 1048 551.5 1059.5 c 128,-1,24
 570 1071 570 1071 585 1085.5 c 128,-1,25
 600 1100 600 1100 612 1115 c 1,26,-1
 665 1427 l 1,4,5
586 962 m 1,27,-1
 600 1043 l 1,28,-1
 542 986 l 2,29,30
 532 978 532 978 521.5 971.5 c 128,-1,31
 511 965 511 965 499 961 c 128,-1,32
 487 957 487 957 471 955 c 128,-1,33
 455 953 455 953 433 953 c 0,34,35
 397 953 397 953 369 969 c 128,-1,36
 341 985 341 985 321.5 1014 c 128,-1,37
 302 1043 302 1043 292 1083 c 128,-1,38
 282 1123 282 1123 282 1171 c 0,39,40
 282 1185 282 1185 282.5 1200 c 128,-1,41
 283 1215 283 1215 285 1230 c 0,42,43
 292 1285 292 1285 314.5 1337.5 c 128,-1,44
 337 1390 337 1390 376 1430.5 c 128,-1,45
 415 1471 415 1471 471.5 1495.5 c 128,-1,46
 528 1520 528 1520 602 1520 c 0,47,48
 644 1520 644 1520 687 1513 c 128,-1,49
 730 1506 730 1506 768 1493 c 1,50,-1
 692 1052 l 1,51,-1
 687 962 l 1,52,-1
 586 962 l 1,27,-1
EndSplineSet
Validated: 1
EndChar

StartChar: guillemotleft
Encoding: 171 171 105
Width: 1300
GlyphClass: 1
Flags: W
LayerCount: 2
Fore
SplineSet
650 1026 m 1,0,-1
 678 901 l 1,1,-1
 302 610 l 1,2,-1
 153 550 l 1,3,-1
 280 490 l 1,4,-1
 557 201 l 1,5,-1
 479 66 l 1,6,-1
 84 478 l 1,7,-1
 108 617 l 1,8,-1
 650 1026 l 1,0,-1
1150 1026 m 1,9,-1
 1178 901 l 1,10,-1
 802 610 l 1,11,-1
 653 550 l 1,12,-1
 780 490 l 1,13,-1
 1057 201 l 1,14,-1
 979 66 l 1,15,-1
 584 478 l 1,16,-1
 608 617 l 1,17,-1
 1150 1026 l 1,9,-1
EndSplineSet
Validated: 1
EndChar

StartChar: logicalnot
Encoding: 172 172 106
Width: 1300
GlyphClass: 1
Flags: W
LayerCount: 2
Fore
SplineSet
1258 800 m 1,0,-1
 1203 589 l 1,1,-1
 1149 280 l 1,2,-1
 949 280 l 1,3,-1
 979 449 l 1,4,-1
 1028 640 l 1,5,-1
 24 640 l 1,6,-1
 53 800 l 1,7,-1
 1258 800 l 1,0,-1
EndSplineSet
Validated: 1
EndChar

StartChar: registered
Encoding: 174 174 107
Width: 1300
GlyphClass: 1
Flags: W
LayerCount: 2
Fore
SplineSet
717 1517 m 0,0,1
 815 1510 815 1510 892.5 1474.5 c 128,-1,2
 970 1439 970 1439 1021.5 1379 c 128,-1,3
 1073 1319 1073 1319 1095 1235 c 128,-1,4
 1117 1151 1117 1151 1104 1047 c 0,5,6
 1091 947 1091 947 1044.5 860 c 128,-1,7
 998 773 998 773 925.5 709 c 128,-1,8
 853 645 853 645 759 609.5 c 128,-1,9
 665 574 665 574 557 577 c 0,10,11
 460 579 460 579 383.5 616 c 128,-1,12
 307 653 307 653 256 716 c 128,-1,13
 205 779 205 779 180.5 863.5 c 128,-1,14
 156 948 156 948 164 1047 c 0,15,16
 169 1114 169 1114 192.5 1176.5 c 128,-1,17
 216 1239 216 1239 254 1293 c 128,-1,18
 292 1347 292 1347 342.5 1390.5 c 128,-1,19
 393 1434 393 1434 453 1464 c 128,-1,20
 513 1494 513 1494 579.5 1508 c 128,-1,21
 646 1522 646 1522 717 1517 c 0,0,1
571 663 m 0,22,23
 643 663 643 663 713 685 c 128,-1,24
 783 707 783 707 843 753.5 c 128,-1,25
 903 800 903 800 947.5 872.5 c 128,-1,26
 992 945 992 945 1013 1047 c 0,27,28
 1032 1137 1032 1137 1009.5 1209.5 c 128,-1,29
 987 1282 987 1282 939.5 1333 c 128,-1,30
 892 1384 892 1384 827 1411.5 c 128,-1,31
 762 1439 762 1439 696 1439 c 0,32,33
 610 1439 610 1439 531.5 1409.5 c 128,-1,34
 453 1380 453 1380 392 1327.5 c 128,-1,35
 331 1275 331 1275 292.5 1203.5 c 128,-1,36
 254 1132 254 1132 250 1047 c 0,37,38
 246 968 246 968 265 898.5 c 128,-1,39
 284 829 284 829 325 776.5 c 128,-1,40
 366 724 366 724 428 693.5 c 128,-1,41
 490 663 490 663 571 663 c 0,22,23
541 1006 m 1,42,-1
 505 802 l 1,43,-1
 439 802 l 1,44,-1
 514 1228 l 1,45,-1
 514 1294 l 1,46,47
 525 1295 525 1295 539.5 1296.5 c 128,-1,48
 554 1298 554 1298 570 1299.5 c 128,-1,49
 586 1301 586 1301 602.5 1302 c 128,-1,50
 619 1303 619 1303 635 1303 c 0,51,52
 676 1303 676 1303 706.5 1293.5 c 128,-1,53
 737 1284 737 1284 756.5 1267.5 c 128,-1,54
 776 1251 776 1251 785.5 1228 c 128,-1,55
 795 1205 795 1205 795 1178 c 0,56,57
 795 1135 795 1135 780.5 1104 c 128,-1,58
 766 1073 766 1073 742 1052.5 c 128,-1,59
 718 1032 718 1032 687.5 1021.5 c 128,-1,60
 657 1011 657 1011 626 1010 c 1,61,-1
 668 998 l 1,62,-1
 780 802 l 1,63,-1
 706 802 l 1,64,-1
 594 1000 l 2,65,66
 592 1005 592 1005 587.5 1005.5 c 128,-1,67
 583 1006 583 1006 580 1006 c 2,68,-1
 541 1006 l 1,42,-1
572 1181 m 1,69,-1
 549 1054 l 1,70,-1
 598 1054 l 2,71,72
 628 1054 628 1054 653.5 1061.5 c 128,-1,73
 679 1069 679 1069 697 1084 c 128,-1,74
 715 1099 715 1099 725 1121 c 128,-1,75
 735 1143 735 1143 735 1171 c 0,76,77
 735 1190 735 1190 726.5 1206 c 128,-1,78
 718 1222 718 1222 704 1233 c 128,-1,79
 690 1244 690 1244 672 1250 c 128,-1,80
 654 1256 654 1256 635 1256 c 0,81,82
 621 1256 621 1256 605 1255 c 128,-1,83
 589 1254 589 1254 578 1252 c 1,84,-1
 572 1181 l 1,69,-1
EndSplineSet
Validated: 33
EndChar

StartChar: macron
Encoding: 175 175 108
Width: 1300
GlyphClass: 1
Flags: W
LayerCount: 2
Fore
SplineSet
464 1500 m 1,0,-1
 1164 1500 l 1,1,-1
 1138 1350 l 1,2,-1
 438 1350 l 1,3,-1
 464 1500 l 1,0,-1
EndSplineSet
Validated: 1
EndChar

StartChar: degree
Encoding: 176 176 109
Width: 1300
GlyphClass: 1
Flags: W
LayerCount: 2
Fore
SplineSet
568 1520 m 0,0,1
 679 1505 679 1505 737.5 1434.5 c 128,-1,2
 796 1364 796 1364 789 1250 c 0,3,4
 786 1194 786 1194 756.5 1142.5 c 128,-1,5
 727 1091 727 1091 682.5 1052.5 c 128,-1,6
 638 1014 638 1014 582.5 994 c 128,-1,7
 527 974 527 974 472 980 c 0,8,9
 362 993 362 993 305.5 1065 c 128,-1,10
 249 1137 249 1137 251 1250 c 0,11,12
 252 1288 252 1288 265.5 1324 c 128,-1,13
 279 1360 279 1360 302 1391.5 c 128,-1,14
 325 1423 325 1423 355.5 1449 c 128,-1,15
 386 1475 386 1475 421 1492.5 c 128,-1,16
 456 1510 456 1510 493.5 1517.5 c 128,-1,17
 531 1525 531 1525 568 1520 c 0,0,1
492 1091 m 0,18,19
 523 1088 523 1088 555.5 1097.5 c 128,-1,20
 588 1107 588 1107 615 1127.5 c 128,-1,21
 642 1148 642 1148 659.5 1179 c 128,-1,22
 677 1210 677 1210 679 1250 c 0,23,24
 682 1317 682 1317 648 1357 c 128,-1,25
 614 1397 614 1397 548 1409 c 0,26,27
 514 1415 514 1415 480.5 1406 c 128,-1,28
 447 1397 447 1397 420.5 1376 c 128,-1,29
 394 1355 394 1355 377.5 1322.5 c 128,-1,30
 361 1290 361 1290 361 1250 c 0,31,32
 362 1184 362 1184 396.5 1141 c 128,-1,33
 431 1098 431 1098 492 1091 c 0,18,19
EndSplineSet
Validated: 33
EndChar

StartChar: plusminus
Encoding: 177 177 110
Width: 1300
GlyphClass: 1
Flags: W
LayerCount: 2
Fore
SplineSet
223 862 m 1,0,-1
 596 862 l 1,1,-1
 671 1200 l 1,2,-1
 826 1200 l 1,3,-1
 751 862 l 1,4,-1
 1123 862 l 1,5,-1
 1096 738 l 1,6,-1
 724 738 l 1,7,-1
 649 400 l 1,8,-1
 494 400 l 1,9,-1
 569 738 l 1,10,-1
 196 738 l 1,11,-1
 223 862 l 1,0,-1
98 290 m 1,12,-1
 998 290 l 1,13,-1
 998 150 l 1,14,-1
 98 150 l 1,15,-1
 98 290 l 1,12,-1
EndSplineSet
Validated: 1
EndChar

StartChar: acute
Encoding: 180 180 111
Width: 1300
GlyphClass: 1
Flags: W
LayerCount: 2
Fore
SplineSet
864 1500 m 1,0,-1
 1098 1520 l 1,1,-1
 801 1200 l 1,2,-1
 651 1200 l 1,3,-1
 864 1500 l 1,0,-1
EndSplineSet
Validated: 1
EndChar

StartChar: mu
Encoding: 181 181 112
Width: 1300
GlyphClass: 1
Flags: W
LayerCount: 2
Fore
SplineSet
1237 36 m 1,0,1
 1226 27 1226 27 1206 18 c 128,-1,2
 1186 9 1186 9 1160.5 1 c 128,-1,3
 1135 -7 1135 -7 1107 -12 c 128,-1,4
 1079 -17 1079 -17 1054 -17 c 0,5,6
 1021 -17 1021 -17 987 -5.5 c 128,-1,7
 953 6 953 6 923.5 28 c 128,-1,8
 894 50 894 50 872 82 c 128,-1,9
 850 114 850 114 841 155 c 1,10,-1
 804 86 l 1,11,12
 783 61 783 61 751 39.5 c 128,-1,13
 719 18 719 18 679.5 4 c 128,-1,14
 640 -10 640 -10 595 -16 c 128,-1,15
 550 -22 550 -22 504 -17 c 0,16,17
 485 -15 485 -15 460 -13 c 128,-1,18
 435 -11 435 -11 410 -7 c 128,-1,19
 385 -3 385 -3 363 4.5 c 128,-1,20
 341 12 341 12 328 25 c 1,21,-1
 339 -166 l 1,22,-1
 280 -500 l 1,23,-1
 100 -500 l 1,24,-1
 382 1100 l 1,25,-1
 567 1121 l 1,26,-1
 430 348 l 2,27,28
 421 298 421 298 423.5 256.5 c 128,-1,29
 426 215 426 215 443.5 186 c 128,-1,30
 461 157 461 157 494.5 143 c 128,-1,31
 528 129 528 129 581 133 c 0,32,33
 613 136 613 136 642.5 144.5 c 128,-1,34
 672 153 672 153 701.5 166.5 c 128,-1,35
 731 180 731 180 762.5 199 c 128,-1,36
 794 218 794 218 831 241 c 1,37,-1
 982 1100 l 1,38,-1
 1165 1121 l 1,39,-1
 1029 352 l 2,40,41
 1015 276 1015 276 1014 232.5 c 128,-1,42
 1013 189 1013 189 1022 166.5 c 128,-1,43
 1031 144 1031 144 1050.5 138.5 c 128,-1,44
 1070 133 1070 133 1098 133 c 0,45,46
 1122 133 1122 133 1145.5 137.5 c 128,-1,47
 1169 142 1169 142 1192 150 c 1,48,-1
 1237 36 l 1,0,1
EndSplineSet
Validated: 33
EndChar

StartChar: paragraph
Encoding: 182 182 113
Width: 1300
GlyphClass: 1
Flags: W
LayerCount: 2
Fore
SplineSet
544 647 m 1,0,1
 507 649 507 649 477 655 c 128,-1,2
 447 661 447 661 421.5 669 c 128,-1,3
 396 677 396 677 373.5 685.5 c 128,-1,4
 351 694 351 694 330 702 c 0,5,6
 301 712 301 712 267.5 750.5 c 128,-1,7
 234 789 234 789 210 847.5 c 128,-1,8
 186 906 186 906 177.5 982 c 128,-1,9
 169 1058 169 1058 190 1144 c 0,10,11
 214 1246 214 1246 259.5 1317 c 128,-1,12
 305 1388 305 1388 369.5 1430.5 c 128,-1,13
 434 1473 434 1473 515.5 1489.5 c 128,-1,14
 597 1506 597 1506 694 1500 c 1,15,-1
 1166 1500 l 1,16,-1
 831 -400 l 1,17,-1
 662 -400 l 1,18,-1
 970 1348 l 1,19,-1
 836 1348 l 1,20,-1
 528 -400 l 1,21,-1
 359 -400 l 1,22,-1
 544 647 l 1,0,1
EndSplineSet
Validated: 33
EndChar

StartChar: periodcentered
Encoding: 183 183 114
Width: 1300
VWidth: 2472
GlyphClass: 1
Flags: W
LayerCount: 2
Fore
SplineSet
499.44140625 650.349609375 m 256,0,1
 507.541992188 696.25 507.541992188 696.25 531.841796875 736.75 c 128,-1,2
 556.141601562 777.25 556.141601562 777.25 591.916992188 807.625 c 128,-1,3
 627.69140625 838 627.69140625 838 670.891601562 855.549804688 c 128,-1,4
 714.091796875 873.099609375 714.091796875 873.099609375 759.991210938 873.099609375 c 256,5,6
 805.891601562 873.099609375 805.891601562 873.099609375 843.016601562 855.549804688 c 128,-1,7
 880.141601562 838 880.141601562 838 905.116210938 807.625 c 128,-1,8
 930.091796875 777.25 930.091796875 777.25 940.891601562 736.75 c 128,-1,9
 951.69140625 696.25 951.69140625 696.25 943.591796875 650.349609375 c 256,10,11
 935.491210938 604.450195312 935.491210938 604.450195312 910.516601562 563.275390625 c 128,-1,12
 885.541992188 522.099609375 885.541992188 522.099609375 850.44140625 491.724609375 c 128,-1,13
 815.341796875 461.349609375 815.341796875 461.349609375 772.141601562 443.125 c 128,-1,14
 728.94140625 424.900390625 728.94140625 424.900390625 683.041992188 424.900390625 c 256,15,16
 637.141601562 424.900390625 637.141601562 424.900390625 599.341796875 443.125 c 128,-1,17
 561.541992188 461.349609375 561.541992188 461.349609375 536.56640625 491.724609375 c 128,-1,18
 511.591796875 522.099609375 511.591796875 522.099609375 501.466796875 563.275390625 c 128,-1,19
 491.341796875 604.450195312 491.341796875 604.450195312 499.44140625 650.349609375 c 256,0,1
EndSplineSet
Validated: 524321
EndChar

StartChar: cedilla
Encoding: 184 184 115
Width: 1300
GlyphClass: 1
Flags: W
LayerCount: 2
Fore
SplineSet
524 0 m 1,0,1
 542 -27 542 -27 554 -59 c 0,2,3
 565 -86 565 -86 571 -122 c 128,-1,4
 577 -158 577 -158 572 -198 c 0,5,6
 565 -248 565 -248 542 -287 c 128,-1,7
 519 -326 519 -326 484.5 -352.5 c 128,-1,8
 450 -379 450 -379 405.5 -393 c 128,-1,9
 361 -407 361 -407 311 -407 c 0,10,11
 269 -407 269 -407 225.5 -393.5 c 128,-1,12
 182 -380 182 -380 146 -363 c 0,13,14
 104 -344 104 -344 65 -318 c 1,15,-1
 154 -218 l 1,16,17
 177 -235 177 -235 203 -248 c 0,18,19
 225 -259 225 -259 252.5 -269 c 128,-1,20
 280 -279 280 -279 309 -279 c 0,21,22
 352 -280 352 -280 382 -259 c 128,-1,23
 412 -238 412 -238 420 -189 c 0,24,25
 425 -156 425 -156 415 -122 c 128,-1,26
 405 -88 405 -88 390 -61 c 0,27,28
 372 -29 372 -29 348 0 c 1,29,-1
 524 0 l 1,0,1
EndSplineSet
Validated: 33
EndChar

StartChar: ordmasculine
Encoding: 186 186 116
Width: 1300
GlyphClass: 1
Flags: W
LayerCount: 2
Fore
SplineSet
241 800 m 1,0,-1
 641 800 l 1,1,-1
 623 700 l 1,2,-1
 223 700 l 1,3,-1
 241 800 l 1,0,-1
426 950 m 0,4,5
 377 950 377 950 336 967.5 c 128,-1,6
 295 985 295 985 266 1017 c 128,-1,7
 237 1049 237 1049 221 1094.5 c 128,-1,8
 205 1140 205 1140 205 1195 c 0,9,10
 205 1267 205 1267 227 1326 c 128,-1,11
 249 1385 249 1385 289 1427.5 c 128,-1,12
 329 1470 329 1470 384 1493.5 c 128,-1,13
 439 1517 439 1517 506 1517 c 0,14,15
 557 1517 557 1517 598.5 1500.5 c 128,-1,16
 640 1484 640 1484 669.5 1453 c 128,-1,17
 699 1422 699 1422 715 1376.5 c 128,-1,18
 731 1331 731 1331 731 1274 c 0,19,20
 731 1200 731 1200 709.5 1140 c 128,-1,21
 688 1080 688 1080 648.5 1038 c 128,-1,22
 609 996 609 996 553 973 c 128,-1,23
 497 950 497 950 426 950 c 0,4,5
639 1270 m 0,24,25
 639 1307 639 1307 630 1338.5 c 128,-1,26
 621 1370 621 1370 603 1392.5 c 128,-1,27
 585 1415 585 1415 558.5 1427.5 c 128,-1,28
 532 1440 532 1440 496 1440 c 0,29,30
 463 1440 463 1440 435.5 1430.5 c 128,-1,31
 408 1421 408 1421 386 1404 c 128,-1,32
 364 1387 364 1387 347 1363.5 c 128,-1,33
 330 1340 330 1340 319 1313.5 c 128,-1,34
 308 1287 308 1287 302 1257.5 c 128,-1,35
 296 1228 296 1228 296 1199 c 0,36,37
 296 1161 296 1161 304.5 1129.5 c 128,-1,38
 313 1098 313 1098 330.5 1075.5 c 128,-1,39
 348 1053 348 1053 374 1040.5 c 128,-1,40
 400 1028 400 1028 436 1028 c 0,41,42
 468 1028 468 1028 495.5 1037.5 c 128,-1,43
 523 1047 523 1047 545.5 1064.5 c 128,-1,44
 568 1082 568 1082 585.5 1105 c 128,-1,45
 603 1128 603 1128 615 1155 c 128,-1,46
 627 1182 627 1182 633 1211.5 c 128,-1,47
 639 1241 639 1241 639 1270 c 0,24,25
EndSplineSet
Validated: 1
EndChar

StartChar: guillemotright
Encoding: 187 187 117
Width: 1300
GlyphClass: 1
Flags: W
LayerCount: 2
Fore
SplineSet
708 617 m 1,0,-1
 684 478 l 1,1,-1
 143 66 l 1,2,-1
 113 201 l 1,3,-1
 492 490 l 1,4,-1
 639 550 l 1,5,-1
 512 610 l 1,6,-1
 238 901 l 1,7,-1
 310 1026 l 1,8,-1
 708 617 l 1,0,-1
1208 617 m 1,9,-1
 1184 478 l 1,10,-1
 643 66 l 1,11,-1
 613 201 l 1,12,-1
 992 490 l 1,13,-1
 1139 550 l 1,14,-1
 1012 610 l 1,15,-1
 738 901 l 1,16,-1
 810 1026 l 1,17,-1
 1208 617 l 1,9,-1
EndSplineSet
Validated: 1
EndChar

StartChar: questiondown
Encoding: 191 191 118
Width: 1300
GlyphClass: 1
Flags: W
LayerCount: 2
Fore
SplineSet
573 -16 m 0,0,1
 485 -16 485 -16 414.5 8 c 128,-1,2
 344 32 344 32 295 76 c 128,-1,3
 246 120 246 120 220 183.5 c 128,-1,4
 194 247 194 247 194 325 c 0,5,6
 194 396 194 396 214.5 449.5 c 128,-1,7
 235 503 235 503 269.5 546 c 128,-1,8
 304 589 304 589 348 624 c 128,-1,9
 392 659 392 659 439 692.5 c 128,-1,10
 486 726 486 726 532.5 761 c 128,-1,11
 579 796 579 796 617 837.5 c 128,-1,12
 655 879 655 879 681.5 931 c 128,-1,13
 708 983 708 983 716 1051 c 1,14,-1
 930 1072 l 1,15,16
 921 981 921 981 893 913 c 128,-1,17
 865 845 865 845 826.5 792.5 c 128,-1,18
 788 740 788 740 741.5 700 c 128,-1,19
 695 660 695 660 648 626.5 c 128,-1,20
 601 593 601 593 556.5 562.5 c 128,-1,21
 512 532 512 532 478 498 c 128,-1,22
 444 464 444 464 423.5 423 c 128,-1,23
 403 382 403 382 403 328 c 0,24,25
 403 282 403 282 419.5 248 c 128,-1,26
 436 214 436 214 466 192.5 c 128,-1,27
 496 171 496 171 537 160.5 c 128,-1,28
 578 150 578 150 627 150 c 256,29,30
 676 150 676 150 717.5 158 c 128,-1,31
 759 166 759 166 797 184.5 c 128,-1,32
 835 203 835 203 872.5 234 c 128,-1,33
 910 265 910 265 951 311 c 1,34,-1
 1064 201 l 1,35,36
 1015 138 1015 138 957 96.5 c 128,-1,37
 899 55 899 55 836 30 c 128,-1,38
 773 5 773 5 706.5 -5.5 c 128,-1,39
 640 -16 640 -16 573 -16 c 0,0,1
1003 1396 m 0,40,41
 1003 1373 1003 1373 992.5 1351.5 c 128,-1,42
 982 1330 982 1330 965 1313 c 128,-1,43
 948 1296 948 1296 925 1286 c 128,-1,44
 902 1276 902 1276 878 1276 c 0,45,46
 824 1276 824 1276 794.5 1309.5 c 128,-1,47
 765 1343 765 1343 765 1396 c 0,48,49
 765 1419 765 1419 774 1440.5 c 128,-1,50
 783 1462 783 1462 799 1479.5 c 128,-1,51
 815 1497 815 1497 837 1507.5 c 128,-1,52
 859 1518 859 1518 884 1518 c 0,53,54
 940 1518 940 1518 971.5 1484 c 128,-1,55
 1003 1450 1003 1450 1003 1396 c 0,40,41
EndSplineSet
Validated: 1
EndChar

StartChar: Agrave
Encoding: 192 192 119
Width: 1300
GlyphClass: 1
Flags: W
LayerCount: 2
Fore
SplineSet
18 0 m 1,0,-1
 719 1300 l 1,1,-1
 789 1500 l 1,2,-1
 971 1520 l 1,3,-1
 1250 0 l 1,4,-1
 1050 0 l 1,5,-1
 982 450 l 1,6,-1
 447 450 l 1,7,-1
 201 0 l 1,8,-1
 18 0 l 1,0,-1
877 1400 m 1,9,-1
 776 1080 l 1,10,-1
 522 600 l 1,11,-1
 959 600 l 1,12,-1
 866 1080 l 1,13,-1
 877 1400 l 1,9,-1
981 1600 m 1,14,-1
 831 1600 l 1,15,-1
 659 1900 l 1,16,-1
 867 1920 l 1,17,-1
 981 1600 l 1,14,-1
EndSplineSet
Validated: 1
EndChar

StartChar: Aacute
Encoding: 193 193 120
Width: 1300
GlyphClass: 1
Flags: W
LayerCount: 2
Fore
SplineSet
18 0 m 1,0,-1
 719 1300 l 1,1,-1
 789 1500 l 1,2,-1
 971 1520 l 1,3,-1
 1250 0 l 1,4,-1
 1050 0 l 1,5,-1
 982 450 l 1,6,-1
 447 450 l 1,7,-1
 201 0 l 1,8,-1
 18 0 l 1,0,-1
877 1400 m 1,9,-1
 776 1080 l 1,10,-1
 522 600 l 1,11,-1
 959 600 l 1,12,-1
 866 1080 l 1,13,-1
 877 1400 l 1,9,-1
1048 1900 m 1,14,-1
 1282 1920 l 1,15,-1
 985 1600 l 1,16,-1
 835 1600 l 1,17,-1
 1048 1900 l 1,14,-1
EndSplineSet
Validated: 1
EndChar

StartChar: Acircumflex
Encoding: 194 194 121
Width: 1300
GlyphClass: 1
Flags: W
LayerCount: 2
Fore
SplineSet
18 0 m 1,0,-1
 719 1300 l 1,1,-1
 789 1500 l 1,2,-1
 971 1520 l 1,3,-1
 1250 0 l 1,4,-1
 1050 0 l 1,5,-1
 982 450 l 1,6,-1
 447 450 l 1,7,-1
 201 0 l 1,8,-1
 18 0 l 1,0,-1
877 1400 m 1,9,-1
 776 1080 l 1,10,-1
 522 600 l 1,11,-1
 959 600 l 1,12,-1
 866 1080 l 1,13,-1
 877 1400 l 1,9,-1
1173 1620 m 1,14,-1
 1023 1620 l 1,15,-1
 949 1772 l 1,16,-1
 935 1860 l 1,17,-1
 890 1773 l 1,18,-1
 762 1620 l 1,19,-1
 612 1620 l 1,20,-1
 837 1900 l 1,21,-1
 1041 1920 l 1,22,-1
 1173 1620 l 1,14,-1
EndSplineSet
Validated: 1
EndChar

StartChar: Atilde
Encoding: 195 195 122
Width: 1300
GlyphClass: 1
Flags: W
LayerCount: 2
Fore
SplineSet
18 0 m 1,0,-1
 719 1300 l 1,1,-1
 789 1500 l 1,2,-1
 971 1520 l 1,3,-1
 1250 0 l 1,4,-1
 1050 0 l 1,5,-1
 982 450 l 1,6,-1
 447 450 l 1,7,-1
 201 0 l 1,8,-1
 18 0 l 1,0,-1
877 1400 m 1,9,-1
 776 1080 l 1,10,-1
 522 600 l 1,11,-1
 959 600 l 1,12,-1
 866 1080 l 1,13,-1
 877 1400 l 1,9,-1
566 1616 m 1,14,15
 578 1671 578 1671 602 1712 c 128,-1,16
 626 1753 626 1753 656 1779.5 c 128,-1,17
 686 1806 686 1806 719.5 1817.5 c 128,-1,18
 753 1829 753 1829 785 1825 c 0,19,20
 824 1819 824 1819 855 1804.5 c 128,-1,21
 886 1790 886 1790 914.5 1774.5 c 128,-1,22
 943 1759 943 1759 970.5 1747 c 128,-1,23
 998 1735 998 1735 1029 1735 c 0,24,25
 1057 1735 1057 1735 1076.5 1745.5 c 128,-1,26
 1096 1756 1096 1756 1109 1772 c 128,-1,27
 1122 1788 1122 1788 1129 1806.5 c 128,-1,28
 1136 1825 1136 1825 1140 1842 c 1,29,-1
 1235 1839 l 1,30,31
 1229 1791 1229 1791 1206 1746.5 c 128,-1,32
 1183 1702 1183 1702 1150.5 1670 c 128,-1,33
 1118 1638 1118 1638 1078.5 1621.5 c 128,-1,34
 1039 1605 1039 1605 1000 1612 c 0,35,36
 972 1617 972 1617 944 1633.5 c 128,-1,37
 916 1650 916 1650 886.5 1667 c 128,-1,38
 857 1684 857 1684 825 1695 c 128,-1,39
 793 1706 793 1706 757 1701 c 0,40,41
 719 1696 719 1696 692.5 1677 c 128,-1,42
 666 1658 666 1658 651 1613 c 1,43,-1
 566 1616 l 1,14,15
EndSplineSet
Validated: 33
EndChar

StartChar: Adieresis
Encoding: 196 196 123
Width: 1300
GlyphClass: 1
Flags: W
LayerCount: 2
Fore
SplineSet
18 0 m 1,0,-1
 719 1300 l 1,1,-1
 789 1500 l 1,2,-1
 971 1520 l 1,3,-1
 1250 0 l 1,4,-1
 1050 0 l 1,5,-1
 982 450 l 1,6,-1
 447 450 l 1,7,-1
 201 0 l 1,8,-1
 18 0 l 1,0,-1
877 1400 m 1,9,-1
 776 1080 l 1,10,-1
 522 600 l 1,11,-1
 959 600 l 1,12,-1
 866 1080 l 1,13,-1
 877 1400 l 1,9,-1
637 1800 m 1,14,-1
 837 1800 l 1,15,-1
 802 1600 l 1,16,-1
 602 1600 l 1,17,-1
 637 1800 l 1,14,-1
1037 1800 m 1,18,-1
 1237 1800 l 1,19,-1
 1202 1600 l 1,20,-1
 1002 1600 l 1,21,-1
 1037 1800 l 1,18,-1
EndSplineSet
Validated: 1
EndChar

StartChar: Aring
Encoding: 197 197 124
Width: 1300
GlyphClass: 1
Flags: W
LayerCount: 2
Fore
SplineSet
968 1881 m 0,0,1
 1016 1873 1016 1873 1053.5 1851.5 c 128,-1,2
 1091 1830 1091 1830 1116 1798.5 c 128,-1,3
 1141 1767 1141 1767 1153 1727.5 c 128,-1,4
 1165 1688 1165 1688 1163 1644 c 0,5,6
 1160 1587 1160 1587 1135.5 1541.5 c 128,-1,7
 1111 1496 1111 1496 1072 1464 c 0,8,9
 1035 1434 1035 1434 989 1418 c 1,10,-1
 1250 0 l 1,11,-1
 1050 0 l 1,12,-1
 982 450 l 1,13,-1
 447 450 l 1,14,-1
 201 0 l 1,15,-1
 18 0 l 1,16,-1
 719 1300 l 1,17,-1
 770 1447 l 1,18,19
 754 1461 754 1461 740 1478 c 0,20,21
 713 1511 713 1511 699 1554 c 128,-1,22
 685 1597 685 1597 688 1644 c 0,23,24
 691 1694 691 1694 715.5 1740.5 c 128,-1,25
 740 1787 740 1787 779 1821 c 128,-1,26
 818 1855 818 1855 867.5 1872 c 128,-1,27
 917 1889 917 1889 968 1881 c 0,0,1
877 1400 m 1,28,-1
 776 1080 l 1,29,-1
 522 600 l 1,30,-1
 959 600 l 1,31,-1
 866 1080 l 1,32,-1
 877 1400 l 1,28,-1
905 1520 m 0,33,34
 929 1515 929 1515 954.5 1522 c 128,-1,35
 980 1529 980 1529 1001.5 1545.5 c 128,-1,36
 1023 1562 1023 1562 1036 1587 c 128,-1,37
 1049 1612 1049 1612 1047 1643 c 0,38,39
 1044 1695 1044 1695 1020.5 1724.5 c 128,-1,40
 997 1754 997 1754 947 1764 c 0,41,42
 921 1769 921 1769 895.5 1760.5 c 128,-1,43
 870 1752 870 1752 849.5 1734.5 c 128,-1,44
 829 1717 829 1717 816.5 1693 c 128,-1,45
 804 1669 804 1669 805 1643 c 0,46,47
 808 1541 808 1541 905 1520 c 0,33,34
EndSplineSet
Validated: 33
EndChar

StartChar: AE
Encoding: 198 198 125
Width: 1300
GlyphClass: 1
Flags: W
LayerCount: 2
Fore
SplineSet
1300 160 m 1,0,-1
 1252 0 l 1,1,-1
 546 0 l 1,2,-1
 598 200 l 1,3,-1
 642 450 l 1,4,-1
 347 450 l 1,5,-1
 113 0 l 1,6,-1
 -103 0 l 1,7,-1
 575 1300 l 1,8,-1
 655 1500 l 1,9,-1
 1400 1500 l 1,10,-1
 1372 1340 l 1,11,-1
 986 1340 l 1,12,-1
 974 1149 l 1,13,-1
 927 885 l 1,14,-1
 1252 885 l 1,15,-1
 1227 740 l 1,16,-1
 902 740 l 1,17,-1
 831 340 l 1,18,-1
 789 160 l 1,19,-1
 1300 160 l 1,0,-1
669 600 m 1,20,-1
 757 1106 l 1,21,-1
 758 1340 l 1,22,-1
 662 1099 l 1,23,-1
 415 600 l 1,24,-1
 669 600 l 1,20,-1
EndSplineSet
Validated: 1
EndChar

StartChar: Ccedilla
Encoding: 199 199 126
Width: 1300
GlyphClass: 1
Flags: W
LayerCount: 2
Fore
SplineSet
998 95 m 1,0,1
 978 81 978 81 942 62 c 128,-1,2
 906 43 906 43 854 25.5 c 128,-1,3
 802 8 802 8 733 -4 c 0,4,5
 697 -11 697 -11 657 -14 c 1,6,7
 669 -35 669 -35 678 -59 c 0,8,9
 689 -86 689 -86 695 -122 c 128,-1,10
 701 -158 701 -158 696 -198 c 0,11,12
 689 -248 689 -248 666 -287 c 128,-1,13
 643 -326 643 -326 608.5 -352.5 c 128,-1,14
 574 -379 574 -379 529.5 -393 c 128,-1,15
 485 -407 485 -407 435 -407 c 0,16,17
 393 -407 393 -407 349.5 -393.5 c 128,-1,18
 306 -380 306 -380 270 -363 c 0,19,20
 228 -344 228 -344 189 -318 c 1,21,-1
 278 -218 l 1,22,23
 301 -235 301 -235 327 -248 c 0,24,25
 349 -259 349 -259 376.5 -269 c 128,-1,26
 404 -279 404 -279 433 -279 c 0,27,28
 476 -280 476 -280 506 -259 c 128,-1,29
 536 -238 536 -238 544 -189 c 0,30,31
 549 -156 549 -156 539 -122 c 128,-1,32
 529 -88 529 -88 514 -61 c 0,33,34
 498 -33 498 -33 479 -8 c 1,35,36
 419 3 419 3 369 30 c 0,37,38
 281 78 281 78 222.5 162.5 c 128,-1,39
 164 247 164 247 135 363 c 128,-1,40
 106 479 106 479 106 616 c 0,41,42
 106 738 106 738 127.5 852.5 c 128,-1,43
 149 967 149 967 191 1067 c 128,-1,44
 233 1167 233 1167 295 1250 c 128,-1,45
 357 1333 357 1333 438 1392 c 128,-1,46
 519 1451 519 1451 618.5 1484 c 128,-1,47
 718 1517 718 1517 835 1517 c 0,48,49
 1078 1517 1078 1517 1210 1385 c 1,50,-1
 1112 1263 l 1,51,52
 1050 1306 1050 1306 983.5 1323.5 c 128,-1,53
 917 1341 917 1341 829 1341 c 0,54,55
 735 1341 735 1341 660 1312 c 128,-1,56
 585 1283 585 1283 527 1231.5 c 128,-1,57
 469 1180 469 1180 427 1109.5 c 128,-1,58
 385 1039 385 1039 358.5 957.5 c 128,-1,59
 332 876 332 876 319.5 786 c 128,-1,60
 307 696 307 696 307 605 c 0,61,62
 307 518 307 518 319.5 436.5 c 128,-1,63
 332 355 332 355 367 292 c 128,-1,64
 402 229 402 229 466 191 c 128,-1,65
 530 153 530 153 632 153 c 0,66,67
 677 153 677 153 718 159 c 128,-1,68
 759 165 759 165 798 177 c 128,-1,69
 837 189 837 189 876 206.5 c 128,-1,70
 915 224 915 224 956 247 c 1,71,-1
 998 95 l 1,0,1
EndSplineSet
Validated: 33
EndChar

StartChar: Egrave
Encoding: 200 200 127
Width: 1300
GlyphClass: 1
Flags: W
LayerCount: 2
Fore
SplineSet
1040 160 m 1,0,-1
 992 0 l 1,1,-1
 72 0 l 1,2,-1
 123 200 l 1,3,-1
 315 1290 l 1,4,-1
 322 1500 l 1,5,-1
 1242 1500 l 1,6,-1
 1214 1340 l 1,7,-1
 489 1340 l 1,8,-1
 475 1150 l 1,9,-1
 428 885 l 1,10,-1
 1063 885 l 1,11,-1
 1038 740 l 1,12,-1
 403 740 l 1,13,-1
 332 340 l 1,14,-1
 290 160 l 1,15,-1
 1040 160 l 1,0,-1
971 1600 m 1,16,-1
 821 1600 l 1,17,-1
 649 1900 l 1,18,-1
 857 1920 l 1,19,-1
 971 1600 l 1,16,-1
EndSplineSet
Validated: 1
EndChar

StartChar: Eacute
Encoding: 201 201 128
Width: 1300
GlyphClass: 1
Flags: W
LayerCount: 2
Fore
SplineSet
1040 160 m 1,0,-1
 992 0 l 1,1,-1
 72 0 l 1,2,-1
 123 200 l 1,3,-1
 315 1290 l 1,4,-1
 322 1500 l 1,5,-1
 1242 1500 l 1,6,-1
 1214 1340 l 1,7,-1
 489 1340 l 1,8,-1
 475 1150 l 1,9,-1
 428 885 l 1,10,-1
 1063 885 l 1,11,-1
 1038 740 l 1,12,-1
 403 740 l 1,13,-1
 332 340 l 1,14,-1
 290 160 l 1,15,-1
 1040 160 l 1,0,-1
803 1900 m 1,16,-1
 1037 1920 l 1,17,-1
 740 1600 l 1,18,-1
 590 1600 l 1,19,-1
 803 1900 l 1,16,-1
EndSplineSet
Validated: 1
EndChar

StartChar: Ecircumflex
Encoding: 202 202 129
Width: 1300
GlyphClass: 1
Flags: W
LayerCount: 2
Fore
SplineSet
1040 160 m 1,0,-1
 992 0 l 1,1,-1
 72 0 l 1,2,-1
 123 200 l 1,3,-1
 315 1290 l 1,4,-1
 322 1500 l 1,5,-1
 1242 1500 l 1,6,-1
 1214 1340 l 1,7,-1
 489 1340 l 1,8,-1
 475 1150 l 1,9,-1
 428 885 l 1,10,-1
 1063 885 l 1,11,-1
 1038 740 l 1,12,-1
 403 740 l 1,13,-1
 332 340 l 1,14,-1
 290 160 l 1,15,-1
 1040 160 l 1,0,-1
1045 1620 m 1,16,-1
 895 1620 l 1,17,-1
 821 1772 l 1,18,-1
 807 1860 l 1,19,-1
 762 1773 l 1,20,-1
 634 1620 l 1,21,-1
 484 1620 l 1,22,-1
 709 1900 l 1,23,-1
 913 1920 l 1,24,-1
 1045 1620 l 1,16,-1
EndSplineSet
Validated: 1
EndChar

StartChar: Edieresis
Encoding: 203 203 130
Width: 1300
GlyphClass: 1
Flags: W
LayerCount: 2
Fore
SplineSet
1040 160 m 1,0,-1
 992 0 l 1,1,-1
 72 0 l 1,2,-1
 123 200 l 1,3,-1
 315 1290 l 1,4,-1
 322 1500 l 1,5,-1
 1242 1500 l 1,6,-1
 1214 1340 l 1,7,-1
 489 1340 l 1,8,-1
 475 1150 l 1,9,-1
 428 885 l 1,10,-1
 1063 885 l 1,11,-1
 1038 740 l 1,12,-1
 403 740 l 1,13,-1
 332 340 l 1,14,-1
 290 160 l 1,15,-1
 1040 160 l 1,0,-1
714 1800 m 1,16,-1
 914 1800 l 1,17,-1
 879 1600 l 1,18,-1
 679 1600 l 1,19,-1
 714 1800 l 1,16,-1
1114 1800 m 1,20,-1
 1314 1800 l 1,21,-1
 1279 1600 l 1,22,-1
 1079 1600 l 1,23,-1
 1114 1800 l 1,20,-1
EndSplineSet
Validated: 1
EndChar

StartChar: Igrave
Encoding: 204 204 131
Width: 1300
GlyphClass: 1
Flags: W
LayerCount: 2
Fore
SplineSet
338 1500 m 1,0,-1
 1238 1500 l 1,1,-1
 1210 1340 l 1,2,-1
 852 1340 l 1,3,-1
 643 160 l 1,4,-1
 1021 160 l 1,5,-1
 973 0 l 1,6,-1
 73 0 l 1,7,-1
 101 160 l 1,8,-1
 457 160 l 1,9,-1
 666 1340 l 1,10,-1
 290 1340 l 1,11,-1
 338 1500 l 1,0,-1
929 1600 m 1,12,-1
 779 1600 l 1,13,-1
 607 1900 l 1,14,-1
 815 1920 l 1,15,-1
 929 1600 l 1,12,-1
EndSplineSet
Validated: 1
EndChar

StartChar: Iacute
Encoding: 205 205 132
Width: 1300
GlyphClass: 1
Flags: W
LayerCount: 2
Fore
SplineSet
338 1500 m 1,0,-1
 1238 1500 l 1,1,-1
 1210 1340 l 1,2,-1
 852 1340 l 1,3,-1
 643 160 l 1,4,-1
 1021 160 l 1,5,-1
 973 0 l 1,6,-1
 73 0 l 1,7,-1
 101 160 l 1,8,-1
 457 160 l 1,9,-1
 666 1340 l 1,10,-1
 290 1340 l 1,11,-1
 338 1500 l 1,0,-1
894 1900 m 1,12,-1
 1128 1920 l 1,13,-1
 831 1600 l 1,14,-1
 681 1600 l 1,15,-1
 894 1900 l 1,12,-1
EndSplineSet
Validated: 1
EndChar

StartChar: Icircumflex
Encoding: 206 206 133
Width: 1300
GlyphClass: 1
Flags: W
LayerCount: 2
Fore
SplineSet
338 1500 m 1,0,-1
 1238 1500 l 1,1,-1
 1210 1340 l 1,2,-1
 852 1340 l 1,3,-1
 643 160 l 1,4,-1
 1021 160 l 1,5,-1
 973 0 l 1,6,-1
 73 0 l 1,7,-1
 101 160 l 1,8,-1
 457 160 l 1,9,-1
 666 1340 l 1,10,-1
 290 1340 l 1,11,-1
 338 1500 l 1,0,-1
1142 1620 m 1,12,-1
 992 1620 l 1,13,-1
 918 1772 l 1,14,-1
 904 1860 l 1,15,-1
 859 1773 l 1,16,-1
 731 1620 l 1,17,-1
 581 1620 l 1,18,-1
 806 1900 l 1,19,-1
 1010 1920 l 1,20,-1
 1142 1620 l 1,12,-1
EndSplineSet
Validated: 1
EndChar

StartChar: Idieresis
Encoding: 207 207 134
Width: 1300
GlyphClass: 1
Flags: W
LayerCount: 2
Fore
SplineSet
338 1500 m 1,0,-1
 1238 1500 l 1,1,-1
 1210 1340 l 1,2,-1
 852 1340 l 1,3,-1
 643 160 l 1,4,-1
 1021 160 l 1,5,-1
 973 0 l 1,6,-1
 73 0 l 1,7,-1
 101 160 l 1,8,-1
 457 160 l 1,9,-1
 666 1340 l 1,10,-1
 290 1340 l 1,11,-1
 338 1500 l 1,0,-1
580 1900 m 1,12,-1
 780 1900 l 1,13,-1
 745 1700 l 1,14,-1
 545 1700 l 1,15,-1
 580 1900 l 1,12,-1
980 1900 m 1,16,-1
 1180 1900 l 1,17,-1
 1145 1700 l 1,18,-1
 945 1700 l 1,19,-1
 980 1900 l 1,16,-1
EndSplineSet
Validated: 1
EndChar

StartChar: Ntilde
Encoding: 209 209 135
Width: 1300
GlyphClass: 1
Flags: W
LayerCount: 2
Fore
SplineSet
817 0 m 1,0,-1
 490 948 l 1,1,-1
 403 1361 l 1,2,-1
 397 1360 l 1,3,-1
 385 920 l 1,4,-1
 222 0 l 1,5,-1
 42 0 l 1,6,-1
 270 1290 l 1,7,-1
 277 1500 l 1,8,-1
 482 1520 l 1,9,-1
 808 557 l 1,10,-1
 900 140 l 1,11,-1
 906 141 l 1,12,-1
 905 580 l 1,13,-1
 1067 1500 l 1,14,-1
 1251 1520 l 1,15,-1
 982 0 l 1,16,-1
 817 0 l 1,0,-1
535 1655 m 1,17,18
 547 1710 547 1710 571 1751 c 128,-1,19
 595 1792 595 1792 625 1818.5 c 128,-1,20
 655 1845 655 1845 688.5 1856.5 c 128,-1,21
 722 1868 722 1868 754 1864 c 0,22,23
 793 1858 793 1858 824 1843.5 c 128,-1,24
 855 1829 855 1829 883.5 1813.5 c 128,-1,25
 912 1798 912 1798 939.5 1786 c 128,-1,26
 967 1774 967 1774 998 1774 c 0,27,28
 1026 1774 1026 1774 1045.5 1784.5 c 128,-1,29
 1065 1795 1065 1795 1078 1811 c 128,-1,30
 1091 1827 1091 1827 1098 1845.5 c 128,-1,31
 1105 1864 1105 1864 1109 1881 c 1,32,-1
 1204 1878 l 1,33,34
 1198 1830 1198 1830 1175 1785.5 c 128,-1,35
 1152 1741 1152 1741 1119.5 1709 c 128,-1,36
 1087 1677 1087 1677 1047.5 1660.5 c 128,-1,37
 1008 1644 1008 1644 969 1651 c 0,38,39
 941 1656 941 1656 913 1672.5 c 128,-1,40
 885 1689 885 1689 855.5 1706 c 128,-1,41
 826 1723 826 1723 794 1734 c 128,-1,42
 762 1745 762 1745 726 1740 c 0,43,44
 688 1735 688 1735 661.5 1716 c 128,-1,45
 635 1697 635 1697 620 1652 c 1,46,-1
 535 1655 l 1,17,18
EndSplineSet
Validated: 33
EndChar

StartChar: Ograve
Encoding: 210 210 136
Width: 1300
GlyphClass: 1
Flags: W
LayerCount: 2
Fore
SplineSet
488 -17 m 0,0,1
 398 -17 398 -17 327 10.5 c 128,-1,2
 256 38 256 38 204 88.5 c 128,-1,3
 152 139 152 139 118 209 c 128,-1,4
 84 279 84 279 68 364.5 c 128,-1,5
 52 450 52 450 53.5 547.5 c 128,-1,6
 55 645 55 645 74 750 c 0,7,8
 92 855 92 855 124.5 952.5 c 128,-1,9
 157 1050 157 1050 202.5 1135.5 c 128,-1,10
 248 1221 248 1221 305.5 1291 c 128,-1,11
 363 1361 363 1361 433 1411.5 c 128,-1,12
 503 1462 503 1462 585 1489.5 c 128,-1,13
 667 1517 667 1517 759 1517 c 0,14,15
 849 1517 849 1517 920 1489.5 c 128,-1,16
 991 1462 991 1462 1043 1411.5 c 128,-1,17
 1095 1361 1095 1361 1129 1291 c 128,-1,18
 1163 1221 1163 1221 1179 1135.5 c 128,-1,19
 1195 1050 1195 1050 1193.5 952.5 c 128,-1,20
 1192 855 1192 855 1174 750 c 0,21,22
 1155 645 1155 645 1122.5 547.5 c 128,-1,23
 1090 450 1090 450 1045 364.5 c 128,-1,24
 1000 279 1000 279 942 209 c 128,-1,25
 884 139 884 139 814 88.5 c 128,-1,26
 744 38 744 38 662 10.5 c 128,-1,27
 580 -17 580 -17 488 -17 c 0,0,1
960 719 m 0,28,29
 972 789 972 789 980.5 862 c 128,-1,30
 989 935 989 935 988 1004.5 c 128,-1,31
 987 1074 987 1074 973.5 1135.5 c 128,-1,32
 960 1197 960 1197 929.5 1242.5 c 128,-1,33
 899 1288 899 1288 848.5 1315 c 128,-1,34
 798 1342 798 1342 722 1342 c 0,35,36
 650 1342 650 1342 593 1318 c 128,-1,37
 536 1294 536 1294 491 1252.5 c 128,-1,38
 446 1211 446 1211 413 1155.5 c 128,-1,39
 380 1100 380 1100 355.5 1038 c 128,-1,40
 331 976 331 976 315 911 c 128,-1,41
 299 846 299 846 288 785 c 0,42,43
 275 714 275 714 267 640 c 128,-1,44
 259 566 259 566 260 496.5 c 128,-1,45
 261 427 261 427 274 365.5 c 128,-1,46
 287 304 287 304 317.5 258 c 128,-1,47
 348 212 348 212 398.5 185 c 128,-1,48
 449 158 449 158 525 158 c 0,49,50
 596 158 596 158 653 182.5 c 128,-1,51
 710 207 710 207 755 249.5 c 128,-1,52
 800 292 800 292 833.5 347.5 c 128,-1,53
 867 403 867 403 891.5 465.5 c 128,-1,54
 916 528 916 528 932.5 593 c 128,-1,55
 949 658 949 658 960 719 c 0,28,29
1022 1600 m 1,56,-1
 872 1600 l 1,57,-1
 700 1900 l 1,58,-1
 908 1920 l 1,59,-1
 1022 1600 l 1,56,-1
EndSplineSet
Validated: 33
EndChar

StartChar: Oacute
Encoding: 211 211 137
Width: 1300
GlyphClass: 1
Flags: W
LayerCount: 2
Fore
SplineSet
488 -17 m 0,0,1
 398 -17 398 -17 327 10.5 c 128,-1,2
 256 38 256 38 204 88.5 c 128,-1,3
 152 139 152 139 118 209 c 128,-1,4
 84 279 84 279 68 364.5 c 128,-1,5
 52 450 52 450 53.5 547.5 c 128,-1,6
 55 645 55 645 74 750 c 0,7,8
 92 855 92 855 124.5 952.5 c 128,-1,9
 157 1050 157 1050 202.5 1135.5 c 128,-1,10
 248 1221 248 1221 305.5 1291 c 128,-1,11
 363 1361 363 1361 433 1411.5 c 128,-1,12
 503 1462 503 1462 585 1489.5 c 128,-1,13
 667 1517 667 1517 759 1517 c 0,14,15
 849 1517 849 1517 920 1489.5 c 128,-1,16
 991 1462 991 1462 1043 1411.5 c 128,-1,17
 1095 1361 1095 1361 1129 1291 c 128,-1,18
 1163 1221 1163 1221 1179 1135.5 c 128,-1,19
 1195 1050 1195 1050 1193.5 952.5 c 128,-1,20
 1192 855 1192 855 1174 750 c 0,21,22
 1155 645 1155 645 1122.5 547.5 c 128,-1,23
 1090 450 1090 450 1045 364.5 c 128,-1,24
 1000 279 1000 279 942 209 c 128,-1,25
 884 139 884 139 814 88.5 c 128,-1,26
 744 38 744 38 662 10.5 c 128,-1,27
 580 -17 580 -17 488 -17 c 0,0,1
960 719 m 0,28,29
 972 789 972 789 980.5 862 c 128,-1,30
 989 935 989 935 988 1004.5 c 128,-1,31
 987 1074 987 1074 973.5 1135.5 c 128,-1,32
 960 1197 960 1197 929.5 1242.5 c 128,-1,33
 899 1288 899 1288 848.5 1315 c 128,-1,34
 798 1342 798 1342 722 1342 c 0,35,36
 650 1342 650 1342 593 1318 c 128,-1,37
 536 1294 536 1294 491 1252.5 c 128,-1,38
 446 1211 446 1211 413 1155.5 c 128,-1,39
 380 1100 380 1100 355.5 1038 c 128,-1,40
 331 976 331 976 315 911 c 128,-1,41
 299 846 299 846 288 785 c 0,42,43
 275 714 275 714 267 640 c 128,-1,44
 259 566 259 566 260 496.5 c 128,-1,45
 261 427 261 427 274 365.5 c 128,-1,46
 287 304 287 304 317.5 258 c 128,-1,47
 348 212 348 212 398.5 185 c 128,-1,48
 449 158 449 158 525 158 c 0,49,50
 596 158 596 158 653 182.5 c 128,-1,51
 710 207 710 207 755 249.5 c 128,-1,52
 800 292 800 292 833.5 347.5 c 128,-1,53
 867 403 867 403 891.5 465.5 c 128,-1,54
 916 528 916 528 932.5 593 c 128,-1,55
 949 658 949 658 960 719 c 0,28,29
920 1900 m 1,56,-1
 1154 1920 l 1,57,-1
 857 1600 l 1,58,-1
 707 1600 l 1,59,-1
 920 1900 l 1,56,-1
EndSplineSet
Validated: 33
EndChar

StartChar: Ocircumflex
Encoding: 212 212 138
Width: 1300
GlyphClass: 1
Flags: W
LayerCount: 2
Fore
SplineSet
488 -17 m 0,0,1
 398 -17 398 -17 327 10.5 c 128,-1,2
 256 38 256 38 204 88.5 c 128,-1,3
 152 139 152 139 118 209 c 128,-1,4
 84 279 84 279 68 364.5 c 128,-1,5
 52 450 52 450 53.5 547.5 c 128,-1,6
 55 645 55 645 74 750 c 0,7,8
 92 855 92 855 124.5 952.5 c 128,-1,9
 157 1050 157 1050 202.5 1135.5 c 128,-1,10
 248 1221 248 1221 305.5 1291 c 128,-1,11
 363 1361 363 1361 433 1411.5 c 128,-1,12
 503 1462 503 1462 585 1489.5 c 128,-1,13
 667 1517 667 1517 759 1517 c 0,14,15
 849 1517 849 1517 920 1489.5 c 128,-1,16
 991 1462 991 1462 1043 1411.5 c 128,-1,17
 1095 1361 1095 1361 1129 1291 c 128,-1,18
 1163 1221 1163 1221 1179 1135.5 c 128,-1,19
 1195 1050 1195 1050 1193.5 952.5 c 128,-1,20
 1192 855 1192 855 1174 750 c 0,21,22
 1155 645 1155 645 1122.5 547.5 c 128,-1,23
 1090 450 1090 450 1045 364.5 c 128,-1,24
 1000 279 1000 279 942 209 c 128,-1,25
 884 139 884 139 814 88.5 c 128,-1,26
 744 38 744 38 662 10.5 c 128,-1,27
 580 -17 580 -17 488 -17 c 0,0,1
960 719 m 0,28,29
 972 789 972 789 980.5 862 c 128,-1,30
 989 935 989 935 988 1004.5 c 128,-1,31
 987 1074 987 1074 973.5 1135.5 c 128,-1,32
 960 1197 960 1197 929.5 1242.5 c 128,-1,33
 899 1288 899 1288 848.5 1315 c 128,-1,34
 798 1342 798 1342 722 1342 c 0,35,36
 650 1342 650 1342 593 1318 c 128,-1,37
 536 1294 536 1294 491 1252.5 c 128,-1,38
 446 1211 446 1211 413 1155.5 c 128,-1,39
 380 1100 380 1100 355.5 1038 c 128,-1,40
 331 976 331 976 315 911 c 128,-1,41
 299 846 299 846 288 785 c 0,42,43
 275 714 275 714 267 640 c 128,-1,44
 259 566 259 566 260 496.5 c 128,-1,45
 261 427 261 427 274 365.5 c 128,-1,46
 287 304 287 304 317.5 258 c 128,-1,47
 348 212 348 212 398.5 185 c 128,-1,48
 449 158 449 158 525 158 c 0,49,50
 596 158 596 158 653 182.5 c 128,-1,51
 710 207 710 207 755 249.5 c 128,-1,52
 800 292 800 292 833.5 347.5 c 128,-1,53
 867 403 867 403 891.5 465.5 c 128,-1,54
 916 528 916 528 932.5 593 c 128,-1,55
 949 658 949 658 960 719 c 0,28,29
1138 1620 m 1,56,-1
 988 1620 l 1,57,-1
 914 1772 l 1,58,-1
 900 1860 l 1,59,-1
 855 1773 l 1,60,-1
 727 1620 l 1,61,-1
 577 1620 l 1,62,-1
 802 1900 l 1,63,-1
 1006 1920 l 1,64,-1
 1138 1620 l 1,56,-1
EndSplineSet
Validated: 33
EndChar

StartChar: Otilde
Encoding: 213 213 139
Width: 1300
GlyphClass: 1
Flags: W
LayerCount: 2
Fore
SplineSet
488 -17 m 0,0,1
 398 -17 398 -17 327 10.5 c 128,-1,2
 256 38 256 38 204 88.5 c 128,-1,3
 152 139 152 139 118 209 c 128,-1,4
 84 279 84 279 68 364.5 c 128,-1,5
 52 450 52 450 53.5 547.5 c 128,-1,6
 55 645 55 645 74 750 c 0,7,8
 92 855 92 855 124.5 952.5 c 128,-1,9
 157 1050 157 1050 202.5 1135.5 c 128,-1,10
 248 1221 248 1221 305.5 1291 c 128,-1,11
 363 1361 363 1361 433 1411.5 c 128,-1,12
 503 1462 503 1462 585 1489.5 c 128,-1,13
 667 1517 667 1517 759 1517 c 0,14,15
 849 1517 849 1517 920 1489.5 c 128,-1,16
 991 1462 991 1462 1043 1411.5 c 128,-1,17
 1095 1361 1095 1361 1129 1291 c 128,-1,18
 1163 1221 1163 1221 1179 1135.5 c 128,-1,19
 1195 1050 1195 1050 1193.5 952.5 c 128,-1,20
 1192 855 1192 855 1174 750 c 0,21,22
 1155 645 1155 645 1122.5 547.5 c 128,-1,23
 1090 450 1090 450 1045 364.5 c 128,-1,24
 1000 279 1000 279 942 209 c 128,-1,25
 884 139 884 139 814 88.5 c 128,-1,26
 744 38 744 38 662 10.5 c 128,-1,27
 580 -17 580 -17 488 -17 c 0,0,1
960 719 m 0,28,29
 972 789 972 789 980.5 862 c 128,-1,30
 989 935 989 935 988 1004.5 c 128,-1,31
 987 1074 987 1074 973.5 1135.5 c 128,-1,32
 960 1197 960 1197 929.5 1242.5 c 128,-1,33
 899 1288 899 1288 848.5 1315 c 128,-1,34
 798 1342 798 1342 722 1342 c 0,35,36
 650 1342 650 1342 593 1318 c 128,-1,37
 536 1294 536 1294 491 1252.5 c 128,-1,38
 446 1211 446 1211 413 1155.5 c 128,-1,39
 380 1100 380 1100 355.5 1038 c 128,-1,40
 331 976 331 976 315 911 c 128,-1,41
 299 846 299 846 288 785 c 0,42,43
 275 714 275 714 267 640 c 128,-1,44
 259 566 259 566 260 496.5 c 128,-1,45
 261 427 261 427 274 365.5 c 128,-1,46
 287 304 287 304 317.5 258 c 128,-1,47
 348 212 348 212 398.5 185 c 128,-1,48
 449 158 449 158 525 158 c 0,49,50
 596 158 596 158 653 182.5 c 128,-1,51
 710 207 710 207 755 249.5 c 128,-1,52
 800 292 800 292 833.5 347.5 c 128,-1,53
 867 403 867 403 891.5 465.5 c 128,-1,54
 916 528 916 528 932.5 593 c 128,-1,55
 949 658 949 658 960 719 c 0,28,29
516 1655 m 1,56,57
 528 1710 528 1710 552 1751 c 128,-1,58
 576 1792 576 1792 606 1818.5 c 128,-1,59
 636 1845 636 1845 669.5 1856.5 c 128,-1,60
 703 1868 703 1868 735 1864 c 0,61,62
 774 1858 774 1858 805 1843.5 c 128,-1,63
 836 1829 836 1829 864.5 1813.5 c 128,-1,64
 893 1798 893 1798 920.5 1786 c 128,-1,65
 948 1774 948 1774 979 1774 c 0,66,67
 1007 1774 1007 1774 1026.5 1784.5 c 128,-1,68
 1046 1795 1046 1795 1059 1811 c 128,-1,69
 1072 1827 1072 1827 1079 1845.5 c 128,-1,70
 1086 1864 1086 1864 1090 1881 c 1,71,-1
 1185 1878 l 1,72,73
 1179 1830 1179 1830 1156 1785.5 c 128,-1,74
 1133 1741 1133 1741 1100.5 1709 c 128,-1,75
 1068 1677 1068 1677 1028.5 1660.5 c 128,-1,76
 989 1644 989 1644 950 1651 c 0,77,78
 922 1656 922 1656 894 1672.5 c 128,-1,79
 866 1689 866 1689 836.5 1706 c 128,-1,80
 807 1723 807 1723 775 1734 c 128,-1,81
 743 1745 743 1745 707 1740 c 0,82,83
 669 1735 669 1735 642.5 1716 c 128,-1,84
 616 1697 616 1697 601 1652 c 1,85,-1
 516 1655 l 1,56,57
EndSplineSet
Validated: 33
EndChar

StartChar: Odieresis
Encoding: 214 214 140
Width: 1300
GlyphClass: 1
Flags: W
LayerCount: 2
Fore
SplineSet
488 -17 m 0,0,1
 398 -17 398 -17 327 10.5 c 128,-1,2
 256 38 256 38 204 88.5 c 128,-1,3
 152 139 152 139 118 209 c 128,-1,4
 84 279 84 279 68 364.5 c 128,-1,5
 52 450 52 450 53.5 547.5 c 128,-1,6
 55 645 55 645 74 750 c 0,7,8
 92 855 92 855 124.5 952.5 c 128,-1,9
 157 1050 157 1050 202.5 1135.5 c 128,-1,10
 248 1221 248 1221 305.5 1291 c 128,-1,11
 363 1361 363 1361 433 1411.5 c 128,-1,12
 503 1462 503 1462 585 1489.5 c 128,-1,13
 667 1517 667 1517 759 1517 c 0,14,15
 849 1517 849 1517 920 1489.5 c 128,-1,16
 991 1462 991 1462 1043 1411.5 c 128,-1,17
 1095 1361 1095 1361 1129 1291 c 128,-1,18
 1163 1221 1163 1221 1179 1135.5 c 128,-1,19
 1195 1050 1195 1050 1193.5 952.5 c 128,-1,20
 1192 855 1192 855 1174 750 c 0,21,22
 1155 645 1155 645 1122.5 547.5 c 128,-1,23
 1090 450 1090 450 1045 364.5 c 128,-1,24
 1000 279 1000 279 942 209 c 128,-1,25
 884 139 884 139 814 88.5 c 128,-1,26
 744 38 744 38 662 10.5 c 128,-1,27
 580 -17 580 -17 488 -17 c 0,0,1
960 719 m 0,28,29
 972 789 972 789 980.5 862 c 128,-1,30
 989 935 989 935 988 1004.5 c 128,-1,31
 987 1074 987 1074 973.5 1135.5 c 128,-1,32
 960 1197 960 1197 929.5 1242.5 c 128,-1,33
 899 1288 899 1288 848.5 1315 c 128,-1,34
 798 1342 798 1342 722 1342 c 0,35,36
 650 1342 650 1342 593 1318 c 128,-1,37
 536 1294 536 1294 491 1252.5 c 128,-1,38
 446 1211 446 1211 413 1155.5 c 128,-1,39
 380 1100 380 1100 355.5 1038 c 128,-1,40
 331 976 331 976 315 911 c 128,-1,41
 299 846 299 846 288 785 c 0,42,43
 275 714 275 714 267 640 c 128,-1,44
 259 566 259 566 260 496.5 c 128,-1,45
 261 427 261 427 274 365.5 c 128,-1,46
 287 304 287 304 317.5 258 c 128,-1,47
 348 212 348 212 398.5 185 c 128,-1,48
 449 158 449 158 525 158 c 0,49,50
 596 158 596 158 653 182.5 c 128,-1,51
 710 207 710 207 755 249.5 c 128,-1,52
 800 292 800 292 833.5 347.5 c 128,-1,53
 867 403 867 403 891.5 465.5 c 128,-1,54
 916 528 916 528 932.5 593 c 128,-1,55
 949 658 949 658 960 719 c 0,28,29
552 1800 m 1,56,-1
 752 1800 l 1,57,-1
 717 1600 l 1,58,-1
 517 1600 l 1,59,-1
 552 1800 l 1,56,-1
952 1800 m 1,60,-1
 1152 1800 l 1,61,-1
 1117 1600 l 1,62,-1
 917 1600 l 1,63,-1
 952 1800 l 1,60,-1
EndSplineSet
Validated: 33
EndChar

StartChar: Oslash
Encoding: 216 216 141
Width: 1300
GlyphClass: 1
Flags: W
LayerCount: 2
Fore
SplineSet
488 -17 m 0,0,1
 398 -17 398 -17 327 10 c 0,2,3
 287 26 287 26 253 48 c 1,4,-1
 153 -100 l 1,5,-1
 -57 -100 l 1,6,-1
 133 179 l 1,7,8
 125 194 125 194 118 209 c 0,9,10
 84 279 84 279 68 364.5 c 128,-1,11
 52 450 52 450 53.5 547.5 c 128,-1,12
 55 645 55 645 74 750 c 0,13,14
 92 855 92 855 124.5 952.5 c 128,-1,15
 157 1050 157 1050 202.5 1135.5 c 128,-1,16
 248 1221 248 1221 305.5 1291 c 128,-1,17
 363 1361 363 1361 433 1411.5 c 128,-1,18
 503 1462 503 1462 585 1489.5 c 128,-1,19
 667 1517 667 1517 759 1517 c 0,20,21
 849 1517 849 1517 920 1489 c 0,22,23
 962 1473 962 1473 997 1448 c 1,24,-1
 1100 1600 l 1,25,-1
 1300 1600 l 1,26,-1
 1112 1322 l 1,27,28
 1121 1307 1121 1307 1129 1291 c 0,29,30
 1163 1221 1163 1221 1179 1135.5 c 128,-1,31
 1195 1050 1195 1050 1193.5 952.5 c 128,-1,32
 1192 855 1192 855 1174 750 c 0,33,34
 1155 645 1155 645 1122.5 547.5 c 128,-1,35
 1090 450 1090 450 1045 364.5 c 128,-1,36
 1000 279 1000 279 942 209 c 128,-1,37
 884 139 884 139 814 88.5 c 128,-1,38
 744 38 744 38 662 10.5 c 128,-1,39
 580 -17 580 -17 488 -17 c 0,0,1
848 1315 m 0,40,41
 798 1342 798 1342 722 1342 c 0,42,43
 650 1342 650 1342 593 1318 c 128,-1,44
 536 1294 536 1294 491 1252.5 c 128,-1,45
 446 1211 446 1211 413 1155.5 c 128,-1,46
 380 1100 380 1100 355.5 1038 c 128,-1,47
 331 976 331 976 315 911 c 128,-1,48
 299 846 299 846 288 785 c 0,49,50
 275 714 275 714 267 640 c 128,-1,51
 259 566 259 566 260 496 c 0,52,53
 261 436 261 436 270 381 c 1,54,-1
 888 1288 l 1,55,56
 870 1303 870 1303 848 1315 c 0,40,41
960 719 m 0,57,58
 972 789 972 789 980.5 862 c 128,-1,59
 989 935 989 935 988 1004 c 0,60,61
 987 1065 987 1065 976 1120 c 1,62,-1
 361 209 l 1,63,64
 378 195 378 195 398 185 c 0,65,66
 449 158 449 158 525 158 c 0,67,68
 596 158 596 158 653 182.5 c 128,-1,69
 710 207 710 207 755 249.5 c 128,-1,70
 800 292 800 292 833.5 347.5 c 128,-1,71
 867 403 867 403 891.5 465.5 c 128,-1,72
 916 528 916 528 932.5 593 c 128,-1,73
 949 658 949 658 960 719 c 0,57,58
EndSplineSet
Validated: 33
EndChar

StartChar: Ugrave
Encoding: 217 217 142
Width: 1300
GlyphClass: 1
Flags: W
LayerCount: 2
Fore
SplineSet
1226 1500 m 1,0,-1
 1054 523 l 2,1,2
 1030 387 1030 387 980 285.5 c 128,-1,3
 930 184 930 184 856.5 117 c 128,-1,4
 783 50 783 50 688 16.5 c 128,-1,5
 593 -17 593 -17 479 -17 c 0,6,7
 357 -17 357 -17 279.5 25.5 c 128,-1,8
 202 68 202 68 161.5 145.5 c 128,-1,9
 121 223 121 223 115.5 332 c 128,-1,10
 110 441 110 441 133 573 c 2,11,-1
 259 1290 l 1,12,-1
 266 1500 l 1,13,-1
 490 1520 l 1,14,-1
 320 554 l 2,15,16
 303 459 303 459 308.5 384.5 c 128,-1,17
 314 310 314 310 340 258.5 c 128,-1,18
 366 207 366 207 411 180 c 128,-1,19
 456 153 456 153 519 153 c 0,20,21
 666 153 666 153 748 240.5 c 128,-1,22
 830 328 830 328 861 504 c 2,23,-1
 1036 1500 l 1,24,-1
 1226 1500 l 1,0,-1
955 1600 m 1,25,-1
 805 1600 l 1,26,-1
 633 1900 l 1,27,-1
 841 1920 l 1,28,-1
 955 1600 l 1,25,-1
EndSplineSet
Validated: 33
EndChar

StartChar: Uacute
Encoding: 218 218 143
Width: 1300
GlyphClass: 1
Flags: W
LayerCount: 2
Fore
SplineSet
1226 1500 m 1,0,-1
 1054 523 l 2,1,2
 1030 387 1030 387 980 285.5 c 128,-1,3
 930 184 930 184 856.5 117 c 128,-1,4
 783 50 783 50 688 16.5 c 128,-1,5
 593 -17 593 -17 479 -17 c 0,6,7
 357 -17 357 -17 279.5 25.5 c 128,-1,8
 202 68 202 68 161.5 145.5 c 128,-1,9
 121 223 121 223 115.5 332 c 128,-1,10
 110 441 110 441 133 573 c 2,11,-1
 259 1290 l 1,12,-1
 266 1500 l 1,13,-1
 490 1520 l 1,14,-1
 320 554 l 2,15,16
 303 459 303 459 308.5 384.5 c 128,-1,17
 314 310 314 310 340 258.5 c 128,-1,18
 366 207 366 207 411 180 c 128,-1,19
 456 153 456 153 519 153 c 0,20,21
 666 153 666 153 748 240.5 c 128,-1,22
 830 328 830 328 861 504 c 2,23,-1
 1036 1500 l 1,24,-1
 1226 1500 l 1,0,-1
798 1900 m 1,25,-1
 1032 1920 l 1,26,-1
 735 1600 l 1,27,-1
 585 1600 l 1,28,-1
 798 1900 l 1,25,-1
EndSplineSet
Validated: 33
EndChar

StartChar: Ucircumflex
Encoding: 219 219 144
Width: 1300
GlyphClass: 1
Flags: W
LayerCount: 2
Fore
SplineSet
1226 1500 m 1,0,-1
 1054 523 l 2,1,2
 1030 387 1030 387 980 285.5 c 128,-1,3
 930 184 930 184 856.5 117 c 128,-1,4
 783 50 783 50 688 16.5 c 128,-1,5
 593 -17 593 -17 479 -17 c 0,6,7
 357 -17 357 -17 279.5 25.5 c 128,-1,8
 202 68 202 68 161.5 145.5 c 128,-1,9
 121 223 121 223 115.5 332 c 128,-1,10
 110 441 110 441 133 573 c 2,11,-1
 259 1290 l 1,12,-1
 266 1500 l 1,13,-1
 490 1520 l 1,14,-1
 320 554 l 2,15,16
 303 459 303 459 308.5 384.5 c 128,-1,17
 314 310 314 310 340 258.5 c 128,-1,18
 366 207 366 207 411 180 c 128,-1,19
 456 153 456 153 519 153 c 0,20,21
 666 153 666 153 748 240.5 c 128,-1,22
 830 328 830 328 861 504 c 2,23,-1
 1036 1500 l 1,24,-1
 1226 1500 l 1,0,-1
1046 1620 m 1,25,-1
 896 1620 l 1,26,-1
 822 1772 l 1,27,-1
 808 1860 l 1,28,-1
 763 1773 l 1,29,-1
 635 1620 l 1,30,-1
 485 1620 l 1,31,-1
 710 1900 l 1,32,-1
 914 1920 l 1,33,-1
 1046 1620 l 1,25,-1
EndSplineSet
Validated: 33
EndChar

StartChar: Udieresis
Encoding: 220 220 145
Width: 1300
GlyphClass: 1
Flags: W
LayerCount: 2
Fore
SplineSet
1226 1500 m 1,0,-1
 1054 523 l 2,1,2
 1030 387 1030 387 980 285.5 c 128,-1,3
 930 184 930 184 856.5 117 c 128,-1,4
 783 50 783 50 688 16.5 c 128,-1,5
 593 -17 593 -17 479 -17 c 0,6,7
 357 -17 357 -17 279.5 25.5 c 128,-1,8
 202 68 202 68 161.5 145.5 c 128,-1,9
 121 223 121 223 115.5 332 c 128,-1,10
 110 441 110 441 133 573 c 2,11,-1
 259 1290 l 1,12,-1
 266 1500 l 1,13,-1
 490 1520 l 1,14,-1
 320 554 l 2,15,16
 303 459 303 459 308.5 384.5 c 128,-1,17
 314 310 314 310 340 258.5 c 128,-1,18
 366 207 366 207 411 180 c 128,-1,19
 456 153 456 153 519 153 c 0,20,21
 666 153 666 153 748 240.5 c 128,-1,22
 830 328 830 328 861 504 c 2,23,-1
 1036 1500 l 1,24,-1
 1226 1500 l 1,0,-1
495 1800 m 1,25,-1
 695 1800 l 1,26,-1
 660 1600 l 1,27,-1
 460 1600 l 1,28,-1
 495 1800 l 1,25,-1
895 1800 m 1,29,-1
 1095 1800 l 1,30,-1
 1060 1600 l 1,31,-1
 860 1600 l 1,32,-1
 895 1800 l 1,29,-1
EndSplineSet
Validated: 33
EndChar

StartChar: germandbls
Encoding: 223 223 146
Width: 1300
GlyphClass: 1
Flags: W
LayerCount: 2
Fore
SplineSet
950 1148 m 0,0,1
 956 1196 956 1196 942 1235.5 c 128,-1,2
 928 1275 928 1275 901.5 1304.5 c 128,-1,3
 875 1334 875 1334 840 1350.5 c 128,-1,4
 805 1367 805 1367 769 1369 c 0,5,6
 691 1372 691 1372 645 1356 c 128,-1,7
 599 1340 599 1340 567 1304 c 0,8,9
 539 1273 539 1273 524.5 1239 c 128,-1,10
 510 1205 510 1205 502 1160 c 2,11,-1
 295 -17 l 1,12,-1
 100 0 l 1,13,-1
 295 1111 l 2,14,15
 329 1306 329 1306 453 1418 c 0,16,17
 481 1443 481 1443 510.5 1461.5 c 128,-1,18
 540 1480 540 1480 579.5 1492.5 c 128,-1,19
 619 1505 619 1505 671.5 1511 c 128,-1,20
 724 1517 724 1517 798 1517 c 0,21,22
 880 1517 880 1517 945.5 1490.5 c 128,-1,23
 1011 1464 1011 1464 1055.5 1417.5 c 128,-1,24
 1100 1371 1100 1371 1121 1307.5 c 128,-1,25
 1142 1244 1142 1244 1135 1169 c 0,26,27
 1129 1106 1129 1106 1110.5 1058 c 128,-1,28
 1092 1010 1092 1010 1061.5 972.5 c 128,-1,29
 1031 935 1031 935 990 908 c 128,-1,30
 949 881 949 881 899 860 c 1,31,-1
 737 816 l 1,32,-1
 882 802 l 1,33,34
 940 784 940 784 987.5 753.5 c 128,-1,35
 1035 723 1035 723 1066 680.5 c 128,-1,36
 1097 638 1097 638 1109.5 582.5 c 128,-1,37
 1122 527 1122 527 1111 460 c 1,38,39
 1102 366 1102 366 1070 295.5 c 128,-1,40
 1038 225 1038 225 991 174 c 128,-1,41
 944 123 944 123 884.5 89.5 c 128,-1,42
 825 56 825 56 760 36 c 128,-1,43
 695 16 695 16 627.5 8 c 128,-1,44
 560 0 560 0 498 0 c 1,45,-1
 466 160 l 1,46,47
 565 160 565 160 644 171.5 c 128,-1,48
 723 183 723 183 780.5 215 c 128,-1,49
 838 247 838 247 873 303.5 c 128,-1,50
 908 360 908 360 919 450 c 0,51,52
 936 591 936 591 852.5 660.5 c 128,-1,53
 769 730 769 730 606 730 c 1,54,-1
 564 885 l 1,55,56
 628 885 628 885 693 897.5 c 128,-1,57
 758 910 758 910 812 940.5 c 128,-1,58
 866 971 866 971 903.5 1021.5 c 128,-1,59
 941 1072 941 1072 950 1148 c 0,0,1
EndSplineSet
Validated: 33
EndChar

StartChar: agrave
Encoding: 224 224 147
Width: 1300
GlyphClass: 1
Flags: W
LayerCount: 2
Fore
SplineSet
927 930 m 1,0,1
 909 938 909 938 883.5 944 c 128,-1,2
 858 950 858 950 835 953 c 0,3,4
 808 957 808 957 779 958 c 0,5,6
 677 958 677 958 601 923 c 128,-1,7
 525 888 525 888 472 827 c 128,-1,8
 419 766 419 766 388 685 c 128,-1,9
 357 604 357 604 346 512 c 0,10,11
 340 462 340 462 340 421 c 0,12,13
 340 352 340 352 354 300 c 128,-1,14
 368 248 368 248 393 213.5 c 128,-1,15
 418 179 418 179 451 161.5 c 128,-1,16
 484 144 484 144 523 144 c 0,17,18
 575 144 575 144 619 158 c 128,-1,19
 663 172 663 172 699.5 195 c 128,-1,20
 736 218 736 218 766.5 247 c 128,-1,21
 797 276 797 276 821 306 c 1,22,-1
 927 930 l 1,0,1
768 0 m 1,23,-1
 796 162 l 1,24,-1
 681 49 l 2,25,26
 660 32 660 32 639.5 19.5 c 128,-1,27
 619 7 619 7 594.5 -1 c 128,-1,28
 570 -9 570 -9 538 -13 c 128,-1,29
 506 -17 506 -17 462 -17 c 0,30,31
 391 -17 391 -17 335 15 c 128,-1,32
 279 47 279 47 240 104.5 c 128,-1,33
 201 162 201 162 180.5 242 c 128,-1,34
 160 322 160 322 160 419 c 0,35,36
 160 447 160 447 161.5 476.5 c 128,-1,37
 163 506 163 506 167 536 c 0,38,39
 180 647 180 647 225 751.5 c 128,-1,40
 270 856 270 856 348.5 937 c 128,-1,41
 427 1018 427 1018 539.5 1067.5 c 128,-1,42
 652 1117 652 1117 800 1117 c 0,43,44
 884 1117 884 1117 970 1103 c 128,-1,45
 1056 1089 1056 1089 1133 1063 c 1,46,-1
 981 180 l 1,47,-1
 970 0 l 1,48,-1
 768 0 l 1,23,-1
1010 1200 m 1,49,-1
 860 1200 l 1,50,-1
 688 1500 l 1,51,-1
 896 1520 l 1,52,-1
 1010 1200 l 1,49,-1
EndSplineSet
Validated: 1
EndChar

StartChar: aacute
Encoding: 225 225 148
Width: 1300
GlyphClass: 1
Flags: W
LayerCount: 2
Fore
SplineSet
927 930 m 1,0,1
 909 938 909 938 883.5 944 c 128,-1,2
 858 950 858 950 835 953 c 0,3,4
 808 957 808 957 779 958 c 0,5,6
 677 958 677 958 601 923 c 128,-1,7
 525 888 525 888 472 827 c 128,-1,8
 419 766 419 766 388 685 c 128,-1,9
 357 604 357 604 346 512 c 0,10,11
 340 462 340 462 340 421 c 0,12,13
 340 352 340 352 354 300 c 128,-1,14
 368 248 368 248 393 213.5 c 128,-1,15
 418 179 418 179 451 161.5 c 128,-1,16
 484 144 484 144 523 144 c 0,17,18
 575 144 575 144 619 158 c 128,-1,19
 663 172 663 172 699.5 195 c 128,-1,20
 736 218 736 218 766.5 247 c 128,-1,21
 797 276 797 276 821 306 c 1,22,-1
 927 930 l 1,0,1
768 0 m 1,23,-1
 796 162 l 1,24,-1
 681 49 l 2,25,26
 660 32 660 32 639.5 19.5 c 128,-1,27
 619 7 619 7 594.5 -1 c 128,-1,28
 570 -9 570 -9 538 -13 c 128,-1,29
 506 -17 506 -17 462 -17 c 0,30,31
 391 -17 391 -17 335 15 c 128,-1,32
 279 47 279 47 240 104.5 c 128,-1,33
 201 162 201 162 180.5 242 c 128,-1,34
 160 322 160 322 160 419 c 0,35,36
 160 447 160 447 161.5 476.5 c 128,-1,37
 163 506 163 506 167 536 c 0,38,39
 180 647 180 647 225 751.5 c 128,-1,40
 270 856 270 856 348.5 937 c 128,-1,41
 427 1018 427 1018 539.5 1067.5 c 128,-1,42
 652 1117 652 1117 800 1117 c 0,43,44
 884 1117 884 1117 970 1103 c 128,-1,45
 1056 1089 1056 1089 1133 1063 c 1,46,-1
 981 180 l 1,47,-1
 970 0 l 1,48,-1
 768 0 l 1,23,-1
936 1500 m 1,49,-1
 1170 1520 l 1,50,-1
 873 1200 l 1,51,-1
 723 1200 l 1,52,-1
 936 1500 l 1,49,-1
EndSplineSet
Validated: 1
EndChar

StartChar: acircumflex
Encoding: 226 226 149
Width: 1300
GlyphClass: 1
Flags: W
LayerCount: 2
Fore
SplineSet
927 930 m 1,0,1
 909 938 909 938 883.5 944 c 128,-1,2
 858 950 858 950 835 953 c 0,3,4
 808 957 808 957 779 958 c 0,5,6
 677 958 677 958 601 923 c 128,-1,7
 525 888 525 888 472 827 c 128,-1,8
 419 766 419 766 388 685 c 128,-1,9
 357 604 357 604 346 512 c 0,10,11
 340 462 340 462 340 421 c 0,12,13
 340 352 340 352 354 300 c 128,-1,14
 368 248 368 248 393 213.5 c 128,-1,15
 418 179 418 179 451 161.5 c 128,-1,16
 484 144 484 144 523 144 c 0,17,18
 575 144 575 144 619 158 c 128,-1,19
 663 172 663 172 699.5 195 c 128,-1,20
 736 218 736 218 766.5 247 c 128,-1,21
 797 276 797 276 821 306 c 1,22,-1
 927 930 l 1,0,1
768 0 m 1,23,-1
 796 162 l 1,24,-1
 681 49 l 2,25,26
 660 32 660 32 639.5 19.5 c 128,-1,27
 619 7 619 7 594.5 -1 c 128,-1,28
 570 -9 570 -9 538 -13 c 128,-1,29
 506 -17 506 -17 462 -17 c 0,30,31
 391 -17 391 -17 335 15 c 128,-1,32
 279 47 279 47 240 104.5 c 128,-1,33
 201 162 201 162 180.5 242 c 128,-1,34
 160 322 160 322 160 419 c 0,35,36
 160 447 160 447 161.5 476.5 c 128,-1,37
 163 506 163 506 167 536 c 0,38,39
 180 647 180 647 225 751.5 c 128,-1,40
 270 856 270 856 348.5 937 c 128,-1,41
 427 1018 427 1018 539.5 1067.5 c 128,-1,42
 652 1117 652 1117 800 1117 c 0,43,44
 884 1117 884 1117 970 1103 c 128,-1,45
 1056 1089 1056 1089 1133 1063 c 1,46,-1
 981 180 l 1,47,-1
 970 0 l 1,48,-1
 768 0 l 1,23,-1
1129 1220 m 1,49,-1
 979 1220 l 1,50,-1
 905 1372 l 1,51,-1
 891 1460 l 1,52,-1
 846 1373 l 1,53,-1
 718 1220 l 1,54,-1
 568 1220 l 1,55,-1
 793 1500 l 1,56,-1
 997 1520 l 1,57,-1
 1129 1220 l 1,49,-1
EndSplineSet
Validated: 1
EndChar

StartChar: atilde
Encoding: 227 227 150
Width: 1300
GlyphClass: 1
Flags: W
LayerCount: 2
Fore
SplineSet
927 930 m 1,0,1
 909 938 909 938 883.5 944 c 128,-1,2
 858 950 858 950 835 953 c 0,3,4
 808 957 808 957 779 958 c 0,5,6
 677 958 677 958 601 923 c 128,-1,7
 525 888 525 888 472 827 c 128,-1,8
 419 766 419 766 388 685 c 128,-1,9
 357 604 357 604 346 512 c 0,10,11
 340 462 340 462 340 421 c 0,12,13
 340 352 340 352 354 300 c 128,-1,14
 368 248 368 248 393 213.5 c 128,-1,15
 418 179 418 179 451 161.5 c 128,-1,16
 484 144 484 144 523 144 c 0,17,18
 575 144 575 144 619 158 c 128,-1,19
 663 172 663 172 699.5 195 c 128,-1,20
 736 218 736 218 766.5 247 c 128,-1,21
 797 276 797 276 821 306 c 1,22,-1
 927 930 l 1,0,1
768 0 m 1,23,-1
 796 162 l 1,24,-1
 681 49 l 2,25,26
 660 32 660 32 639.5 19.5 c 128,-1,27
 619 7 619 7 594.5 -1 c 128,-1,28
 570 -9 570 -9 538 -13 c 128,-1,29
 506 -17 506 -17 462 -17 c 0,30,31
 391 -17 391 -17 335 15 c 128,-1,32
 279 47 279 47 240 104.5 c 128,-1,33
 201 162 201 162 180.5 242 c 128,-1,34
 160 322 160 322 160 419 c 0,35,36
 160 447 160 447 161.5 476.5 c 128,-1,37
 163 506 163 506 167 536 c 0,38,39
 180 647 180 647 225 751.5 c 128,-1,40
 270 856 270 856 348.5 937 c 128,-1,41
 427 1018 427 1018 539.5 1067.5 c 128,-1,42
 652 1117 652 1117 800 1117 c 0,43,44
 884 1117 884 1117 970 1103 c 128,-1,45
 1056 1089 1056 1089 1133 1063 c 1,46,-1
 981 180 l 1,47,-1
 970 0 l 1,48,-1
 768 0 l 1,23,-1
528 1275 m 1,49,50
 540 1330 540 1330 564 1371 c 128,-1,51
 588 1412 588 1412 618 1438.5 c 128,-1,52
 648 1465 648 1465 681.5 1476.5 c 128,-1,53
 715 1488 715 1488 747 1484 c 0,54,55
 786 1478 786 1478 817 1463.5 c 128,-1,56
 848 1449 848 1449 876.5 1433.5 c 128,-1,57
 905 1418 905 1418 932.5 1406 c 128,-1,58
 960 1394 960 1394 991 1394 c 0,59,60
 1019 1394 1019 1394 1038.5 1404.5 c 128,-1,61
 1058 1415 1058 1415 1071 1431 c 128,-1,62
 1084 1447 1084 1447 1091 1465.5 c 128,-1,63
 1098 1484 1098 1484 1102 1501 c 1,64,-1
 1197 1498 l 1,65,66
 1191 1450 1191 1450 1168 1405.5 c 128,-1,67
 1145 1361 1145 1361 1112.5 1329 c 128,-1,68
 1080 1297 1080 1297 1040.5 1280.5 c 128,-1,69
 1001 1264 1001 1264 962 1271 c 0,70,71
 934 1276 934 1276 906 1292.5 c 128,-1,72
 878 1309 878 1309 848.5 1326 c 128,-1,73
 819 1343 819 1343 787 1354 c 128,-1,74
 755 1365 755 1365 719 1360 c 0,75,76
 681 1355 681 1355 654.5 1336 c 128,-1,77
 628 1317 628 1317 613 1272 c 1,78,-1
 528 1275 l 1,49,50
EndSplineSet
Validated: 33
EndChar

StartChar: adieresis
Encoding: 228 228 151
Width: 1300
GlyphClass: 1
Flags: W
LayerCount: 2
Fore
SplineSet
927 930 m 1,0,1
 909 938 909 938 883.5 944 c 128,-1,2
 858 950 858 950 835 953 c 0,3,4
 808 957 808 957 779 958 c 0,5,6
 677 958 677 958 601 923 c 128,-1,7
 525 888 525 888 472 827 c 128,-1,8
 419 766 419 766 388 685 c 128,-1,9
 357 604 357 604 346 512 c 0,10,11
 340 462 340 462 340 421 c 0,12,13
 340 352 340 352 354 300 c 128,-1,14
 368 248 368 248 393 213.5 c 128,-1,15
 418 179 418 179 451 161.5 c 128,-1,16
 484 144 484 144 523 144 c 0,17,18
 575 144 575 144 619 158 c 128,-1,19
 663 172 663 172 699.5 195 c 128,-1,20
 736 218 736 218 766.5 247 c 128,-1,21
 797 276 797 276 821 306 c 1,22,-1
 927 930 l 1,0,1
768 0 m 1,23,-1
 796 162 l 1,24,-1
 681 49 l 2,25,26
 660 32 660 32 639.5 19.5 c 128,-1,27
 619 7 619 7 594.5 -1 c 128,-1,28
 570 -9 570 -9 538 -13 c 128,-1,29
 506 -17 506 -17 462 -17 c 0,30,31
 391 -17 391 -17 335 15 c 128,-1,32
 279 47 279 47 240 104.5 c 128,-1,33
 201 162 201 162 180.5 242 c 128,-1,34
 160 322 160 322 160 419 c 0,35,36
 160 447 160 447 161.5 476.5 c 128,-1,37
 163 506 163 506 167 536 c 0,38,39
 180 647 180 647 225 751.5 c 128,-1,40
 270 856 270 856 348.5 937 c 128,-1,41
 427 1018 427 1018 539.5 1067.5 c 128,-1,42
 652 1117 652 1117 800 1117 c 0,43,44
 884 1117 884 1117 970 1103 c 128,-1,45
 1056 1089 1056 1089 1133 1063 c 1,46,-1
 981 180 l 1,47,-1
 970 0 l 1,48,-1
 768 0 l 1,23,-1
620 1500 m 1,49,-1
 820 1500 l 1,50,-1
 785 1300 l 1,51,-1
 585 1300 l 1,52,-1
 620 1500 l 1,49,-1
1020 1500 m 1,53,-1
 1220 1500 l 1,54,-1
 1185 1300 l 1,55,-1
 985 1300 l 1,56,-1
 1020 1500 l 1,53,-1
EndSplineSet
Validated: 1
EndChar

StartChar: aring
Encoding: 229 229 152
Width: 1300
GlyphClass: 1
Flags: W
LayerCount: 2
Fore
SplineSet
927 930 m 1,0,1
 909 938 909 938 883.5 944 c 128,-1,2
 858 950 858 950 835 953 c 0,3,4
 808 957 808 957 779 958 c 0,5,6
 677 958 677 958 601 923 c 128,-1,7
 525 888 525 888 472 827 c 128,-1,8
 419 766 419 766 388 685 c 128,-1,9
 357 604 357 604 346 512 c 0,10,11
 340 462 340 462 340 421 c 0,12,13
 340 352 340 352 354 300 c 128,-1,14
 368 248 368 248 393 213.5 c 128,-1,15
 418 179 418 179 451 161.5 c 128,-1,16
 484 144 484 144 523 144 c 0,17,18
 575 144 575 144 619 158 c 128,-1,19
 663 172 663 172 699.5 195 c 128,-1,20
 736 218 736 218 766.5 247 c 128,-1,21
 797 276 797 276 821 306 c 1,22,-1
 927 930 l 1,0,1
768 0 m 1,23,-1
 796 162 l 1,24,-1
 681 49 l 2,25,26
 660 32 660 32 639.5 19.5 c 128,-1,27
 619 7 619 7 594.5 -1 c 128,-1,28
 570 -9 570 -9 538 -13 c 128,-1,29
 506 -17 506 -17 462 -17 c 0,30,31
 391 -17 391 -17 335 15 c 128,-1,32
 279 47 279 47 240 104.5 c 128,-1,33
 201 162 201 162 180.5 242 c 128,-1,34
 160 322 160 322 160 419 c 0,35,36
 160 447 160 447 161.5 476.5 c 128,-1,37
 163 506 163 506 167 536 c 0,38,39
 180 647 180 647 225 751.5 c 128,-1,40
 270 856 270 856 348.5 937 c 128,-1,41
 427 1018 427 1018 539.5 1067.5 c 128,-1,42
 652 1117 652 1117 800 1117 c 0,43,44
 884 1117 884 1117 970 1103 c 128,-1,45
 1056 1089 1056 1089 1133 1063 c 1,46,-1
 981 180 l 1,47,-1
 970 0 l 1,48,-1
 768 0 l 1,23,-1
944 1636 m 0,49,50
 992 1628 992 1628 1029.5 1606.5 c 128,-1,51
 1067 1585 1067 1585 1092 1553.5 c 128,-1,52
 1117 1522 1117 1522 1129 1482.5 c 128,-1,53
 1141 1443 1141 1443 1139 1399 c 0,54,55
 1136 1342 1136 1342 1111.5 1296.5 c 128,-1,56
 1087 1251 1087 1251 1048.5 1219.5 c 128,-1,57
 1010 1188 1010 1188 961.5 1172 c 128,-1,58
 913 1156 913 1156 862 1158 c 0,59,60
 818 1159 818 1159 780.5 1179.5 c 128,-1,61
 743 1200 743 1200 716 1233 c 128,-1,62
 689 1266 689 1266 675 1309 c 128,-1,63
 661 1352 661 1352 664 1399 c 0,64,65
 667 1449 667 1449 691.5 1495.5 c 128,-1,66
 716 1542 716 1542 755 1576 c 128,-1,67
 794 1610 794 1610 843.5 1627 c 128,-1,68
 893 1644 893 1644 944 1636 c 0,49,50
881 1275 m 0,69,70
 905 1270 905 1270 930.5 1277 c 128,-1,71
 956 1284 956 1284 977.5 1300.5 c 128,-1,72
 999 1317 999 1317 1012 1342 c 128,-1,73
 1025 1367 1025 1367 1023 1398 c 0,74,75
 1020 1450 1020 1450 996.5 1479.5 c 128,-1,76
 973 1509 973 1509 923 1519 c 0,77,78
 897 1524 897 1524 871.5 1515.5 c 128,-1,79
 846 1507 846 1507 825.5 1489.5 c 128,-1,80
 805 1472 805 1472 792.5 1448 c 128,-1,81
 780 1424 780 1424 781 1398 c 0,82,83
 784 1296 784 1296 881 1275 c 0,69,70
EndSplineSet
Validated: 33
EndChar

StartChar: ae
Encoding: 230 230 153
Width: 1300
GlyphClass: 1
Flags: W
LayerCount: 2
Fore
SplineSet
1262 650 m 0,0,1
 1259 631 1259 631 1253.5 609.5 c 128,-1,2
 1248 588 1248 588 1241.5 567 c 128,-1,3
 1235 546 1235 546 1228.5 528 c 128,-1,4
 1222 510 1222 510 1216 500 c 1,5,-1
 736 500 l 1,6,7
 722 425 722 425 722 360 c 128,-1,8
 722 295 722 295 736 246.5 c 128,-1,9
 750 198 750 198 779 170.5 c 128,-1,10
 808 143 808 143 853 143 c 0,11,12
 891 143 891 143 923.5 152.5 c 128,-1,13
 956 162 956 162 981.5 175 c 128,-1,14
 1007 188 1007 188 1024 202 c 128,-1,15
 1041 216 1041 216 1049 225 c 1,16,-1
 1161 129 l 1,17,18
 1131 99 1131 99 1099.5 72.5 c 128,-1,19
 1068 46 1068 46 1029 26 c 128,-1,20
 990 6 990 6 940 -5.5 c 128,-1,21
 890 -17 890 -17 823 -17 c 0,22,23
 770 -17 770 -17 726.5 -0.5 c 128,-1,24
 683 16 683 16 650.5 44 c 128,-1,25
 618 72 618 72 598.5 109.5 c 128,-1,26
 579 147 579 147 574 189 c 1,27,28
 550 147 550 147 523.5 109.5 c 128,-1,29
 497 72 497 72 462.5 44 c 128,-1,30
 428 16 428 16 384 -0.5 c 128,-1,31
 340 -17 340 -17 281 -17 c 0,32,33
 213 -17 213 -17 158 6.5 c 128,-1,34
 103 30 103 30 67 75.5 c 128,-1,35
 31 121 31 121 17 188.5 c 128,-1,36
 3 256 3 256 18 344 c 0,37,38
 34 437 34 437 68 505.5 c 128,-1,39
 102 574 102 574 150 619.5 c 128,-1,40
 198 665 198 665 258.5 687.5 c 128,-1,41
 319 710 319 710 388 710 c 0,42,43
 426 710 426 710 454.5 704 c 128,-1,44
 483 698 483 698 501 690 c 0,45,46
 522 681 522 681 536 670 c 1,47,-1
 542 705 l 2,48,49
 552 764 552 764 558.5 811 c 128,-1,50
 565 858 565 858 559 890.5 c 128,-1,51
 553 923 553 923 530.5 940 c 128,-1,52
 508 957 508 957 461 957 c 0,53,54
 428 957 428 957 395.5 948 c 128,-1,55
 363 939 363 939 337 928 c 0,56,57
 306 916 306 916 279 900 c 1,58,-1
 227 1044 l 1,59,60
 272 1064 272 1064 324 1080 c 0,61,62
 369 1094 369 1094 426.5 1105.5 c 128,-1,63
 484 1117 484 1117 549 1117 c 0,64,65
 591 1117 591 1117 622 1104.5 c 128,-1,66
 653 1092 653 1092 673.5 1070.5 c 128,-1,67
 694 1049 694 1049 705 1021 c 128,-1,68
 716 993 716 993 720 962 c 1,69,70
 735 993 735 993 760.5 1021 c 128,-1,71
 786 1049 786 1049 822 1070.5 c 128,-1,72
 858 1092 858 1092 904 1104.5 c 128,-1,73
 950 1117 950 1117 1004 1117 c 0,74,75
 1101 1117 1101 1117 1161 1087 c 128,-1,76
 1221 1057 1221 1057 1250 998 c 128,-1,77
 1279 939 1279 939 1280.5 851.5 c 128,-1,78
 1282 764 1282 764 1262 650 c 0,0,1
512 533 m 1,79,80
 505 537 505 537 493 541 c 0,81,82
 482 544 482 544 465.5 547 c 128,-1,83
 449 550 449 550 426 550 c 0,84,85
 333 550 333 550 275.5 503.5 c 128,-1,86
 218 457 218 457 198 345 c 0,87,88
 190 300 190 300 192 263 c 128,-1,89
 194 226 194 226 208 199 c 128,-1,90
 222 172 222 172 249 157.5 c 128,-1,91
 276 143 276 143 317 143 c 0,92,93
 357 143 357 143 385 163 c 128,-1,94
 413 183 413 183 431 208 c 0,95,96
 452 237 452 237 466 274 c 1,97,-1
 512 533 l 1,79,80
1098 730 m 2,98,99
 1106 776 1106 776 1109 817.5 c 128,-1,100
 1112 859 1112 859 1103 890 c 128,-1,101
 1094 921 1094 921 1070.5 939 c 128,-1,102
 1047 957 1047 957 1002 957 c 0,103,104
 953 957 953 957 914.5 937.5 c 128,-1,105
 876 918 876 918 847.5 886.5 c 128,-1,106
 819 855 819 855 801 814.5 c 128,-1,107
 783 774 783 774 776 732 c 1,108,-1
 687 623 l 1,109,-1
 814 650 l 1,110,-1
 1084 650 l 1,111,-1
 1098 730 l 2,98,99
EndSplineSet
Validated: 33
EndChar

StartChar: ccedilla
Encoding: 231 231 154
Width: 1300
GlyphClass: 1
Flags: W
LayerCount: 2
Fore
SplineSet
1043 885 m 1,0,1
 1006 917 1006 917 942.5 937 c 128,-1,2
 879 957 879 957 774 957 c 0,3,4
 690 957 690 957 618 925.5 c 128,-1,5
 546 894 546 894 490 840 c 128,-1,6
 434 786 434 786 397 714.5 c 128,-1,7
 360 643 360 643 346 564 c 0,8,9
 337 516 337 516 337 469 c 0,10,11
 337 403 337 403 355.5 345 c 128,-1,12
 374 287 374 287 411.5 244 c 128,-1,13
 449 201 449 201 507 176.5 c 128,-1,14
 565 152 565 152 643 152 c 0,15,16
 685 152 685 152 731 165 c 128,-1,17
 777 178 777 178 819.5 195 c 128,-1,18
 862 212 862 212 895.5 230 c 128,-1,19
 929 248 929 248 946 258 c 1,20,-1
 999 115 l 1,21,22
 969 93 969 93 925.5 70 c 128,-1,23
 882 47 882 47 829.5 27.5 c 128,-1,24
 777 8 777 8 718 -4 c 0,25,26
 695 -9 695 -9 672 -12 c 1,27,28
 684 -34 684 -34 694 -59 c 0,29,30
 705 -86 705 -86 711 -122 c 128,-1,31
 717 -158 717 -158 712 -198 c 0,32,33
 705 -248 705 -248 682 -287 c 128,-1,34
 659 -326 659 -326 624.5 -352.5 c 128,-1,35
 590 -379 590 -379 545.5 -393 c 128,-1,36
 501 -407 501 -407 451 -407 c 0,37,38
 409 -407 409 -407 365.5 -393.5 c 128,-1,39
 322 -380 322 -380 286 -363 c 0,40,41
 244 -344 244 -344 205 -318 c 1,42,-1
 294 -218 l 1,43,44
 317 -235 317 -235 343 -248 c 0,45,46
 365 -259 365 -259 392.5 -269 c 128,-1,47
 420 -279 420 -279 449 -279 c 0,48,49
 492 -280 492 -280 522 -259 c 128,-1,50
 552 -238 552 -238 560 -189 c 0,51,52
 565 -156 565 -156 555 -122 c 128,-1,53
 545 -88 545 -88 530 -61 c 0,54,55
 514 -33 514 -33 494 -7 c 1,56,57
 446 2 446 2 405 21 c 0,58,59
 320 60 320 60 262 125.5 c 128,-1,60
 204 191 204 191 173.5 278.5 c 128,-1,61
 143 366 143 366 143 464 c 0,62,63
 143 492 143 492 145.5 520 c 128,-1,64
 148 548 148 548 153 577 c 0,65,66
 171 681 171 681 226.5 778.5 c 128,-1,67
 282 876 282 876 367.5 951 c 128,-1,68
 453 1026 453 1026 564 1071.5 c 128,-1,69
 675 1117 675 1117 804 1117 c 0,70,71
 926 1117 926 1117 1012.5 1088.5 c 128,-1,72
 1099 1060 1099 1060 1162 1000 c 1,73,-1
 1043 885 l 1,0,1
EndSplineSet
Validated: 33
EndChar

StartChar: egrave
Encoding: 232 232 155
Width: 1300
GlyphClass: 1
Flags: W
LayerCount: 2
Fore
SplineSet
1017 139 m 1,0,1
 986 112 986 112 940.5 84 c 128,-1,2
 895 56 895 56 836 33.5 c 128,-1,3
 777 11 777 11 705.5 -3 c 128,-1,4
 634 -17 634 -17 552 -17 c 0,5,6
 439 -17 439 -17 359 21.5 c 128,-1,7
 279 60 279 60 227.5 125 c 128,-1,8
 176 190 176 190 152 275.5 c 128,-1,9
 128 361 128 361 128 455 c 0,10,11
 128 502 128 502 134 550 c 0,12,13
 143 623 143 623 166.5 694 c 128,-1,14
 190 765 190 765 227.5 828 c 128,-1,15
 265 891 265 891 315.5 944 c 128,-1,16
 366 997 366 997 429 1035.5 c 128,-1,17
 492 1074 492 1074 566.5 1095.5 c 128,-1,18
 641 1117 641 1117 726 1117 c 0,19,20
 826 1117 826 1117 903.5 1089 c 128,-1,21
 981 1061 981 1061 1034 1010 c 128,-1,22
 1087 959 1087 959 1114.5 887.5 c 128,-1,23
 1142 816 1142 816 1142 729 c 0,24,25
 1142 687 1142 687 1135 646 c 0,26,27
 1130 615 1130 615 1122.5 589 c 128,-1,28
 1115 563 1115 563 1107 543 c 0,29,30
 1098 520 1098 520 1089 500 c 1,31,-1
 308 500 l 1,32,33
 302 477 302 477 299.5 456 c 128,-1,34
 297 435 297 435 297 415 c 0,35,36
 297 353 297 353 320 301 c 128,-1,37
 343 249 343 249 381 211.5 c 128,-1,38
 419 174 419 174 468 153.5 c 128,-1,39
 517 133 517 133 570 133 c 0,40,41
 634 133 634 133 690.5 145.5 c 128,-1,42
 747 158 747 158 792.5 176 c 128,-1,43
 838 194 838 194 872 213 c 128,-1,44
 906 232 906 232 925 245 c 1,45,-1
 1017 139 l 1,0,1
959 650 m 2,46,47
 961 653 961 653 964 666 c 128,-1,48
 967 679 967 679 969.5 695.5 c 128,-1,49
 972 712 972 712 973.5 727.5 c 128,-1,50
 975 743 975 743 975 752 c 0,51,52
 975 788 975 788 964 824.5 c 128,-1,53
 953 861 953 861 924 891 c 128,-1,54
 895 921 895 921 844 939.5 c 128,-1,55
 793 958 793 958 713 958 c 0,56,57
 648 958 648 958 593.5 939.5 c 128,-1,58
 539 921 539 921 495.5 889.5 c 128,-1,59
 452 858 452 858 420 817 c 128,-1,60
 388 776 388 776 368 732 c 1,61,-1
 286 623 l 1,62,-1
 479 650 l 1,63,-1
 959 650 l 2,46,47
838 1200 m 1,64,-1
 688 1200 l 1,65,-1
 516 1500 l 1,66,-1
 724 1520 l 1,67,-1
 838 1200 l 1,64,-1
EndSplineSet
Validated: 1
EndChar

StartChar: eacute
Encoding: 233 233 156
Width: 1300
GlyphClass: 1
Flags: W
LayerCount: 2
Fore
SplineSet
1017 139 m 1,0,1
 986 112 986 112 940.5 84 c 128,-1,2
 895 56 895 56 836 33.5 c 128,-1,3
 777 11 777 11 705.5 -3 c 128,-1,4
 634 -17 634 -17 552 -17 c 0,5,6
 439 -17 439 -17 359 21.5 c 128,-1,7
 279 60 279 60 227.5 125 c 128,-1,8
 176 190 176 190 152 275.5 c 128,-1,9
 128 361 128 361 128 455 c 0,10,11
 128 502 128 502 134 550 c 0,12,13
 143 623 143 623 166.5 694 c 128,-1,14
 190 765 190 765 227.5 828 c 128,-1,15
 265 891 265 891 315.5 944 c 128,-1,16
 366 997 366 997 429 1035.5 c 128,-1,17
 492 1074 492 1074 566.5 1095.5 c 128,-1,18
 641 1117 641 1117 726 1117 c 0,19,20
 826 1117 826 1117 903.5 1089 c 128,-1,21
 981 1061 981 1061 1034 1010 c 128,-1,22
 1087 959 1087 959 1114.5 887.5 c 128,-1,23
 1142 816 1142 816 1142 729 c 0,24,25
 1142 687 1142 687 1135 646 c 0,26,27
 1130 615 1130 615 1122.5 589 c 128,-1,28
 1115 563 1115 563 1107 543 c 0,29,30
 1098 520 1098 520 1089 500 c 1,31,-1
 308 500 l 1,32,33
 302 477 302 477 299.5 456 c 128,-1,34
 297 435 297 435 297 415 c 0,35,36
 297 353 297 353 320 301 c 128,-1,37
 343 249 343 249 381 211.5 c 128,-1,38
 419 174 419 174 468 153.5 c 128,-1,39
 517 133 517 133 570 133 c 0,40,41
 634 133 634 133 690.5 145.5 c 128,-1,42
 747 158 747 158 792.5 176 c 128,-1,43
 838 194 838 194 872 213 c 128,-1,44
 906 232 906 232 925 245 c 1,45,-1
 1017 139 l 1,0,1
959 650 m 2,46,47
 961 653 961 653 964 666 c 128,-1,48
 967 679 967 679 969.5 695.5 c 128,-1,49
 972 712 972 712 973.5 727.5 c 128,-1,50
 975 743 975 743 975 752 c 0,51,52
 975 788 975 788 964 824.5 c 128,-1,53
 953 861 953 861 924 891 c 128,-1,54
 895 921 895 921 844 939.5 c 128,-1,55
 793 958 793 958 713 958 c 0,56,57
 648 958 648 958 593.5 939.5 c 128,-1,58
 539 921 539 921 495.5 889.5 c 128,-1,59
 452 858 452 858 420 817 c 128,-1,60
 388 776 388 776 368 732 c 1,61,-1
 286 623 l 1,62,-1
 479 650 l 1,63,-1
 959 650 l 2,46,47
909 1500 m 1,64,-1
 1143 1520 l 1,65,-1
 846 1200 l 1,66,-1
 696 1200 l 1,67,-1
 909 1500 l 1,64,-1
EndSplineSet
Validated: 1
EndChar

StartChar: ecircumflex
Encoding: 234 234 157
Width: 1300
GlyphClass: 1
Flags: W
LayerCount: 2
Fore
SplineSet
1017 139 m 1,0,1
 986 112 986 112 940.5 84 c 128,-1,2
 895 56 895 56 836 33.5 c 128,-1,3
 777 11 777 11 705.5 -3 c 128,-1,4
 634 -17 634 -17 552 -17 c 0,5,6
 439 -17 439 -17 359 21.5 c 128,-1,7
 279 60 279 60 227.5 125 c 128,-1,8
 176 190 176 190 152 275.5 c 128,-1,9
 128 361 128 361 128 455 c 0,10,11
 128 502 128 502 134 550 c 0,12,13
 143 623 143 623 166.5 694 c 128,-1,14
 190 765 190 765 227.5 828 c 128,-1,15
 265 891 265 891 315.5 944 c 128,-1,16
 366 997 366 997 429 1035.5 c 128,-1,17
 492 1074 492 1074 566.5 1095.5 c 128,-1,18
 641 1117 641 1117 726 1117 c 0,19,20
 826 1117 826 1117 903.5 1089 c 128,-1,21
 981 1061 981 1061 1034 1010 c 128,-1,22
 1087 959 1087 959 1114.5 887.5 c 128,-1,23
 1142 816 1142 816 1142 729 c 0,24,25
 1142 687 1142 687 1135 646 c 0,26,27
 1130 615 1130 615 1122.5 589 c 128,-1,28
 1115 563 1115 563 1107 543 c 0,29,30
 1098 520 1098 520 1089 500 c 1,31,-1
 308 500 l 1,32,33
 302 477 302 477 299.5 456 c 128,-1,34
 297 435 297 435 297 415 c 0,35,36
 297 353 297 353 320 301 c 128,-1,37
 343 249 343 249 381 211.5 c 128,-1,38
 419 174 419 174 468 153.5 c 128,-1,39
 517 133 517 133 570 133 c 0,40,41
 634 133 634 133 690.5 145.5 c 128,-1,42
 747 158 747 158 792.5 176 c 128,-1,43
 838 194 838 194 872 213 c 128,-1,44
 906 232 906 232 925 245 c 1,45,-1
 1017 139 l 1,0,1
959 650 m 2,46,47
 961 653 961 653 964 666 c 128,-1,48
 967 679 967 679 969.5 695.5 c 128,-1,49
 972 712 972 712 973.5 727.5 c 128,-1,50
 975 743 975 743 975 752 c 0,51,52
 975 788 975 788 964 824.5 c 128,-1,53
 953 861 953 861 924 891 c 128,-1,54
 895 921 895 921 844 939.5 c 128,-1,55
 793 958 793 958 713 958 c 0,56,57
 648 958 648 958 593.5 939.5 c 128,-1,58
 539 921 539 921 495.5 889.5 c 128,-1,59
 452 858 452 858 420 817 c 128,-1,60
 388 776 388 776 368 732 c 1,61,-1
 286 623 l 1,62,-1
 479 650 l 1,63,-1
 959 650 l 2,46,47
1051 1220 m 1,64,-1
 901 1220 l 1,65,-1
 827 1372 l 1,66,-1
 813 1460 l 1,67,-1
 768 1373 l 1,68,-1
 640 1220 l 1,69,-1
 490 1220 l 1,70,-1
 715 1500 l 1,71,-1
 919 1520 l 1,72,-1
 1051 1220 l 1,64,-1
EndSplineSet
Validated: 1
EndChar

StartChar: edieresis
Encoding: 235 235 158
Width: 1300
GlyphClass: 1
Flags: W
LayerCount: 2
Fore
SplineSet
1017 139 m 1,0,1
 986 112 986 112 940.5 84 c 128,-1,2
 895 56 895 56 836 33.5 c 128,-1,3
 777 11 777 11 705.5 -3 c 128,-1,4
 634 -17 634 -17 552 -17 c 0,5,6
 439 -17 439 -17 359 21.5 c 128,-1,7
 279 60 279 60 227.5 125 c 128,-1,8
 176 190 176 190 152 275.5 c 128,-1,9
 128 361 128 361 128 455 c 0,10,11
 128 502 128 502 134 550 c 0,12,13
 143 623 143 623 166.5 694 c 128,-1,14
 190 765 190 765 227.5 828 c 128,-1,15
 265 891 265 891 315.5 944 c 128,-1,16
 366 997 366 997 429 1035.5 c 128,-1,17
 492 1074 492 1074 566.5 1095.5 c 128,-1,18
 641 1117 641 1117 726 1117 c 0,19,20
 826 1117 826 1117 903.5 1089 c 128,-1,21
 981 1061 981 1061 1034 1010 c 128,-1,22
 1087 959 1087 959 1114.5 887.5 c 128,-1,23
 1142 816 1142 816 1142 729 c 0,24,25
 1142 687 1142 687 1135 646 c 0,26,27
 1130 615 1130 615 1122.5 589 c 128,-1,28
 1115 563 1115 563 1107 543 c 0,29,30
 1098 520 1098 520 1089 500 c 1,31,-1
 308 500 l 1,32,33
 302 477 302 477 299.5 456 c 128,-1,34
 297 435 297 435 297 415 c 0,35,36
 297 353 297 353 320 301 c 128,-1,37
 343 249 343 249 381 211.5 c 128,-1,38
 419 174 419 174 468 153.5 c 128,-1,39
 517 133 517 133 570 133 c 0,40,41
 634 133 634 133 690.5 145.5 c 128,-1,42
 747 158 747 158 792.5 176 c 128,-1,43
 838 194 838 194 872 213 c 128,-1,44
 906 232 906 232 925 245 c 1,45,-1
 1017 139 l 1,0,1
959 650 m 2,46,47
 961 653 961 653 964 666 c 128,-1,48
 967 679 967 679 969.5 695.5 c 128,-1,49
 972 712 972 712 973.5 727.5 c 128,-1,50
 975 743 975 743 975 752 c 0,51,52
 975 788 975 788 964 824.5 c 128,-1,53
 953 861 953 861 924 891 c 128,-1,54
 895 921 895 921 844 939.5 c 128,-1,55
 793 958 793 958 713 958 c 0,56,57
 648 958 648 958 593.5 939.5 c 128,-1,58
 539 921 539 921 495.5 889.5 c 128,-1,59
 452 858 452 858 420 817 c 128,-1,60
 388 776 388 776 368 732 c 1,61,-1
 286 623 l 1,62,-1
 479 650 l 1,63,-1
 959 650 l 2,46,47
542 1500 m 1,64,-1
 742 1500 l 1,65,-1
 707 1300 l 1,66,-1
 507 1300 l 1,67,-1
 542 1500 l 1,64,-1
942 1500 m 1,68,-1
 1142 1500 l 1,69,-1
 1107 1300 l 1,70,-1
 907 1300 l 1,71,-1
 942 1500 l 1,68,-1
EndSplineSet
Validated: 1
EndChar

StartChar: igrave
Encoding: 236 236 159
Width: 1300
GlyphClass: 1
Flags: W
LayerCount: 2
Fore
SplineSet
631 393 m 2,0,1
 622 341 622 341 620.5 297 c 128,-1,2
 619 253 619 253 628.5 221 c 128,-1,3
 638 189 638 189 660 171 c 128,-1,4
 682 153 682 153 719 153 c 0,5,6
 768 153 768 153 816 161 c 128,-1,7
 864 169 864 169 903 179.5 c 128,-1,8
 942 190 942 190 968 199 c 128,-1,9
 994 208 994 208 1000 210 c 1,10,-1
 1012 56 l 1,11,12
 1006 53 1006 53 977.5 41 c 128,-1,13
 949 29 949 29 905 16.5 c 128,-1,14
 861 4 861 4 803 -6.5 c 128,-1,15
 745 -17 745 -17 679 -17 c 0,16,17
 581 -17 581 -17 526 15 c 128,-1,18
 471 47 471 47 447.5 103.5 c 128,-1,19
 424 160 424 160 425.5 237 c 128,-1,20
 427 314 427 314 443 403 c 2,21,-1
 544 977 l 1,22,-1
 489 955 l 1,23,-1
 250 955 l 1,24,-1
 250 1100 l 1,25,-1
 756 1100 l 1,26,-1
 650 501 l 1,27,-1
 631 393 l 2,0,1
772 1200 m 1,28,-1
 622 1200 l 1,29,-1
 450 1500 l 1,30,-1
 658 1520 l 1,31,-1
 772 1200 l 1,28,-1
EndSplineSet
Validated: 33
EndChar

StartChar: iacute
Encoding: 237 237 160
Width: 1300
GlyphClass: 1
Flags: W
LayerCount: 2
Fore
SplineSet
631 393 m 2,0,1
 622 341 622 341 620.5 297 c 128,-1,2
 619 253 619 253 628.5 221 c 128,-1,3
 638 189 638 189 660 171 c 128,-1,4
 682 153 682 153 719 153 c 0,5,6
 768 153 768 153 816 161 c 128,-1,7
 864 169 864 169 903 179.5 c 128,-1,8
 942 190 942 190 968 199 c 128,-1,9
 994 208 994 208 1000 210 c 1,10,-1
 1012 56 l 1,11,12
 1006 53 1006 53 977.5 41 c 128,-1,13
 949 29 949 29 905 16.5 c 128,-1,14
 861 4 861 4 803 -6.5 c 128,-1,15
 745 -17 745 -17 679 -17 c 0,16,17
 581 -17 581 -17 526 15 c 128,-1,18
 471 47 471 47 447.5 103.5 c 128,-1,19
 424 160 424 160 425.5 237 c 128,-1,20
 427 314 427 314 443 403 c 2,21,-1
 544 977 l 1,22,-1
 489 955 l 1,23,-1
 250 955 l 1,24,-1
 250 1100 l 1,25,-1
 756 1100 l 1,26,-1
 650 501 l 1,27,-1
 631 393 l 2,0,1
847 1500 m 1,28,-1
 1081 1520 l 1,29,-1
 784 1200 l 1,30,-1
 634 1200 l 1,31,-1
 847 1500 l 1,28,-1
EndSplineSet
Validated: 33
EndChar

